AnekMalayalam-CondensedThin.ufo
<glyph name="ampersand" format="2">
  <advance width="664"/>
  <unicode hex="0026"/>
  <outline>
    <contour>
      <point x="681" y="0" type="line"/>
      <point x="681" y="2" type="line"/>
      <point x="653" y="50"/>
      <point x="549" y="227"/>
      <point x="516" y="282" type="curve" smooth="yes"/>
      <point x="505" y="300" type="line"/>
      <point x="224" y="768" type="line" smooth="yes"/>
      <point x="173" y="853"/>
      <point x="154" y="916"/>
      <point x="154" y="1014" type="curve" smooth="yes"/>
      <point x="154" y="1030" type="line" smooth="yes"/>
      <point x="154" y="1179"/>
      <point x="196" y="1257"/>
      <point x="310" y="1257" type="curve" smooth="yes"/>
      <point x="380" y="1257"/>
      <point x="431" y="1229"/>
      <point x="479" y="1187" type="curve"/>
      <point x="473" y="1229" type="line"/>
      <point x="436" y="1265"/>
      <point x="382" y="1293"/>
      <point x="312" y="1293" type="curve" smooth="yes"/>
      <point x="172" y="1293"/>
      <point x="115" y="1198"/>
      <point x="115" y="1030" type="curve" smooth="yes"/>
      <point x="115" y="1015" type="line" smooth="yes"/>
      <point x="115" y="912"/>
      <point x="137" y="837"/>
      <point x="189" y="753" type="curve" smooth="yes"/>
      <point x="199" y="737" type="line"/>
      <point x="489" y="253" type="line"/>
      <point x="500" y="234" type="line" smooth="yes"/>
      <point x="511" y="216"/>
      <point x="627" y="19"/>
      <point x="638" y="0" type="curve"/>
    </contour>
    <contour>
      <point x="286" y="-15" type="curve" smooth="yes"/>
      <point x="412" y="-15"/>
      <point x="475" y="72"/>
      <point x="510" y="250" type="curve"/>
      <point x="513" y="257" type="line"/>
      <point x="538" y="395"/>
      <point x="560" y="583"/>
      <point x="569" y="829" type="curve"/>
      <point x="531" y="829" type="line"/>
      <point x="521" y="612"/>
      <point x="507" y="434"/>
      <point x="486" y="298" type="curve"/>
      <point x="481" y="277" type="line"/>
      <point x="448" y="102"/>
      <point x="396" y="21"/>
      <point x="287" y="21" type="curve" smooth="yes"/>
      <point x="173" y="21"/>
      <point x="119" y="92"/>
      <point x="119" y="254" type="curve" smooth="yes"/>
      <point x="119" y="460" type="line" smooth="yes"/>
      <point x="119" y="577"/>
      <point x="148" y="660"/>
      <point x="227" y="723" type="curve"/>
      <point x="205" y="754" type="line"/>
      <point x="101" y="672"/>
      <point x="80" y="567"/>
      <point x="80" y="456" type="curve" smooth="yes"/>
      <point x="80" y="254" type="line" smooth="yes"/>
      <point x="80" y="74"/>
      <point x="145" y="-15"/>
    </contour>
  </outline>
</glyph>
<glyph name="plus" format="2">
  <advance width="608"/>
  <unicode hex="002B"/>
  <outline>
    <contour>
      <point x="322" y="955" type="line"/>
      <point x="287" y="955" type="line"/>
      <point x="287" y="318" type="line"/>
      <point x="322" y="318" type="line"/>
    </contour>
    <contour>
      <point x="547" y="620" type="line"/>
      <point x="547" y="653" type="line"/>
      <point x="61" y="653" type="line"/>
      <point x="61" y="620" type="line"/>
    </contour>
  </outline>
</glyph>
<glyph name="slash" format="2">
  <advance width="454"/>
  <unicode hex="002F"/>
  <outline>
    <contour>
      <point x="86" y="-241" type="line"/>
      <point x="404" y="1352" type="line"/>
      <point x="368" y="1352" type="line"/>
      <point x="50" y="-241" type="line"/>
    </contour>
  </outline>
</glyph>
<glyph name="one" format="2">
  <advance width="405"/>
  <unicode hex="0031"/>
  <outline>
    <contour>
      <point x="287" y="0" type="line"/>
      <point x="287" y="1278" type="line"/>
      <point x="222" y="1278" type="line"/>
      <point x="28" y="1064" type="line"/>
      <point x="28" y="1014" type="line"/>
      <point x="240" y="1245" type="line"/>
      <point x="249" y="1245" type="line"/>
      <point x="249" y="0" type="line"/>
    </contour>
  </outline>
</glyph>
<glyph name="two" format="2">
  <advance width="486"/>
  <unicode hex="0032"/>
  <outline>
    <contour>
      <point x="422" y="0" type="line"/>
      <point x="422" y="34" type="line"/>
      <point x="72" y="34" type="line"/>
      <point x="85" y="12" type="line"/>
      <point x="85" y="40" type="line"/>
      <point x="247" y="410" type="line" smooth="yes"/>
      <point x="359" y="666"/>
      <point x="412" y="791"/>
      <point x="412" y="962" type="curve" smooth="yes"/>
      <point x="412" y="1022" type="line" smooth="yes"/>
      <point x="412" y="1197"/>
      <point x="354" y="1293"/>
      <point x="220" y="1293" type="curve" smooth="yes"/>
      <point x="147" y="1293"/>
      <point x="91" y="1259"/>
      <point x="58" y="1229" type="curve"/>
      <point x="52" y="1187" type="line"/>
      <point x="102" y="1228"/>
      <point x="150" y="1257"/>
      <point x="219" y="1257" type="curve" smooth="yes"/>
      <point x="328" y="1257"/>
      <point x="374" y="1174"/>
      <point x="374" y="1022" type="curve" smooth="yes"/>
      <point x="374" y="961" type="line" smooth="yes"/>
      <point x="374" y="810"/>
      <point x="324" y="682"/>
      <point x="214" y="425" type="curve" smooth="yes"/>
      <point x="50" y="41" type="line"/>
      <point x="50" y="0" type="line"/>
    </contour>
  </outline>
</glyph>
<glyph name="four" format="2">
  <advance width="555"/>
  <unicode hex="0034"/>
  <outline>
    <contour>
      <point x="418" y="0" type="line"/>
      <point x="418" y="1278" type="line"/>
      <point x="335" y="1278" type="line"/>
      <point x="36" y="296" type="line"/>
      <point x="36" y="253" type="line"/>
      <point x="529" y="253" type="line"/>
      <point x="529" y="287" type="line"/>
      <point x="58" y="287" type="line"/>
      <point x="73" y="267" type="line"/>
      <point x="73" y="294" type="line"/>
      <point x="361" y="1245" type="line"/>
      <point x="382" y="1245" type="line"/>
      <point x="380" y="989" type="line"/>
      <point x="380" y="0" type="line"/>
    </contour>
  </outline>
</glyph>
<glyph name="C" format="2">
  <advance width="526"/>
  <unicode hex="0043"/>
  <anchor x="293" y="0" name="bottom"/>
  <anchor x="293" y="1278" name="top"/>
  <outline>
    <contour>
      <point x="311" y="-15" type="curve" smooth="yes"/>
      <point x="381" y="-15"/>
      <point x="437" y="15"/>
      <point x="470" y="47" type="curve"/>
      <point x="476" y="90" type="line"/>
      <point x="429" y="49"/>
      <point x="379" y="21"/>
      <point x="313" y="21" type="curve" smooth="yes"/>
      <point x="187" y="21"/>
      <point x="139" y="110"/>
      <point x="139" y="266" type="curve" smooth="yes"/>
      <point x="139" y="1012" type="line" smooth="yes"/>
      <point x="139" y="1170"/>
      <point x="185" y="1257"/>
      <point x="306" y="1257" type="curve" smooth="yes"/>
      <point x="373" y="1257"/>
      <point x="423" y="1229"/>
      <point x="469" y="1188" type="curve"/>
      <point x="463" y="1229" type="line"/>
      <point x="427" y="1265"/>
      <point x="374" y="1293"/>
      <point x="306" y="1293" type="curve" smooth="yes"/>
      <point x="159" y="1293"/>
      <point x="100" y="1191"/>
      <point x="100" y="1012" type="curve" smooth="yes"/>
      <point x="100" y="266" type="line" smooth="yes"/>
      <point x="100" y="89"/>
      <point x="159" y="-15"/>
    </contour>
  </outline>
</glyph>
<glyph name="I" format="2">
  <advance width="287"/>
  <unicode hex="0049"/>
  <anchor x="144" y="0" name="bottom"/>
  <anchor x="218" y="0" name="ogonek"/>
  <anchor x="144" y="1278" name="top"/>
  <anchor x="20" y="1278" name="topleft"/>
  <outline>
    <contour>
      <point x="163" y="1278" type="line"/>
      <point x="124" y="1278" type="line"/>
      <point x="124" y="0" type="line"/>
      <point x="163" y="0" type="line"/>
    </contour>
  </outline>
</glyph>
<glyph name="bracketright" format="2">
  <advance width="384"/>
  <unicode hex="005D"/>
  <outline>
    <contour>
      <point x="32" y="-241" type="line"/>
      <point x="32" y="-210" type="line"/>
      <point x="224" y="-210" type="line"/>
      <point x="224" y="1321" type="line"/>
      <point x="32" y="1321" type="line"/>
      <point x="32" y="1352" type="line"/>
      <point x="261" y="1352" type="line"/>
      <point x="261" y="-241" type="line"/>
    </contour>
  </outline>
</glyph>
<glyph name="asciicircum" format="2">
  <advance width="483"/>
  <unicode hex="005E"/>
  <outline>
    <contour>
      <point x="64" y="628" type="line"/>
      <point x="99" y="628" type="line"/>
      <point x="238" y="1247" type="line"/>
      <point x="245" y="1247" type="line"/>
      <point x="384" y="628" type="line"/>
      <point x="419" y="628" type="line"/>
      <point x="271" y="1278" type="line"/>
      <point x="212" y="1278" type="line"/>
    </contour>
  </outline>
</glyph>
<glyph name="grave" format="2">
  <advance width="364"/>
  <unicode hex="0060"/>
  <anchor x="238" y="1268" name="top"/>
  <outline>
    <contour>
      <point x="264" y="1108" type="line"/>
      <point x="264" y="1108" type="line"/>
      <point x="231" y="1108" type="line"/>
      <point x="100" y="1331" type="line"/>
      <point x="100" y="1331" type="line"/>
      <point x="142" y="1331" type="line"/>
    </contour>
  </outline>
</glyph>
<glyph name="f" format="2">
  <advance width="452"/>
  <unicode hex="0066"/>
  <anchor x="226" y="0" name="bottom"/>
  <anchor x="226" y="1334" name="top"/>
  <outline>
    <contour>
      <point x="303" y="1349" type="curve" smooth="yes"/>
      <point x="184" y="1349"/>
      <point x="117" y="1271"/>
      <point x="117" y="1146" type="curve"/>
      <point x="117" y="1141" type="line"/>
      <point x="117" y="1070"/>
      <point x="136" y="1006"/>
      <point x="147" y="964" type="curve"/>
      <point x="147" y="957" type="line"/>
      <point x="180" y="962" type="line"/>
      <point x="167" y="1015"/>
      <point x="154" y="1072"/>
      <point x="154" y="1139" type="curve"/>
      <point x="154" y="1145" type="line"/>
      <point x="154" y="1252"/>
      <point x="204" y="1316"/>
      <point x="303" y="1316" type="curve" smooth="yes"/>
      <point x="360" y="1316"/>
      <point x="395" y="1301"/>
      <point x="430" y="1284" type="curve"/>
      <point x="425" y="1319" type="line"/>
      <point x="393" y="1336"/>
      <point x="355" y="1349"/>
    </contour>
    <contour>
      <point x="182" y="0" type="line"/>
      <point x="182" y="949" type="line"/>
      <point x="145" y="949" type="line"/>
      <point x="145" y="0" type="line"/>
    </contour>
    <contour>
      <point x="421" y="940" type="line"/>
      <point x="426" y="972" type="line"/>
      <point x="169" y="972" type="line"/>
      <point x="160" y="972" type="line"/>
      <point x="20" y="972" type="line"/>
      <point x="20" y="940" type="line"/>
    </contour>
  </outline>
</glyph>
<glyph name="g" format="2">
  <advance width="577"/>
  <unicode hex="0067"/>
  <anchor x="299" y="-350" name="bottom"/>
  <anchor x="295" y="990" name="top"/>
  <outline>
    <contour>
      <point x="288" y="210" type="curve" smooth="yes"/>
      <point x="416" y="210"/>
      <point x="483" y="294"/>
      <point x="483" y="464" type="curve" smooth="yes"/>
      <point x="483" y="760" type="line" smooth="yes"/>
      <point x="483" y="881"/>
      <point x="446" y="972"/>
      <point x="321" y="984" type="curve"/>
      <point x="327" y="979" type="line"/>
      <point x="555" y="975" type="line"/>
      <point x="555" y="1010" type="line"/>
      <point x="295" y="1001" type="line" smooth="yes"/>
      <point x="124" y="995"/>
      <point x="93" y="876"/>
      <point x="93" y="749" type="curve" smooth="yes"/>
      <point x="93" y="458" type="line" smooth="yes"/>
      <point x="93" y="293"/>
      <point x="164" y="210"/>
    </contour>
    <contour>
      <point x="295" y="-329" type="line" smooth="yes"/>
      <point x="177" y="-329"/>
      <point x="98" y="-276"/>
      <point x="98" y="-178" type="curve" smooth="yes"/>
      <point x="98" y="-174" type="line" smooth="yes"/>
      <point x="98" y="-69"/>
      <point x="164" y="-17"/>
      <point x="283" y="7" type="curve"/>
      <point x="261" y="6" type="line"/>
      <point x="344" y="-11" type="line" smooth="yes"/>
      <point x="465" y="-36"/>
      <point x="507" y="-85"/>
      <point x="507" y="-175" type="curve" smooth="yes"/>
      <point x="507" y="-179" type="line" smooth="yes"/>
      <point x="507" y="-281"/>
      <point x="428" y="-329"/>
      <point x="310" y="-329" type="curve" smooth="yes"/>
    </contour>
    <contour>
      <point x="310" y="-362" type="line" smooth="yes"/>
      <point x="448" y="-362"/>
      <point x="542" y="-299"/>
      <point x="542" y="-177" type="curve" smooth="yes"/>
      <point x="542" y="-173" type="line" smooth="yes"/>
      <point x="542" y="-72"/>
      <point x="494" y="-14"/>
      <point x="354" y="18" type="curve" smooth="yes"/>
      <point x="257" y="40" type="line" smooth="yes"/>
      <point x="174" y="59"/>
      <point x="137" y="84"/>
      <point x="137" y="132" type="curve"/>
      <point x="137" y="134" type="line"/>
      <point x="137" y="189"/>
      <point x="180" y="216"/>
      <point x="254" y="216" type="curve"/>
      <point x="291" y="216" type="line"/>
      <point x="213" y="236" type="line"/>
      <point x="213" y="231" type="line"/>
      <point x="154" y="226"/>
      <point x="102" y="195"/>
      <point x="102" y="131" type="curve"/>
      <point x="102" y="129" type="line"/>
      <point x="102" y="63"/>
      <point x="154" y="28"/>
      <point x="253" y="11" type="curve"/>
      <point x="248" y="18" type="line"/>
      <point x="142" y="-2"/>
      <point x="63" y="-60"/>
      <point x="63" y="-174" type="curve" smooth="yes"/>
      <point x="63" y="-178" type="line" smooth="yes"/>
      <point x="63" y="-298"/>
      <point x="155" y="-362"/>
      <point x="295" y="-362" type="curve" smooth="yes"/>
    </contour>
    <contour>
      <point x="288" y="242" type="curve" smooth="yes"/>
      <point x="180" y="242"/>
      <point x="130" y="319"/>
      <point x="130" y="464" type="curve" smooth="yes"/>
      <point x="130" y="749" type="line" smooth="yes"/>
      <point x="130" y="892"/>
      <point x="181" y="968"/>
      <point x="288" y="968" type="curve" smooth="yes"/>
      <point x="295" y="968" type="line" smooth="yes"/>
      <point x="397" y="968"/>
      <point x="446" y="889"/>
      <point x="446" y="753" type="curve" smooth="yes"/>
      <point x="446" y="464" type="line" smooth="yes"/>
      <point x="446" y="319"/>
      <point x="395" y="242"/>
    </contour>
  </outline>
</glyph>
<glyph name="h" format="2">
  <advance width="623"/>
  <unicode hex="0068"/>
  <anchor x="312" y="0" name="bottom"/>
  <anchor x="312" y="667" name="center"/>
  <anchor x="129" y="1334" name="top"/>
  <outline>
    <contour>
      <point x="521" y="0" type="line"/>
      <point x="521" y="740" type="line" smooth="yes"/>
      <point x="521" y="911"/>
      <point x="462" y="1003"/>
      <point x="333" y="1003" type="curve" smooth="yes"/>
      <point x="214" y="1003"/>
      <point x="156" y="918"/>
      <point x="138" y="810" type="curve"/>
      <point x="120" y="810" type="line"/>
      <point x="145" y="764" type="line"/>
      <point x="166" y="883"/>
      <point x="219" y="970"/>
      <point x="327" y="970" type="curve" smooth="yes"/>
      <point x="440" y="970"/>
      <point x="484" y="887"/>
      <point x="484" y="738" type="curve" smooth="yes"/>
      <point x="484" y="0" type="line"/>
    </contour>
    <contour>
      <point x="147" y="0" type="line"/>
      <point x="147" y="812" type="line"/>
      <point x="143" y="812" type="line"/>
      <point x="147" y="1025" type="line"/>
      <point x="147" y="1334" type="line"/>
      <point x="110" y="1334" type="line"/>
      <point x="110" y="0" type="line"/>
    </contour>
  </outline>
</glyph>
<glyph name="j" format="2">
  <advance width="275"/>
  <unicode hex="006A"/>
  <outline>
    <component base="jbottom"/>
    <contour>
      <point x="159" y="233" type="line"/>
      <point x="159" y="990" type="line"/>
      <point x="122" y="990" type="line"/>
      <point x="122" y="234" type="line"/>
    </contour>
    <contour>
      <point x="141" y="1171" type="curve" smooth="yes"/>
      <point x="162" y="1171"/>
      <point x="169" y="1190"/>
      <point x="169" y="1230" type="curve" smooth="yes"/>
      <point x="169" y="1244" type="line" smooth="yes"/>
      <point x="169" y="1284"/>
      <point x="162" y="1302"/>
      <point x="141" y="1302" type="curve" smooth="yes"/>
      <point x="120" y="1302"/>
      <point x="112" y="1284"/>
      <point x="112" y="1244" type="curve" smooth="yes"/>
      <point x="112" y="1230" type="line" smooth="yes"/>
      <point x="112" y="1190"/>
      <point x="120" y="1171"/>
    </contour>
  </outline>
</glyph>
<glyph name="r" format="2">
  <advance width="401"/>
  <unicode hex="0072"/>
  <anchor x="130" y="0" name="bottom"/>
  <anchor x="241" y="990" name="top"/>
  <outline>
    <contour>
      <point x="144" y="686" type="line"/>
      <point x="161" y="870"/>
      <point x="235" y="964"/>
      <point x="341" y="964" type="curve" smooth="yes"/>
      <point x="358" y="964"/>
      <point x="374" y="962"/>
      <point x="387" y="959" type="curve"/>
      <point x="383" y="994" type="line"/>
      <point x="372" y="997"/>
      <point x="357" y="999"/>
      <point x="341" y="999" type="curve" smooth="yes"/>
      <point x="218" y="999"/>
      <point x="139" y="886"/>
      <point x="136" y="710" type="curve"/>
      <point x="127" y="710" type="line"/>
    </contour>
    <contour>
      <point x="147" y="0" type="line"/>
      <point x="147" y="749" type="line"/>
      <point x="142" y="758" type="line"/>
      <point x="147" y="990" type="line"/>
      <point x="110" y="990" type="line"/>
      <point x="110" y="0" type="line"/>
    </contour>
  </outline>
</glyph>
<glyph name="s" format="2">
  <advance width="468"/>
  <unicode hex="0073"/>
  <anchor x="229" y="0" name="bottom"/>
  <anchor x="229" y="990" name="top"/>
  <outline>
    <contour>
      <point x="218" y="-13" type="curve" smooth="yes"/>
      <point x="338" y="-13"/>
      <point x="406" y="73"/>
      <point x="406" y="214" type="curve" smooth="yes"/>
      <point x="406" y="265" type="line" smooth="yes"/>
      <point x="406" y="388"/>
      <point x="372" y="451"/>
      <point x="244" y="524" type="curve" smooth="yes"/>
      <point x="132" y="588"/>
      <point x="97" y="638"/>
      <point x="97" y="757" type="curve" smooth="yes"/>
      <point x="97" y="786" type="line" smooth="yes"/>
      <point x="97" y="901"/>
      <point x="143" y="968"/>
      <point x="240" y="968" type="curve" smooth="yes"/>
      <point x="307" y="968"/>
      <point x="350" y="940"/>
      <point x="402" y="893" type="curve"/>
      <point x="397" y="936" type="line"/>
      <point x="361" y="972"/>
      <point x="314" y="1003"/>
      <point x="241" y="1003" type="curve" smooth="yes"/>
      <point x="120" y="1003"/>
      <point x="60" y="922"/>
      <point x="60" y="786" type="curve" smooth="yes"/>
      <point x="60" y="758" type="line" smooth="yes"/>
      <point x="60" y="622"/>
      <point x="102" y="563"/>
      <point x="228" y="491" type="curve" smooth="yes"/>
      <point x="363" y="414"/>
      <point x="369" y="348"/>
      <point x="369" y="261" type="curve" smooth="yes"/>
      <point x="369" y="214" type="line" smooth="yes"/>
      <point x="369" y="94"/>
      <point x="317" y="22"/>
      <point x="219" y="22" type="curve" smooth="yes"/>
      <point x="158" y="22"/>
      <point x="106" y="49"/>
      <point x="54" y="92" type="curve"/>
      <point x="59" y="48" type="line"/>
      <point x="92" y="18"/>
      <point x="150" y="-13"/>
    </contour>
  </outline>
</glyph>
<glyph name="exclamdown" format="2">
  <advance width="307"/>
  <unicode hex="00A1"/>
  <outline>
    <contour>
      <point x="174" y="-288" type="line"/>
      <point x="133" y="-288" type="line"/>
      <point x="139" y="633" type="line"/>
      <point x="168" y="633" type="line"/>
    </contour>
    <contour>
      <point x="153" y="999" type="curve" smooth="yes"/>
      <point x="175" y="999"/>
      <point x="183" y="981"/>
      <point x="183" y="940" type="curve" smooth="yes"/>
      <point x="183" y="924" type="line" smooth="yes"/>
      <point x="183" y="884"/>
      <point x="175" y="865"/>
      <point x="153" y="865" type="curve" smooth="yes"/>
      <point x="131" y="865"/>
      <point x="124" y="884"/>
      <point x="124" y="924" type="curve" smooth="yes"/>
      <point x="124" y="940" type="line" smooth="yes"/>
      <point x="124" y="981"/>
      <point x="131" y="999"/>
    </contour>
  </outline>
</glyph>
<glyph name="cent" format="2">
  <advance width="468"/>
  <unicode hex="00A2"/>
  <outline>
    <component base="c"/>
    <contour>
      <point x="287" y="1165" type="line"/>
      <point x="252" y="1165" type="line"/>
      <point x="252" y="987.325" type="line"/>
      <point x="287" y="987.325" type="line"/>
    </contour>
    <contour>
      <point x="287" y="4" type="line"/>
      <point x="252" y="4" type="line"/>
      <point x="252" y="-185" type="line"/>
      <point x="287" y="-185" type="line"/>
    </contour>
  </outline>
</glyph>
<glyph name="sterling" format="2">
  <advance width="575"/>
  <unicode hex="00A3"/>
  <outline>
    <contour>
      <point x="457" y="641" type="line"/>
      <point x="463" y="675" type="line"/>
      <point x="65" y="675" type="line"/>
      <point x="60" y="641" type="line"/>
    </contour>
    <contour>
      <point x="105" y="37" type="line"/>
      <point x="200" y="130"/>
      <point x="226" y="277"/>
      <point x="226" y="447" type="curve" smooth="yes"/>
      <point x="226" y="626"/>
      <point x="184" y="863"/>
      <point x="184" y="1026" type="curve" smooth="yes"/>
      <point x="184" y="1175"/>
      <point x="229" y="1257"/>
      <point x="345" y="1257" type="curve" smooth="yes"/>
      <point x="397" y="1257"/>
      <point x="443" y="1246"/>
      <point x="495" y="1220" type="curve"/>
      <point x="490" y="1257" type="line"/>
      <point x="458" y="1276"/>
      <point x="402" y="1293"/>
      <point x="347" y="1293" type="curve" smooth="yes"/>
      <point x="203" y="1293"/>
      <point x="145" y="1199"/>
      <point x="145" y="1026" type="curve" smooth="yes"/>
      <point x="145" y="853"/>
      <point x="188" y="635"/>
      <point x="188" y="447" type="curve" smooth="yes"/>
      <point x="188" y="266"/>
      <point x="162" y="123"/>
      <point x="60" y="31" type="curve"/>
      <point x="60" y="31" type="line"/>
      <point x="60" y="0" type="line"/>
      <point x="515" y="0" type="line"/>
      <point x="515" y="35" type="line"/>
      <point x="105" y="35" type="line"/>
    </contour>
  </outline>
</glyph>
<glyph name="degree" format="2">
  <advance width="470"/>
  <unicode hex="00B0"/>
  <outline>
    <contour>
      <point x="235" y="858" type="curve" smooth="yes"/>
      <point x="335" y="858"/>
      <point x="390" y="934"/>
      <point x="390" y="1068" type="curve"/>
      <point x="390" y="1083" type="line"/>
      <point x="390" y="1217"/>
      <point x="335" y="1293"/>
      <point x="235" y="1293" type="curve" smooth="yes"/>
      <point x="135" y="1293"/>
      <point x="80" y="1217"/>
      <point x="80" y="1083" type="curve"/>
      <point x="80" y="1068" type="line"/>
      <point x="80" y="935"/>
      <point x="135" y="858"/>
    </contour>
    <contour>
      <point x="235" y="890" type="curve" smooth="yes"/>
      <point x="157" y="890"/>
      <point x="115" y="955"/>
      <point x="115" y="1066" type="curve" smooth="yes"/>
      <point x="115" y="1085" type="line" smooth="yes"/>
      <point x="115" y="1196"/>
      <point x="156" y="1261"/>
      <point x="235" y="1261" type="curve" smooth="yes"/>
      <point x="314" y="1261"/>
      <point x="355" y="1196"/>
      <point x="355" y="1085" type="curve" smooth="yes"/>
      <point x="355" y="1066" type="line" smooth="yes"/>
      <point x="355" y="954"/>
      <point x="314" y="890"/>
    </contour>
  </outline>
</glyph>
<glyph name="paragraph" format="2">
  <advance width="433"/>
  <unicode hex="00B6"/>
  <outline>
    <contour>
      <point x="283" y="677" type="line"/>
      <point x="284" y="1278" type="line"/>
      <point x="247" y="1278" type="line" smooth="yes"/>
      <point x="137" y="1278"/>
      <point x="83" y="1199"/>
      <point x="83" y="1076" type="curve" smooth="yes"/>
      <point x="83" y="881" type="line" smooth="yes"/>
      <point x="83" y="756"/>
      <point x="137" y="677"/>
      <point x="249" y="677" type="curve"/>
    </contour>
    <contour>
      <point x="312" y="1278" type="line"/>
      <point x="273" y="1278" type="line"/>
      <point x="273" y="0" type="line"/>
      <point x="312" y="0" type="line"/>
    </contour>
  </outline>
</glyph>
<glyph name="onesuperior" format="2">
  <advance width="259"/>
  <unicode hex="00B9"/>
  <outline>
    <contour>
      <point x="189" y="700" type="line"/>
      <point x="189" y="1383" type="line"/>
      <point x="143" y="1383" type="line"/>
      <point x="16" y="1264" type="line"/>
      <point x="16" y="1224" type="line"/>
      <point x="152" y="1350" type="line"/>
      <point x="156" y="1350" type="line"/>
      <point x="156" y="700" type="line"/>
    </contour>
  </outline>
</glyph>
<glyph name="Eth" format="2">
  <advance width="665"/>
  <unicode hex="00D0"/>
  <outline>
    <component base="D"/>
    <contour>
      <point x="354" y="647" type="line"/>
      <point x="354" y="681" type="line"/>
      <point x="22" y="681" type="line"/>
      <point x="22" y="647" type="line"/>
    </contour>
  </outline>
</glyph>
<glyph name="Thorn" format="2">
  <advance width="599"/>
  <unicode hex="00DE"/>
  <anchor x="300" y="0" name="bottom"/>
  <anchor x="300" y="1278" name="top"/>
  <outline>
    <contour>
      <point x="305" y="238" type="line" smooth="yes"/>
      <point x="453" y="238"/>
      <point x="526" y="344"/>
      <point x="526" y="510" type="curve" smooth="yes"/>
      <point x="526" y="770" type="line" smooth="yes"/>
      <point x="526" y="935"/>
      <point x="453" y="1040"/>
      <point x="307" y="1040" type="curve" smooth="yes"/>
      <point x="139" y="1040" type="line"/>
      <point x="139" y="1005" type="line"/>
      <point x="305" y="1005" type="line" smooth="yes"/>
      <point x="428" y="1005"/>
      <point x="487" y="915"/>
      <point x="487" y="768" type="curve" smooth="yes"/>
      <point x="487" y="512" type="line" smooth="yes"/>
      <point x="487" y="364"/>
      <point x="428" y="273"/>
      <point x="303" y="273" type="curve" smooth="yes"/>
      <point x="132" y="273" type="line"/>
      <point x="132" y="238" type="line"/>
    </contour>
    <contour>
      <point x="160" y="0" type="line"/>
      <point x="160" y="253" type="line"/>
      <point x="160" y="263" type="line"/>
      <point x="160" y="1018" type="line"/>
      <point x="160" y="1031" type="line"/>
      <point x="160" y="1278" type="line"/>
      <point x="121" y="1278" type="line"/>
      <point x="121" y="0" type="line"/>
    </contour>
  </outline>
</glyph>
<glyph name="combininganusvaraabovesign.mlm" format="2">
  <unicode hex="0D00"/>
  <outline>
    <contour>
      <point x="-462" y="1420" type="line" smooth="yes"/>
      <point x="-462" y="1319"/>
      <point x="-414" y="1270"/>
      <point x="-328" y="1270" type="curve" smooth="yes"/>
      <point x="-241" y="1270"/>
      <point x="-193" y="1319"/>
      <point x="-193" y="1420" type="curve" smooth="yes"/>
      <point x="-193" y="1438" type="line" smooth="yes"/>
      <point x="-193" y="1538"/>
      <point x="-241" y="1588"/>
      <point x="-328" y="1588" type="curve" smooth="yes"/>
      <point x="-414" y="1588"/>
      <point x="-462" y="1538"/>
      <point x="-462" y="1438" type="curve" smooth="yes"/>
    </contour>
    <contour>
      <point x="-224" y="1420" type="line" smooth="yes"/>
      <point x="-224" y="1340"/>
      <point x="-261" y="1299"/>
      <point x="-328" y="1299" type="curve" smooth="yes"/>
      <point x="-394" y="1299"/>
      <point x="-431" y="1340"/>
      <point x="-431" y="1420" type="curve" smooth="yes"/>
      <point x="-431" y="1438" type="line" smooth="yes"/>
      <point x="-431" y="1517"/>
      <point x="-394" y="1558"/>
      <point x="-328" y="1558" type="curve" smooth="yes"/>
      <point x="-261" y="1558"/>
      <point x="-224" y="1517"/>
      <point x="-224" y="1438" type="curve" smooth="yes"/>
    </contour>
  </outline>
</glyph>
<glyph name="Visarga.mlm" format="2">
  <advance width="490"/>
  <unicode hex="0D03"/>
  <outline>
    <contour>
      <point x="371" y="323" type="curve" smooth="yes"/>
      <point x="371" y="195" type="line" smooth="yes"/>
      <point x="371" y="83"/>
      <point x="331" y="24"/>
      <point x="245" y="24" type="curve" smooth="yes"/>
      <point x="159" y="24"/>
      <point x="119" y="83"/>
      <point x="119" y="195" type="curve" smooth="yes"/>
      <point x="119" y="323" type="line" smooth="yes"/>
      <point x="119" y="435"/>
      <point x="159" y="494"/>
      <point x="245" y="494" type="curve" smooth="yes"/>
      <point x="331" y="494"/>
      <point x="371" y="435"/>
    </contour>
    <contour>
      <point x="84" y="323" type="curve" smooth="yes"/>
      <point x="84" y="195" type="line" smooth="yes"/>
      <point x="84" y="63"/>
      <point x="135" y="-9"/>
      <point x="245" y="-9" type="curve" smooth="yes"/>
      <point x="355" y="-9"/>
      <point x="406" y="63"/>
      <point x="406" y="195" type="curve" smooth="yes"/>
      <point x="406" y="323" type="line" smooth="yes"/>
      <point x="406" y="455"/>
      <point x="355" y="527"/>
      <point x="245" y="527" type="curve" smooth="yes"/>
      <point x="135" y="527"/>
      <point x="84" y="455"/>
    </contour>
    <contour>
      <point x="371" y="988" type="curve" smooth="yes"/>
      <point x="371" y="868" type="line" smooth="yes"/>
      <point x="371" y="756"/>
      <point x="331" y="697"/>
      <point x="245" y="697" type="curve" smooth="yes"/>
      <point x="159" y="697"/>
      <point x="119" y="756"/>
      <point x="119" y="868" type="curve" smooth="yes"/>
      <point x="119" y="988" type="line" smooth="yes"/>
      <point x="119" y="1100"/>
      <point x="159" y="1159"/>
      <point x="245" y="1159" type="curve" smooth="yes"/>
      <point x="331" y="1159"/>
      <point x="371" y="1100"/>
    </contour>
    <contour>
      <point x="84" y="988" type="curve" smooth="yes"/>
      <point x="84" y="868" type="line" smooth="yes"/>
      <point x="84" y="735"/>
      <point x="135" y="664"/>
      <point x="245" y="664" type="curve" smooth="yes"/>
      <point x="355" y="664"/>
      <point x="406" y="735"/>
      <point x="406" y="868" type="curve" smooth="yes"/>
      <point x="406" y="988" type="line" smooth="yes"/>
      <point x="406" y="1121"/>
      <point x="355" y="1192"/>
      <point x="245" y="1192" type="curve" smooth="yes"/>
      <point x="135" y="1192"/>
      <point x="84" y="1121"/>
    </contour>
  </outline>
</glyph>
<glyph name="uni0D04" format="2">
  <advance width="740"/>
  <unicode hex="0D04"/>
  <outline>
    <contour>
      <point x="370" y="880" type="curve" smooth="yes"/>
      <point x="355" y="880"/>
      <point x="348" y="870"/>
      <point x="348" y="850" type="curve" smooth="yes"/>
      <point x="348" y="581" type="line" smooth="yes"/>
      <point x="348" y="561"/>
      <point x="355" y="552"/>
      <point x="370" y="552" type="curve" smooth="yes"/>
      <point x="385" y="552"/>
      <point x="392" y="561"/>
      <point x="392" y="581" type="curve" smooth="yes"/>
      <point x="392" y="850" type="line" smooth="yes"/>
      <point x="392" y="870"/>
      <point x="385" y="880"/>
    </contour>
    <contour>
      <point x="370" y="254" type="curve" smooth="yes"/>
      <point x="554" y="254"/>
      <point x="640" y="368"/>
      <point x="640" y="591" type="curve" smooth="yes"/>
      <point x="640" y="758" type="line"/>
      <point x="605" y="758" type="line"/>
      <point x="605" y="591" type="line" smooth="yes"/>
      <point x="605" y="388"/>
      <point x="530" y="287"/>
      <point x="370" y="287" type="curve" smooth="yes"/>
      <point x="210" y="287"/>
      <point x="134" y="388"/>
      <point x="134" y="591" type="curve" smooth="yes"/>
      <point x="134" y="758" type="line"/>
      <point x="99" y="758" type="line"/>
      <point x="99" y="591" type="line" smooth="yes"/>
      <point x="99" y="368"/>
      <point x="186" y="254"/>
    </contour>
  </outline>
</glyph>
<glyph name="vowelA.mlm" format="2">
  <advance width="1754"/>
  <unicode hex="0D05"/>
  <outline>
    <contour>
      <point x="1025" y="2" type="line"/>
      <point x="1060" y="2" type="line"/>
      <point x="1060" y="791" type="line"/>
      <point x="1025" y="791" type="line"/>
    </contour>
    <contour>
      <point x="1041" y="972" type="line"/>
      <point x="1019" y="1113"/>
      <point x="926" y="1192"/>
      <point x="753" y="1192" type="curve" smooth="yes"/>
      <point x="696" y="1192"/>
      <point x="640" y="1181"/>
      <point x="600" y="1161" type="curve"/>
      <point x="627" y="1139" type="line"/>
      <point x="661" y="1152"/>
      <point x="707" y="1159"/>
      <point x="753" y="1159" type="curve" smooth="yes"/>
      <point x="933" y="1159"/>
      <point x="1025" y="1065"/>
      <point x="1025" y="881" type="curve" smooth="yes"/>
      <point x="1025" y="672" type="line"/>
      <point x="1041" y="672" type="line"/>
    </contour>
    <contour>
      <point x="147" y="811" type="line" smooth="yes"/>
      <point x="147" y="1041.29"/>
      <point x="247.457" y="1159"/>
      <point x="444" y="1159" type="curve" smooth="yes"/>
      <point x="497.609" y="1159"/>
      <point x="543.275" y="1154"/>
      <point x="581" y="1141" type="curve"/>
      <point x="585" y="1139"/>
      <point x="598" y="1135"/>
      <point x="600" y="1133" type="curve"/>
      <point x="716" y="1082"/>
      <point x="762" y="988"/>
      <point x="762" y="837" type="curve" smooth="yes"/>
      <point x="762" y="815" type="line" smooth="yes"/>
      <point x="762" y="664"/>
      <point x="712" y="607"/>
      <point x="600" y="596" type="curve" smooth="yes"/>
      <point x="581" y="594" type="line"/>
      <point x="581" y="567" type="line"/>
      <point x="607" y="565" type="line" smooth="yes"/>
      <point x="721" y="558"/>
      <point x="762" y="491"/>
      <point x="762" y="348" type="curve" smooth="yes"/>
      <point x="762" y="226" type="line" smooth="yes"/>
      <point x="762" y="92"/>
      <point x="716" y="24"/>
      <point x="607" y="24" type="curve" smooth="yes"/>
      <point x="499" y="24"/>
      <point x="451" y="92"/>
      <point x="451" y="226" type="curve" smooth="yes"/>
      <point x="451" y="813" type="line" smooth="yes"/>
      <point x="451" y="979"/>
      <point x="499" y="1086"/>
      <point x="613" y="1135" type="curve"/>
      <point x="581" y="1152" type="line"/>
      <point x="464" y="1093"/>
      <point x="416" y="981"/>
      <point x="416" y="813" type="curve" smooth="yes"/>
      <point x="416" y="226" type="line" smooth="yes"/>
      <point x="416" y="70"/>
      <point x="477" y="-9"/>
      <point x="607" y="-9" type="curve" smooth="yes"/>
      <point x="738" y="-9"/>
      <point x="797" y="70"/>
      <point x="797" y="226" type="curve" smooth="yes"/>
      <point x="797" y="346" type="line" smooth="yes"/>
      <point x="797" y="491"/>
      <point x="753" y="567"/>
      <point x="655" y="581" type="curve"/>
      <point x="655" y="583" type="line"/>
      <point x="753" y="598"/>
      <point x="797" y="673"/>
      <point x="797" y="815" type="curve" smooth="yes"/>
      <point x="797" y="837" type="line" smooth="yes"/>
      <point x="797" y="984"/>
      <point x="745" y="1100"/>
      <point x="633" y="1150" type="curve"/>
      <point x="620" y="1159" type="line"/>
      <point x="572" y="1181"/>
      <point x="512" y="1192"/>
      <point x="443" y="1192" type="curve" smooth="yes"/>
      <point x="225.894" y="1192"/>
      <point x="112" y="1060.9"/>
      <point x="112" y="811" type="curve" smooth="yes"/>
      <point x="112" y="362" type="line" smooth="yes"/>
      <point x="112" y="190"/>
      <point x="140" y="70"/>
      <point x="199" y="0" type="curve"/>
      <point x="241" y="0" type="line"/>
      <point x="180" y="70"/>
      <point x="147" y="191"/>
      <point x="147" y="364" type="curve" smooth="yes"/>
    </contour>
    <contour>
      <point x="1325" y="1192" type="curve" smooth="yes"/>
      <point x="1159" y="1192"/>
      <point x="1065" y="1113"/>
      <point x="1043" y="972" type="curve"/>
      <point x="1032" y="972" type="line"/>
      <point x="1032" y="672" type="line"/>
      <point x="1060" y="672" type="line"/>
      <point x="1060" y="881" type="line" smooth="yes"/>
      <point x="1060" y="1065"/>
      <point x="1150" y="1159"/>
      <point x="1325" y="1159" type="curve" smooth="yes"/>
      <point x="1514" y="1159"/>
      <point x="1608" y="1045"/>
      <point x="1608" y="813" type="curve" smooth="yes"/>
      <point x="1608" y="728" type="line"/>
      <point x="1601" y="728" type="line"/>
      <point x="1608" y="708" type="line"/>
      <point x="1608" y="223" type="line" smooth="yes"/>
      <point x="1608" y="90"/>
      <point x="1562" y="24"/>
      <point x="1465" y="24" type="curve" smooth="yes"/>
      <point x="1369" y="24"/>
      <point x="1323" y="90"/>
      <point x="1323" y="223" type="curve" smooth="yes"/>
      <point x="1323" y="589" type="line" smooth="yes"/>
      <point x="1323" y="712"/>
      <point x="1367" y="773"/>
      <point x="1466" y="773" type="curve" smooth="yes"/>
      <point x="1529" y="773"/>
      <point x="1581" y="745"/>
      <point x="1608" y="684" type="curve"/>
      <point x="1621" y="696" type="line"/>
      <point x="1604" y="760"/>
      <point x="1544" y="806"/>
      <point x="1463" y="806" type="curve" smooth="yes"/>
      <point x="1347" y="806"/>
      <point x="1288" y="732"/>
      <point x="1288" y="592" type="curve" smooth="yes"/>
      <point x="1288" y="223" type="line" smooth="yes"/>
      <point x="1288" y="68"/>
      <point x="1345" y="-9"/>
      <point x="1465" y="-9" type="curve" smooth="yes"/>
      <point x="1586" y="-9"/>
      <point x="1643" y="68"/>
      <point x="1643" y="223" type="curve" smooth="yes"/>
      <point x="1643" y="813" type="line" smooth="yes"/>
      <point x="1643" y="1067"/>
      <point x="1536" y="1192"/>
    </contour>
  </outline>
</glyph>
<glyph name="vowelI.mlm" format="2">
  <advance width="1154"/>
  <unicode hex="0D07"/>
  <outline>
    <contour>
      <point x="402" y="1192" type="curve" smooth="yes"/>
      <point x="205" y="1192"/>
      <point x="109" y="1073"/>
      <point x="109" y="843" type="curve" smooth="yes"/>
      <point x="109" y="388" type="line" smooth="yes"/>
      <point x="109" y="254"/>
      <point x="159" y="180"/>
      <point x="273" y="180" type="curve" smooth="yes"/>
      <point x="387" y="180"/>
      <point x="437" y="254"/>
      <point x="437" y="388" type="curve" smooth="yes"/>
      <point x="437" y="681" type="line" smooth="yes"/>
      <point x="437" y="804"/>
      <point x="385" y="872"/>
      <point x="284" y="872" type="curve" smooth="yes"/>
      <point x="198" y="872"/>
      <point x="148" y="819"/>
      <point x="129" y="745" type="curve"/>
      <point x="144" y="734" type="line"/>
      <point x="168" y="804"/>
      <point x="218" y="839"/>
      <point x="280" y="839" type="curve" smooth="yes"/>
      <point x="361" y="839"/>
      <point x="402" y="784"/>
      <point x="402" y="677" type="curve" smooth="yes"/>
      <point x="402" y="388" type="line" smooth="yes"/>
      <point x="402" y="274"/>
      <point x="361" y="213"/>
      <point x="273" y="213" type="curve" smooth="yes"/>
      <point x="185" y="213"/>
      <point x="144" y="274"/>
      <point x="144" y="388" type="curve" smooth="yes"/>
      <point x="144" y="757" type="line"/>
      <point x="153" y="786" type="line"/>
      <point x="144" y="786" type="line"/>
      <point x="144" y="843" type="line" smooth="yes"/>
      <point x="144" y="1052"/>
      <point x="227" y="1159"/>
      <point x="402" y="1159" type="curve" smooth="yes"/>
      <point x="560" y="1159"/>
      <point x="643" y="1071"/>
      <point x="643" y="900" type="curve" smooth="yes"/>
      <point x="643" y="210" type="line"/>
      <point x="678" y="210" type="line"/>
      <point x="678" y="938" type="line" smooth="yes"/>
      <point x="678" y="1084"/>
      <point x="727" y="1159"/>
      <point x="840" y="1159" type="curve" smooth="yes"/>
      <point x="954" y="1159"/>
      <point x="1002" y="1084"/>
      <point x="1002" y="938" type="curve" smooth="yes"/>
      <point x="1002" y="315" type="line" smooth="yes"/>
      <point x="1002" y="127"/>
      <point x="934" y="31"/>
      <point x="783" y="31" type="curve" smooth="yes"/>
      <point x="266" y="31" type="line" smooth="yes"/>
      <point x="156" y="31"/>
      <point x="101" y="-26"/>
      <point x="101" y="-125" type="curve" smooth="yes"/>
      <point x="101" y="-226"/>
      <point x="156" y="-283"/>
      <point x="266" y="-283" type="curve" smooth="yes"/>
      <point x="1024" y="-283" type="line"/>
      <point x="1031" y="-252" type="line"/>
      <point x="266" y="-252" type="line" smooth="yes"/>
      <point x="179" y="-252"/>
      <point x="137" y="-206"/>
      <point x="137" y="-125" type="curve" smooth="yes"/>
      <point x="137" y="-46"/>
      <point x="179" y="0"/>
      <point x="266" y="0" type="curve" smooth="yes"/>
      <point x="783" y="0" type="line" smooth="yes"/>
      <point x="954" y="0"/>
      <point x="1037" y="107"/>
      <point x="1037" y="315" type="curve" smooth="yes"/>
      <point x="1037" y="938" type="line" smooth="yes"/>
      <point x="1037" y="1106"/>
      <point x="978" y="1192"/>
      <point x="840" y="1192" type="curve" smooth="yes"/>
      <point x="737" y="1192"/>
      <point x="669" y="1133"/>
      <point x="658" y="1008" type="curve"/>
      <point x="656" y="1008" type="line"/>
      <point x="634" y="1122"/>
      <point x="549" y="1192"/>
    </contour>
  </outline>
</glyph>
<glyph name="vowelU.mlm" format="2">
  <advance width="850"/>
  <unicode hex="0D09"/>
  <outline>
    <contour>
      <point x="420" y="1192" type="curve" smooth="yes"/>
      <point x="207" y="1192"/>
      <point x="108" y="1065"/>
      <point x="108" y="824" type="curve" smooth="yes"/>
      <point x="108" y="392" type="line" smooth="yes"/>
      <point x="108" y="255"/>
      <point x="158" y="180"/>
      <point x="275" y="180" type="curve" smooth="yes"/>
      <point x="392" y="180"/>
      <point x="443" y="255"/>
      <point x="443" y="392" type="curve" smooth="yes"/>
      <point x="443" y="677" type="line" smooth="yes"/>
      <point x="443" y="803"/>
      <point x="390" y="872"/>
      <point x="286" y="872" type="curve" smooth="yes"/>
      <point x="197" y="872"/>
      <point x="146" y="817"/>
      <point x="127" y="742" type="curve"/>
      <point x="142" y="730" type="line"/>
      <point x="167" y="803"/>
      <point x="218" y="839"/>
      <point x="282" y="839" type="curve" smooth="yes"/>
      <point x="366" y="839"/>
      <point x="408" y="783"/>
      <point x="408" y="673" type="curve" smooth="yes"/>
      <point x="408" y="392" type="line" smooth="yes"/>
      <point x="408" y="275"/>
      <point x="366" y="213"/>
      <point x="275" y="213" type="curve" smooth="yes"/>
      <point x="184" y="213"/>
      <point x="143" y="275"/>
      <point x="143" y="392" type="curve" smooth="yes"/>
      <point x="143" y="752" type="line"/>
      <point x="159" y="786" type="line"/>
      <point x="143" y="786" type="line"/>
      <point x="143" y="824" type="line" smooth="yes"/>
      <point x="143" y="1045"/>
      <point x="229" y="1159"/>
      <point x="420" y="1159" type="curve" smooth="yes"/>
      <point x="614" y="1159"/>
      <point x="700" y="1045"/>
      <point x="700" y="824" type="curve" smooth="yes"/>
      <point x="700" y="315" type="line" smooth="yes"/>
      <point x="700" y="127"/>
      <point x="632" y="31"/>
      <point x="477" y="31" type="curve" smooth="yes"/>
      <point x="266" y="31" type="line" smooth="yes"/>
      <point x="156" y="31"/>
      <point x="101" y="-26"/>
      <point x="101" y="-125" type="curve" smooth="yes"/>
      <point x="101" y="-226"/>
      <point x="156" y="-283"/>
      <point x="266" y="-283" type="curve" smooth="yes"/>
      <point x="726" y="-283" type="line"/>
      <point x="733" y="-252" type="line"/>
      <point x="266" y="-252" type="line" smooth="yes"/>
      <point x="179" y="-252"/>
      <point x="137" y="-206"/>
      <point x="137" y="-125" type="curve" smooth="yes"/>
      <point x="137" y="-46"/>
      <point x="179" y="0"/>
      <point x="266" y="0" type="curve" smooth="yes"/>
      <point x="477" y="0" type="line" smooth="yes"/>
      <point x="652" y="0"/>
      <point x="735" y="107"/>
      <point x="735" y="315" type="curve" smooth="yes"/>
      <point x="735" y="824" type="line" smooth="yes"/>
      <point x="735" y="1065"/>
      <point x="636" y="1192"/>
    </contour>
  </outline>
</glyph>
<glyph name="vowelRu.mlm" format="2">
  <advance width="1034"/>
  <unicode hex="0D0B"/>
  <outline>
    <contour>
      <point x="269" y="1192" type="curve" smooth="yes"/>
      <point x="154" y="1192"/>
      <point x="103" y="1122"/>
      <point x="103" y="979" type="curve" smooth="yes"/>
      <point x="103" y="629" type="line" smooth="yes"/>
      <point x="103" y="462.747"/>
      <point x="173" y="304.317"/>
      <point x="321" y="274" type="curve" smooth="yes"/>
      <point x="336.948" y="270.733"/>
      <point x="354" y="269"/>
      <point x="372" y="269" type="curve"/>
      <point x="423" y="286" type="line"/>
      <point x="232.708" y="286"/>
      <point x="137.931" y="437.655"/>
      <point x="138.198" y="626.674" type="curve" smooth="yes"/>
      <point x="138" y="643" type="line"/>
      <point x="143" y="643" type="line"/>
      <point x="138" y="660" type="line"/>
      <point x="138" y="979" type="line" smooth="yes"/>
      <point x="138" y="1100"/>
      <point x="180" y="1159"/>
      <point x="269" y="1159" type="curve" smooth="yes"/>
      <point x="357" y="1159"/>
      <point x="399" y="1100"/>
      <point x="399" y="979" type="curve" smooth="yes"/>
      <point x="399" y="728" type="line" smooth="yes"/>
      <point x="399" y="616"/>
      <point x="361" y="563"/>
      <point x="278" y="563" type="curve" smooth="yes"/>
      <point x="213" y="563"/>
      <point x="166" y="597"/>
      <point x="138" y="675" type="curve"/>
      <point x="125" y="664" type="line"/>
      <point x="145" y="586"/>
      <point x="195" y="529"/>
      <point x="281" y="529" type="curve" smooth="yes"/>
      <point x="379" y="529"/>
      <point x="434" y="596"/>
      <point x="434" y="724" type="curve" smooth="yes"/>
      <point x="434" y="979" type="line" smooth="yes"/>
      <point x="434" y="1122"/>
      <point x="383" y="1192"/>
    </contour>
    <contour>
      <point x="618" y="-109" type="line" smooth="yes"/>
      <point x="789" y="-109"/>
      <point x="878" y="-42"/>
      <point x="878" y="88" type="curve" smooth="yes"/>
      <point x="878" y="204"/>
      <point x="815" y="257"/>
      <point x="713" y="273" type="curve"/>
      <point x="713" y="277" type="line"/>
      <point x="618" y="286" type="line"/>
      <point x="416" y="286" type="line"/>
      <point x="322" y="275" type="line"/>
      <point x="322" y="273" type="line"/>
      <point x="219" y="256"/>
      <point x="156" y="204"/>
      <point x="156" y="88" type="curve" smooth="yes"/>
      <point x="156" y="-42"/>
      <point x="245" y="-109"/>
      <point x="416" y="-109" type="curve" smooth="yes"/>
    </contour>
    <contour>
      <point x="618" y="254" type="line" smooth="yes"/>
      <point x="772" y="254"/>
      <point x="842" y="204"/>
      <point x="842" y="88" type="curve" smooth="yes"/>
      <point x="842" y="-22"/>
      <point x="765" y="-77"/>
      <point x="618" y="-77" type="curve" smooth="yes"/>
      <point x="416" y="-77" type="line" smooth="yes"/>
      <point x="269" y="-77"/>
      <point x="192" y="-22"/>
      <point x="192" y="88" type="curve" smooth="yes"/>
      <point x="192" y="204"/>
      <point x="262" y="254"/>
      <point x="416" y="254" type="curve" smooth="yes"/>
    </contour>
    <contour>
      <point x="895.802" y="626.674" type="line" smooth="yes"/>
      <point x="896.069" y="437.655"/>
      <point x="801.292" y="286"/>
      <point x="611" y="286" type="curve"/>
      <point x="662" y="269" type="line"/>
      <point x="680" y="269"/>
      <point x="697.052" y="270.733"/>
      <point x="713" y="274" type="curve" smooth="yes"/>
      <point x="861" y="304.317"/>
      <point x="931" y="462.747"/>
      <point x="931" y="629" type="curve" smooth="yes"/>
      <point x="931" y="979" type="line" smooth="yes"/>
      <point x="931" y="1122"/>
      <point x="880" y="1192"/>
      <point x="765" y="1192" type="curve" smooth="yes"/>
      <point x="651" y="1192"/>
      <point x="600" y="1122"/>
      <point x="600" y="979" type="curve" smooth="yes"/>
      <point x="600" y="724" type="line" smooth="yes"/>
      <point x="600" y="596"/>
      <point x="655" y="529"/>
      <point x="753" y="529" type="curve" smooth="yes"/>
      <point x="839" y="529"/>
      <point x="889" y="586"/>
      <point x="909" y="664" type="curve"/>
      <point x="896" y="675" type="line"/>
      <point x="868" y="597"/>
      <point x="821" y="563"/>
      <point x="756" y="563" type="curve" smooth="yes"/>
      <point x="673" y="563"/>
      <point x="635" y="616"/>
      <point x="635" y="728" type="curve" smooth="yes"/>
      <point x="635" y="979" type="line" smooth="yes"/>
      <point x="635" y="1100"/>
      <point x="677" y="1159"/>
      <point x="765" y="1159" type="curve" smooth="yes"/>
      <point x="854" y="1159"/>
      <point x="896" y="1100"/>
      <point x="896" y="979" type="curve" smooth="yes"/>
      <point x="896" y="660" type="line"/>
      <point x="891" y="643" type="line"/>
      <point x="896" y="643" type="line"/>
    </contour>
  </outline>
</glyph>
<glyph name="vowelLru.mlm" format="2">
  <advance width="1424"/>
  <unicode hex="0D0C"/>
  <outline>
    <contour>
      <point x="432" y="1192" type="curve" smooth="yes"/>
      <point x="215" y="1192"/>
      <point x="112" y="1062"/>
      <point x="112" y="811" type="curve" smooth="yes"/>
      <point x="112" y="223" type="line" smooth="yes"/>
      <point x="112" y="68"/>
      <point x="169" y="-9"/>
      <point x="290" y="-9" type="curve" smooth="yes"/>
      <point x="410" y="-9"/>
      <point x="469" y="68"/>
      <point x="469" y="223" type="curve" smooth="yes"/>
      <point x="469" y="585" type="line" smooth="yes"/>
      <point x="469" y="725"/>
      <point x="410" y="799"/>
      <point x="303" y="799" type="curve" smooth="yes"/>
      <point x="211" y="799"/>
      <point x="152" y="736"/>
      <point x="134" y="650" type="curve"/>
      <point x="147" y="638" type="line"/>
      <point x="176" y="725"/>
      <point x="227" y="765"/>
      <point x="299" y="765" type="curve" smooth="yes"/>
      <point x="389" y="765"/>
      <point x="434" y="705"/>
      <point x="434" y="581" type="curve" smooth="yes"/>
      <point x="434" y="223" type="line" smooth="yes"/>
      <point x="434" y="90"/>
      <point x="388" y="24"/>
      <point x="290" y="24" type="curve" smooth="yes"/>
      <point x="193" y="24"/>
      <point x="147" y="90"/>
      <point x="147" y="223" type="curve" smooth="yes"/>
      <point x="147" y="663" type="line"/>
      <point x="157" y="692" type="line"/>
      <point x="147" y="692" type="line"/>
      <point x="147" y="811" type="line" smooth="yes"/>
      <point x="147" y="1041"/>
      <point x="239" y="1159"/>
      <point x="432" y="1159" type="curve" smooth="yes"/>
      <point x="605" y="1159"/>
      <point x="695" y="1065"/>
      <point x="695" y="881" type="curve" smooth="yes"/>
      <point x="695" y="672" type="line"/>
      <point x="711" y="672" type="line"/>
      <point x="711" y="972" type="line"/>
      <point x="689" y="1113"/>
      <point x="595" y="1192"/>
    </contour>
    <contour>
      <point x="695" y="2" type="line"/>
      <point x="730" y="2" type="line"/>
      <point x="730" y="788" type="line"/>
      <point x="695" y="788" type="line"/>
    </contour>
    <contour>
      <point x="995" y="1192" type="curve" smooth="yes"/>
      <point x="829" y="1192"/>
      <point x="735" y="1113"/>
      <point x="713" y="972" type="curve"/>
      <point x="702" y="972" type="line"/>
      <point x="702" y="672" type="line"/>
      <point x="730" y="672" type="line"/>
      <point x="730" y="881" type="line" smooth="yes"/>
      <point x="730" y="1065"/>
      <point x="820" y="1159"/>
      <point x="995" y="1159" type="curve" smooth="yes"/>
      <point x="1184" y="1159"/>
      <point x="1278" y="1045"/>
      <point x="1278" y="813" type="curve" smooth="yes"/>
      <point x="1278" y="728" type="line"/>
      <point x="1271" y="728" type="line"/>
      <point x="1278" y="708" type="line"/>
      <point x="1278" y="223" type="line" smooth="yes"/>
      <point x="1278" y="90"/>
      <point x="1232" y="24"/>
      <point x="1135" y="24" type="curve" smooth="yes"/>
      <point x="1039" y="24"/>
      <point x="993" y="90"/>
      <point x="993" y="223" type="curve" smooth="yes"/>
      <point x="993" y="589" type="line" smooth="yes"/>
      <point x="993" y="712"/>
      <point x="1037" y="773"/>
      <point x="1136" y="773" type="curve" smooth="yes"/>
      <point x="1199" y="773"/>
      <point x="1251" y="745"/>
      <point x="1278" y="684" type="curve"/>
      <point x="1291" y="696" type="line"/>
      <point x="1274" y="760"/>
      <point x="1214" y="806"/>
      <point x="1133" y="806" type="curve" smooth="yes"/>
      <point x="1017" y="806"/>
      <point x="958" y="732"/>
      <point x="958" y="592" type="curve" smooth="yes"/>
      <point x="958" y="223" type="line" smooth="yes"/>
      <point x="958" y="68"/>
      <point x="1015" y="-9"/>
      <point x="1135" y="-9" type="curve" smooth="yes"/>
      <point x="1256" y="-9"/>
      <point x="1313" y="68"/>
      <point x="1313" y="223" type="curve" smooth="yes"/>
      <point x="1313" y="813" type="line" smooth="yes"/>
      <point x="1313" y="1067"/>
      <point x="1206" y="1192"/>
    </contour>
  </outline>
</glyph>
<glyph name="Ga.mlm" format="2">
  <advance width="966"/>
  <unicode hex="0D17"/>
  <outline>
    <contour>
      <point x="651" y="1192" type="curve" smooth="yes"/>
      <point x="516" y="1192"/>
      <point x="452" y="1104"/>
      <point x="452" y="929" type="curve" smooth="yes"/>
      <point x="452" y="736"/>
      <point x="481" y="443"/>
      <point x="481" y="250" type="curve" smooth="yes"/>
      <point x="481" y="96"/>
      <point x="430" y="20"/>
      <point x="316" y="20" type="curve" smooth="yes"/>
      <point x="202" y="20"/>
      <point x="148" y="96"/>
      <point x="148" y="250" type="curve" smooth="yes"/>
      <point x="148" y="806" type="line" smooth="yes"/>
      <point x="148" y="981"/>
      <point x="185" y="1104"/>
      <point x="248" y="1174" type="curve"/>
      <point x="207" y="1174" type="line"/>
      <point x="146" y="1104"/>
      <point x="113" y="983"/>
      <point x="113" y="808" type="curve" smooth="yes"/>
      <point x="113" y="250" type="line" smooth="yes"/>
      <point x="113" y="75"/>
      <point x="179" y="-13"/>
      <point x="316" y="-13" type="curve" smooth="yes"/>
      <point x="452" y="-13"/>
      <point x="516" y="75"/>
      <point x="516" y="250" type="curve" smooth="yes"/>
      <point x="516" y="443"/>
      <point x="487" y="736"/>
      <point x="487" y="929" type="curve" smooth="yes"/>
      <point x="487" y="1084"/>
      <point x="538" y="1159"/>
      <point x="651" y="1159" type="curve" smooth="yes"/>
      <point x="765" y="1159"/>
      <point x="818" y="1084"/>
      <point x="818" y="929" type="curve" smooth="yes"/>
      <point x="818" y="364" type="line" smooth="yes"/>
      <point x="818" y="191"/>
      <point x="787" y="70"/>
      <point x="724" y="0" type="curve"/>
      <point x="768" y="0" type="line"/>
      <point x="825" y="70"/>
      <point x="853" y="190"/>
      <point x="853" y="362" type="curve" smooth="yes"/>
      <point x="853" y="929" type="line" smooth="yes"/>
      <point x="853" y="1104"/>
      <point x="787" y="1192"/>
    </contour>
  </outline>
</glyph>
<glyph name="Nga.mlm" format="2">
  <advance width="1263"/>
  <unicode hex="0D19"/>
  <outline>
    <contour>
      <point x="695" y="2" type="line"/>
      <point x="730" y="2" type="line"/>
      <point x="730" y="788" type="line"/>
      <point x="695" y="788" type="line"/>
    </contour>
    <contour>
      <point x="432" y="1192" type="curve" smooth="yes"/>
      <point x="215" y="1192"/>
      <point x="112" y="1062"/>
      <point x="112" y="811" type="curve" smooth="yes"/>
      <point x="112" y="223" type="line" smooth="yes"/>
      <point x="112" y="68"/>
      <point x="169" y="-9"/>
      <point x="290" y="-9" type="curve" smooth="yes"/>
      <point x="410" y="-9"/>
      <point x="469" y="68"/>
      <point x="469" y="223" type="curve" smooth="yes"/>
      <point x="469" y="585" type="line" smooth="yes"/>
      <point x="469" y="725"/>
      <point x="410" y="799"/>
      <point x="303" y="799" type="curve" smooth="yes"/>
      <point x="211" y="799"/>
      <point x="152" y="736"/>
      <point x="134" y="650" type="curve"/>
      <point x="147" y="638" type="line"/>
      <point x="176" y="725"/>
      <point x="228" y="765"/>
      <point x="299" y="765" type="curve" smooth="yes"/>
      <point x="390" y="765"/>
      <point x="434" y="705"/>
      <point x="434" y="581" type="curve" smooth="yes"/>
      <point x="434" y="223" type="line" smooth="yes"/>
      <point x="434" y="90"/>
      <point x="388" y="24"/>
      <point x="290" y="24" type="curve" smooth="yes"/>
      <point x="193" y="24"/>
      <point x="147" y="90"/>
      <point x="147" y="223" type="curve" smooth="yes"/>
      <point x="147" y="663" type="line"/>
      <point x="159" y="692" type="line"/>
      <point x="147" y="692" type="line"/>
      <point x="147" y="811" type="line" smooth="yes"/>
      <point x="147" y="1041"/>
      <point x="239" y="1159"/>
      <point x="432" y="1159" type="curve" smooth="yes"/>
      <point x="605" y="1159"/>
      <point x="695" y="1067"/>
      <point x="695" y="881" type="curve" smooth="yes"/>
      <point x="695" y="672" type="line"/>
      <point x="708" y="672" type="line"/>
      <point x="708" y="990" type="line"/>
      <point x="684" y="1115"/>
      <point x="596" y="1192"/>
    </contour>
    <contour>
      <point x="923" y="1192" type="curve" smooth="yes"/>
      <point x="800" y="1192"/>
      <point x="727" y="1130"/>
      <point x="710" y="990" type="curve"/>
      <point x="702" y="990" type="line"/>
      <point x="702" y="696" type="line"/>
      <point x="730" y="694" type="line"/>
      <point x="730" y="907" type="line" smooth="yes"/>
      <point x="730" y="1073"/>
      <point x="789" y="1159"/>
      <point x="921" y="1159" type="curve" smooth="yes"/>
      <point x="1055" y="1159"/>
      <point x="1118" y="1069"/>
      <point x="1118" y="900" type="curve" smooth="yes"/>
      <point x="1118" y="835" type="line" smooth="yes"/>
      <point x="1118" y="684"/>
      <point x="1065" y="619"/>
      <point x="949" y="616" type="curve" smooth="yes"/>
      <point x="910" y="615" type="line"/>
      <point x="910" y="586" type="line"/>
      <point x="956" y="585" type="line" smooth="yes"/>
      <point x="1079" y="582"/>
      <point x="1129" y="512"/>
      <point x="1129" y="368" type="curve" smooth="yes"/>
      <point x="1129" y="252" type="line" smooth="yes"/>
      <point x="1129" y="98"/>
      <point x="1077" y="26"/>
      <point x="961" y="26" type="curve" smooth="yes"/>
      <point x="938" y="26"/>
      <point x="913" y="28"/>
      <point x="884" y="33" type="curve"/>
      <point x="893" y="-2" type="line"/>
      <point x="922" y="-7"/>
      <point x="943" y="-7"/>
      <point x="965" y="-7" type="curve" smooth="yes"/>
      <point x="1101" y="-7"/>
      <point x="1164" y="75"/>
      <point x="1164" y="250" type="curve" smooth="yes"/>
      <point x="1164" y="366" type="line" smooth="yes"/>
      <point x="1164" y="512"/>
      <point x="1116" y="587"/>
      <point x="1011" y="602" type="curve"/>
      <point x="1011" y="604" type="line"/>
      <point x="1109" y="618"/>
      <point x="1153" y="694"/>
      <point x="1153" y="835" type="curve" smooth="yes"/>
      <point x="1153" y="900" type="line" smooth="yes"/>
      <point x="1153" y="1091"/>
      <point x="1080" y="1192"/>
    </contour>
  </outline>
</glyph>
<glyph name="Ca.mlm" format="2">
  <advance width="935"/>
  <unicode hex="0D1A"/>
  <outline>
    <contour>
      <point x="22" y="31" type="line"/>
      <point x="28" y="0" type="line"/>
      <point x="778" y="0" type="line"/>
      <point x="797" y="31" type="line"/>
    </contour>
    <contour>
      <point x="304" y="29" type="curve"/>
      <point x="335" y="17" type="line"/>
      <point x="462" y="84"/>
      <point x="519" y="243"/>
      <point x="519" y="471" type="curve" smooth="yes"/>
      <point x="519" y="576" type="line" smooth="yes"/>
      <point x="519" y="734"/>
      <point x="460" y="817"/>
      <point x="337" y="817" type="curve" smooth="yes"/>
      <point x="213" y="817"/>
      <point x="155" y="734"/>
      <point x="155" y="576" type="curve" smooth="yes"/>
      <point x="155" y="482" type="line" smooth="yes"/>
      <point x="155" y="370"/>
      <point x="173" y="294"/>
      <point x="202" y="247" type="curve"/>
      <point x="241" y="247" type="line"/>
      <point x="212" y="296"/>
      <point x="190" y="372"/>
      <point x="190" y="484" type="curve" smooth="yes"/>
      <point x="190" y="576" type="line" smooth="yes"/>
      <point x="190" y="714"/>
      <point x="237" y="784"/>
      <point x="337" y="784" type="curve" smooth="yes"/>
      <point x="436" y="784"/>
      <point x="484" y="714"/>
      <point x="484" y="576" type="curve" smooth="yes"/>
      <point x="484" y="467" type="line" smooth="yes"/>
      <point x="484" y="243"/>
      <point x="427" y="102"/>
    </contour>
    <contour>
      <point x="773" y="1174" type="line"/>
      <point x="773" y="0" type="line"/>
      <point x="808" y="0" type="line"/>
      <point x="808" y="1174" type="line"/>
    </contour>
  </outline>
</glyph>
<glyph name="Tta.mlm" format="2">
  <advance width="589"/>
  <unicode hex="0D1F"/>
  <outline>
    <contour>
      <point x="278" y="-17" type="curve" smooth="yes"/>
      <point x="420" y="-17"/>
      <point x="488" y="70"/>
      <point x="488" y="247" type="curve" smooth="yes"/>
      <point x="488" y="326" type="line" smooth="yes"/>
      <point x="488" y="467"/>
      <point x="456" y="559"/>
      <point x="294" y="627" type="curve" smooth="yes"/>
      <point x="147" y="692"/>
      <point x="125" y="771"/>
      <point x="125" y="898" type="curve" smooth="yes"/>
      <point x="125" y="935" type="line" smooth="yes"/>
      <point x="125" y="1084"/>
      <point x="178" y="1159"/>
      <point x="291" y="1159" type="curve" smooth="yes"/>
      <point x="377" y="1159"/>
      <point x="425" y="1124"/>
      <point x="484" y="1058" type="curve"/>
      <point x="480" y="1106" type="line"/>
      <point x="440" y="1154"/>
      <point x="379" y="1192"/>
      <point x="291" y="1192" type="curve" smooth="yes"/>
      <point x="156" y="1192"/>
      <point x="90" y="1106"/>
      <point x="90" y="935" type="curve" smooth="yes"/>
      <point x="90" y="898" type="line" smooth="yes"/>
      <point x="90" y="756"/>
      <point x="120" y="664"/>
      <point x="282" y="596" type="curve" smooth="yes"/>
      <point x="429" y="532"/>
      <point x="453" y="453"/>
      <point x="453" y="326" type="curve" smooth="yes"/>
      <point x="453" y="247" type="line" smooth="yes"/>
      <point x="453" y="92"/>
      <point x="396" y="17"/>
      <point x="278" y="17" type="curve" smooth="yes"/>
      <point x="190" y="17"/>
      <point x="132" y="55"/>
      <point x="74" y="127" type="curve"/>
      <point x="77" y="79" type="line"/>
      <point x="118" y="26"/>
      <point x="184" y="-17"/>
    </contour>
  </outline>
</glyph>
<glyph name="Ttha.mlm" format="2">
  <advance width="678"/>
  <unicode hex="0D20"/>
  <outline>
    <contour>
      <point x="339" y="16" type="curve" smooth="yes"/>
      <point x="204" y="16"/>
      <point x="144" y="102"/>
      <point x="144" y="280" type="curve" smooth="yes"/>
      <point x="144" y="896" type="line" smooth="yes"/>
      <point x="144" y="1073"/>
      <point x="204" y="1159"/>
      <point x="339" y="1159" type="curve" smooth="yes"/>
      <point x="473" y="1159"/>
      <point x="534" y="1073"/>
      <point x="534" y="896" type="curve" smooth="yes"/>
      <point x="534" y="280" type="line" smooth="yes"/>
      <point x="534" y="102"/>
      <point x="473" y="16"/>
    </contour>
    <contour>
      <point x="339" y="-17" type="curve" smooth="yes"/>
      <point x="497" y="-17"/>
      <point x="569" y="83"/>
      <point x="569" y="280" type="curve" smooth="yes"/>
      <point x="569" y="896" type="line" smooth="yes"/>
      <point x="569" y="1093"/>
      <point x="497" y="1192"/>
      <point x="339" y="1192" type="curve" smooth="yes"/>
      <point x="180" y="1192"/>
      <point x="109" y="1093"/>
      <point x="109" y="896" type="curve" smooth="yes"/>
      <point x="109" y="280" type="line" smooth="yes"/>
      <point x="109" y="83"/>
      <point x="180" y="-17"/>
    </contour>
  </outline>
</glyph>
<glyph name="Ddha.mlm" format="2">
  <advance width="1538"/>
  <unicode hex="0D22"/>
  <outline>
    <contour>
      <point x="847" y="385" type="line"/>
      <point x="847" y="1168" type="line"/>
      <point x="812" y="1168" type="line"/>
      <point x="812" y="385" type="line"/>
    </contour>
    <contour>
      <point x="647" y="-13" type="curve" smooth="yes"/>
      <point x="761" y="-13"/>
      <point x="822" y="57"/>
      <point x="833" y="190" type="curve"/>
      <point x="844" y="190" type="line"/>
      <point x="840" y="477" type="line"/>
      <point x="812" y="523" type="line"/>
      <point x="812" y="263" type="line" smooth="yes"/>
      <point x="812" y="99"/>
      <point x="759" y="20"/>
      <point x="647" y="20" type="curve" smooth="yes"/>
      <point x="535" y="20"/>
      <point x="485" y="92"/>
      <point x="485" y="241" type="curve" smooth="yes"/>
      <point x="485" y="438"/>
      <point x="514" y="732"/>
      <point x="514" y="929" type="curve" smooth="yes"/>
      <point x="514" y="1104"/>
      <point x="450" y="1192"/>
      <point x="316" y="1192" type="curve" smooth="yes"/>
      <point x="179" y="1192"/>
      <point x="113" y="1104"/>
      <point x="113" y="929" type="curve" smooth="yes"/>
      <point x="113" y="362" type="line" smooth="yes"/>
      <point x="113" y="190"/>
      <point x="141" y="70"/>
      <point x="198" y="0" type="curve"/>
      <point x="242" y="0" type="line"/>
      <point x="179" y="70"/>
      <point x="148" y="191"/>
      <point x="148" y="364" type="curve" smooth="yes"/>
      <point x="148" y="929" type="line" smooth="yes"/>
      <point x="148" y="1084"/>
      <point x="202" y="1159"/>
      <point x="316" y="1159" type="curve" smooth="yes"/>
      <point x="428" y="1159"/>
      <point x="479" y="1084"/>
      <point x="479" y="929" type="curve" smooth="yes"/>
      <point x="479" y="732"/>
      <point x="450" y="438"/>
      <point x="450" y="241" type="curve" smooth="yes"/>
      <point x="450" y="72"/>
      <point x="513" y="-13"/>
    </contour>
    <contour>
      <point x="1117" y="-13" type="curve" smooth="yes"/>
      <point x="1323" y="-13"/>
      <point x="1426" y="112"/>
      <point x="1426" y="350" type="curve" smooth="yes"/>
      <point x="1426" y="960" type="line" smooth="yes"/>
      <point x="1426" y="1115"/>
      <point x="1369" y="1192"/>
      <point x="1248" y="1192" type="curve" smooth="yes"/>
      <point x="1130" y="1192"/>
      <point x="1071" y="1115"/>
      <point x="1071" y="960" type="curve" smooth="yes"/>
      <point x="1071" y="574" type="line" smooth="yes"/>
      <point x="1071" y="436"/>
      <point x="1130" y="362"/>
      <point x="1235" y="362" type="curve" smooth="yes"/>
      <point x="1327" y="362"/>
      <point x="1386" y="425"/>
      <point x="1404" y="512" type="curve"/>
      <point x="1391" y="523" type="line"/>
      <point x="1362" y="436"/>
      <point x="1310" y="396"/>
      <point x="1238" y="396" type="curve" smooth="yes"/>
      <point x="1150" y="396"/>
      <point x="1106" y="456"/>
      <point x="1106" y="578" type="curve" smooth="yes"/>
      <point x="1106" y="960" type="line" smooth="yes"/>
      <point x="1106" y="1093"/>
      <point x="1152" y="1159"/>
      <point x="1248" y="1159" type="curve" smooth="yes"/>
      <point x="1345" y="1159"/>
      <point x="1391" y="1093"/>
      <point x="1391" y="960" type="curve" smooth="yes"/>
      <point x="1391" y="502" type="line"/>
      <point x="1381" y="469" type="line"/>
      <point x="1391" y="469" type="line"/>
      <point x="1391" y="350" type="line" smooth="yes"/>
      <point x="1391" y="132"/>
      <point x="1299" y="20"/>
      <point x="1117" y="20" type="curve" smooth="yes"/>
      <point x="939" y="20"/>
      <point x="847" y="112"/>
      <point x="847" y="298" type="curve" smooth="yes"/>
      <point x="847" y="508" type="line"/>
      <point x="834" y="508" type="line"/>
      <point x="834" y="190" type="line"/>
      <point x="858" y="64"/>
      <point x="950" y="-13"/>
    </contour>
  </outline>
</glyph>
<glyph name="Ta.mlm" format="2">
  <advance width="1207"/>
  <unicode hex="0D24"/>
  <outline>
    <contour>
      <point x="604" y="-9" type="curve" smooth="yes"/>
      <point x="725" y="-9"/>
      <point x="784" y="68"/>
      <point x="784" y="223" type="curve" smooth="yes"/>
      <point x="784" y="760" type="line" smooth="yes"/>
      <point x="784" y="951"/>
      <point x="734" y="1076"/>
      <point x="629" y="1141" type="curve"/>
      <point x="620" y="1148" type="line"/>
      <point x="570" y="1178"/>
      <point x="508" y="1192"/>
      <point x="434" y="1192" type="curve" smooth="yes"/>
      <point x="219" y="1192"/>
      <point x="112" y="1058"/>
      <point x="112" y="797" type="curve" smooth="yes"/>
      <point x="112" y="362" type="line" smooth="yes"/>
      <point x="112" y="190"/>
      <point x="140" y="70"/>
      <point x="199" y="0" type="curve"/>
      <point x="241" y="0" type="line"/>
      <point x="180" y="70"/>
      <point x="147" y="191"/>
      <point x="147" y="364" type="curve" smooth="yes"/>
      <point x="147" y="797" type="line" smooth="yes"/>
      <point x="147" y="1038"/>
      <point x="239" y="1159"/>
      <point x="434" y="1159" type="curve" smooth="yes"/>
      <point x="491" y="1159"/>
      <point x="543" y="1150"/>
      <point x="583" y="1132" type="curve"/>
      <point x="598" y="1124" type="line"/>
      <point x="701" y="1065"/>
      <point x="749" y="946"/>
      <point x="749" y="760" type="curve" smooth="yes"/>
      <point x="749" y="223" type="line" smooth="yes"/>
      <point x="749" y="90"/>
      <point x="703" y="24"/>
      <point x="604" y="24" type="curve" smooth="yes"/>
      <point x="504" y="24"/>
      <point x="458" y="90"/>
      <point x="458" y="223" type="curve" smooth="yes"/>
      <point x="458" y="760" type="line" smooth="yes"/>
      <point x="458" y="946"/>
      <point x="506" y="1065"/>
      <point x="609" y="1124" type="curve"/>
      <point x="624" y="1132" type="line"/>
      <point x="664" y="1150"/>
      <point x="716" y="1159"/>
      <point x="773" y="1159" type="curve" smooth="yes"/>
      <point x="968" y="1159"/>
      <point x="1060" y="1038"/>
      <point x="1060" y="797" type="curve" smooth="yes"/>
      <point x="1060" y="364" type="line" smooth="yes"/>
      <point x="1060" y="191"/>
      <point x="1027" y="70"/>
      <point x="966" y="0" type="curve"/>
      <point x="1008" y="0" type="line"/>
      <point x="1067" y="70"/>
      <point x="1095" y="190"/>
      <point x="1095" y="362" type="curve" smooth="yes"/>
      <point x="1095" y="797" type="line" smooth="yes"/>
      <point x="1095" y="1058"/>
      <point x="988" y="1192"/>
      <point x="773" y="1192" type="curve" smooth="yes"/>
      <point x="699" y="1192"/>
      <point x="637" y="1178"/>
      <point x="587" y="1148" type="curve"/>
      <point x="578" y="1141" type="line"/>
      <point x="473" y="1076"/>
      <point x="423" y="951"/>
      <point x="423" y="760" type="curve" smooth="yes"/>
      <point x="423" y="223" type="line" smooth="yes"/>
      <point x="423" y="68"/>
      <point x="480" y="-9"/>
    </contour>
  </outline>
</glyph>
<glyph name="Tha.mlm" format="2">
  <advance width="1005"/>
  <unicode hex="0D25"/>
  <outline>
    <contour>
      <point x="162" y="0" type="line"/>
      <point x="162" y="1174" type="line"/>
      <point x="127" y="1174" type="line"/>
      <point x="127" y="0" type="line"/>
    </contour>
    <contour>
      <point x="145" y="31" type="line"/>
      <point x="145" y="0" type="line"/>
      <point x="484" y="0" type="line"/>
      <point x="484" y="31" type="line"/>
    </contour>
    <contour>
      <point x="493" y="31" type="line"/>
      <point x="482" y="0" type="line"/>
      <point x="881" y="0" type="line"/>
      <point x="881" y="924" type="line" smooth="yes"/>
      <point x="881" y="1102"/>
      <point x="817" y="1192"/>
      <point x="675" y="1192" type="curve" smooth="yes"/>
      <point x="534" y="1192"/>
      <point x="469" y="1102"/>
      <point x="469" y="924" type="curve" smooth="yes"/>
      <point x="469" y="0" type="line"/>
      <point x="504" y="0" type="line"/>
      <point x="504" y="924" type="line" smooth="yes"/>
      <point x="504" y="1080"/>
      <point x="558" y="1159"/>
      <point x="675" y="1159" type="curve" smooth="yes"/>
      <point x="793" y="1159"/>
      <point x="846" y="1080"/>
      <point x="846" y="924" type="curve" smooth="yes"/>
      <point x="846" y="31" type="line"/>
    </contour>
  </outline>
</glyph>
<glyph name="Nnna.mlm" format="2">
  <advance width="1222"/>
  <unicode hex="0D29"/>
  <outline>
    <contour>
      <point x="695" y="2" type="line"/>
      <point x="730" y="2" type="line"/>
      <point x="730" y="788" type="line"/>
      <point x="695" y="788" type="line"/>
    </contour>
    <contour>
      <point x="432" y="1192" type="curve" smooth="yes"/>
      <point x="215" y="1192"/>
      <point x="112" y="1062"/>
      <point x="112" y="811" type="curve" smooth="yes"/>
      <point x="112" y="223" type="line" smooth="yes"/>
      <point x="112" y="68"/>
      <point x="169" y="-9"/>
      <point x="290" y="-9" type="curve" smooth="yes"/>
      <point x="410" y="-9"/>
      <point x="469" y="68"/>
      <point x="469" y="223" type="curve" smooth="yes"/>
      <point x="469" y="585" type="line" smooth="yes"/>
      <point x="469" y="725"/>
      <point x="410" y="799"/>
      <point x="303" y="799" type="curve" smooth="yes"/>
      <point x="211" y="799"/>
      <point x="152" y="736"/>
      <point x="134" y="650" type="curve"/>
      <point x="147" y="638" type="line"/>
      <point x="176" y="725"/>
      <point x="228" y="765"/>
      <point x="299" y="765" type="curve" smooth="yes"/>
      <point x="390" y="765"/>
      <point x="434" y="705"/>
      <point x="434" y="581" type="curve" smooth="yes"/>
      <point x="434" y="223" type="line" smooth="yes"/>
      <point x="434" y="90"/>
      <point x="388" y="24"/>
      <point x="290" y="24" type="curve" smooth="yes"/>
      <point x="193" y="24"/>
      <point x="147" y="90"/>
      <point x="147" y="223" type="curve" smooth="yes"/>
      <point x="147" y="663" type="line"/>
      <point x="159" y="692" type="line"/>
      <point x="147" y="692" type="line"/>
      <point x="147" y="811" type="line" smooth="yes"/>
      <point x="147" y="1041"/>
      <point x="239" y="1159"/>
      <point x="432" y="1159" type="curve" smooth="yes"/>
      <point x="605" y="1159"/>
      <point x="695" y="1067"/>
      <point x="695" y="881" type="curve" smooth="yes"/>
      <point x="695" y="672" type="line"/>
      <point x="708" y="672" type="line"/>
      <point x="708" y="990" type="line"/>
      <point x="684" y="1115"/>
      <point x="596" y="1192"/>
    </contour>
    <contour>
      <point x="903" y="1159" type="curve" smooth="yes"/>
      <point x="1020" y="1159"/>
      <point x="1074" y="1080"/>
      <point x="1074" y="920" type="curve" smooth="yes"/>
      <point x="1074" y="364" type="line" smooth="yes"/>
      <point x="1074" y="191"/>
      <point x="1041" y="70"/>
      <point x="980" y="0" type="curve"/>
      <point x="1022" y="0" type="line"/>
      <point x="1081" y="70"/>
      <point x="1109" y="190"/>
      <point x="1109" y="362" type="curve" smooth="yes"/>
      <point x="1109" y="920" type="line" smooth="yes"/>
      <point x="1109" y="1102"/>
      <point x="1046" y="1192"/>
      <point x="903" y="1192" type="curve" smooth="yes"/>
      <point x="792" y="1192"/>
      <point x="720" y="1130"/>
      <point x="709" y="990" type="curve"/>
      <point x="702" y="990" type="line"/>
      <point x="702" y="696" type="line"/>
      <point x="730" y="694" type="line"/>
      <point x="730" y="920" type="line" smooth="yes"/>
      <point x="730" y="1080"/>
      <point x="785" y="1159"/>
    </contour>
  </outline>
</glyph>
<glyph name="Pha.mlm" format="2">
  <advance width="1278"/>
  <unicode hex="0D2B"/>
  <outline>
    <contour>
      <point x="428" y="31" type="line"/>
      <point x="409" y="0" type="line"/>
      <point x="748" y="0" type="line"/>
      <point x="748" y="31" type="line"/>
    </contour>
    <contour>
      <point x="293" y="771" type="curve" smooth="yes"/>
      <point x="165" y="771"/>
      <point x="102" y="684"/>
      <point x="102" y="521" type="curve" smooth="yes"/>
      <point x="102" y="258" type="line" smooth="yes"/>
      <point x="102" y="132"/>
      <point x="119" y="50"/>
      <point x="154" y="0" type="curve"/>
      <point x="194" y="0" type="line"/>
      <point x="157" y="52"/>
      <point x="137" y="134"/>
      <point x="137" y="259" type="curve" smooth="yes"/>
      <point x="137" y="521" type="line" smooth="yes"/>
      <point x="137" y="664"/>
      <point x="189" y="738"/>
      <point x="293" y="738" type="curve" smooth="yes"/>
      <point x="398" y="738"/>
      <point x="450" y="664"/>
      <point x="450" y="521" type="curve" smooth="yes"/>
      <point x="450" y="259" type="line" smooth="yes"/>
      <point x="450" y="138"/>
      <point x="430" y="57"/>
      <point x="391" y="6" type="curve"/>
      <point x="391" y="0" type="line"/>
      <point x="420" y="0" type="line"/>
      <point x="465" y="50"/>
      <point x="485" y="132"/>
      <point x="485" y="258" type="curve" smooth="yes"/>
      <point x="485" y="521" type="line" smooth="yes"/>
      <point x="485" y="684"/>
      <point x="422" y="771"/>
    </contour>
    <contour>
      <point x="766" y="31" type="line"/>
      <point x="755" y="0" type="line"/>
      <point x="1154" y="0" type="line"/>
      <point x="1154" y="924" type="line" smooth="yes"/>
      <point x="1154" y="1102"/>
      <point x="1090" y="1192"/>
      <point x="948" y="1192" type="curve" smooth="yes"/>
      <point x="807" y="1192"/>
      <point x="742" y="1102"/>
      <point x="742" y="924" type="curve" smooth="yes"/>
      <point x="742" y="0" type="line"/>
      <point x="777" y="0" type="line"/>
      <point x="777" y="924" type="line" smooth="yes"/>
      <point x="777" y="1080"/>
      <point x="831" y="1159"/>
      <point x="948" y="1159" type="curve" smooth="yes"/>
      <point x="1066" y="1159"/>
      <point x="1119" y="1080"/>
      <point x="1119" y="924" type="curve" smooth="yes"/>
      <point x="1119" y="31" type="line"/>
    </contour>
  </outline>
</glyph>
<glyph name="Bha.mlm" format="2">
  <advance width="726"/>
  <unicode hex="0D2D"/>
  <outline>
    <contour>
      <point x="632" y="940" type="curve" smooth="yes"/>
      <point x="632" y="1098"/>
      <point x="554.936" y="1192"/>
      <point x="385" y="1192" type="curve" smooth="yes"/>
      <point x="199.959" y="1192"/>
      <point x="113" y="1084.52"/>
      <point x="113" y="877" type="curve" smooth="yes"/>
      <point x="113" y="294" type="line" smooth="yes"/>
      <point x="113" y="151"/>
      <point x="130" y="57"/>
      <point x="157" y="0" type="curve"/>
      <point x="196" y="0" type="line"/>
      <point x="167" y="59"/>
      <point x="148" y="153"/>
      <point x="148" y="296" type="curve" smooth="yes"/>
      <point x="148" y="877" type="line" smooth="yes"/>
      <point x="148" y="1062.51"/>
      <point x="223.962" y="1159"/>
      <point x="385" y="1159" type="curve" smooth="yes"/>
      <point x="530.935" y="1159"/>
      <point x="597" y="1078"/>
      <point x="597" y="940" type="curve" smooth="yes"/>
      <point x="597" y="867"/>
      <point x="581" y="818"/>
      <point x="505" y="810" type="curve" smooth="yes"/>
      <point x="489" y="808" type="line" smooth="yes"/>
      <point x="376" y="795"/>
      <point x="325" y="728"/>
      <point x="325" y="598" type="curve" smooth="yes"/>
      <point x="325" y="591" type="line" smooth="yes"/>
      <point x="325" y="461"/>
      <point x="376" y="393"/>
      <point x="489" y="381" type="curve" smooth="yes"/>
      <point x="505" y="379" type="line" smooth="yes"/>
      <point x="594" y="369"/>
      <point x="612" y="307"/>
      <point x="612" y="213" type="curve" smooth="yes"/>
      <point x="612" y="204" type="line" smooth="yes"/>
      <point x="612" y="82"/>
      <point x="557" y="26"/>
      <point x="439" y="26" type="curve" smooth="yes"/>
      <point x="415" y="26"/>
      <point x="384" y="29"/>
      <point x="362" y="33" type="curve"/>
      <point x="371" y="-2" type="line"/>
      <point x="393" y="-6"/>
      <point x="421" y="-7"/>
      <point x="443" y="-7" type="curve" smooth="yes"/>
      <point x="584" y="-7"/>
      <point x="647" y="60"/>
      <point x="647" y="202" type="curve" smooth="yes"/>
      <point x="647" y="212" type="line" smooth="yes"/>
      <point x="647" y="330"/>
      <point x="614" y="399"/>
      <point x="509" y="410" type="curve" smooth="yes"/>
      <point x="492" y="412" type="line" smooth="yes"/>
      <point x="405" y="422"/>
      <point x="360" y="476"/>
      <point x="360" y="591" type="curve" smooth="yes"/>
      <point x="360" y="598" type="line" smooth="yes"/>
      <point x="360" y="713"/>
      <point x="405" y="767"/>
      <point x="492" y="776" type="curve" smooth="yes"/>
      <point x="509" y="778" type="line" smooth="yes"/>
      <point x="604" y="789"/>
      <point x="632" y="844"/>
    </contour>
  </outline>
</glyph>
<glyph name="Ma.mlm" format="2">
  <advance width="836"/>
  <unicode hex="0D2E"/>
  <outline>
    <contour>
      <point x="140" y="31" type="line"/>
      <point x="138" y="0" type="line"/>
      <point x="703" y="0" type="line"/>
      <point x="703" y="31" type="line"/>
    </contour>
    <contour>
      <point x="418" y="1159" type="curve" smooth="yes"/>
      <point x="595" y="1159"/>
      <point x="677" y="1043"/>
      <point x="677" y="813" type="curve" smooth="yes"/>
      <point x="677" y="0" type="line"/>
      <point x="712" y="0" type="line"/>
      <point x="712" y="813" type="line" smooth="yes"/>
      <point x="712" y="1063"/>
      <point x="619" y="1192"/>
      <point x="418" y="1192" type="curve" smooth="yes"/>
      <point x="216" y="1192"/>
      <point x="123" y="1063"/>
      <point x="123" y="813" type="curve" smooth="yes"/>
      <point x="123" y="0" type="line"/>
      <point x="158" y="0" type="line"/>
      <point x="158" y="813" type="line" smooth="yes"/>
      <point x="158" y="1043"/>
      <point x="240" y="1159"/>
    </contour>
    <contour>
      <point x="466" y="769" type="line" smooth="yes"/>
      <point x="466" y="974.732"/>
      <point x="401.996" y="1073"/>
      <point x="268" y="1073" type="curve" smooth="yes"/>
      <point x="242" y="1073"/>
      <point x="214" y="1067"/>
      <point x="186" y="1055" type="curve"/>
      <point x="182" y="1024" type="line"/>
      <point x="211.077" y="1037.6"/>
      <point x="238.077" y="1041"/>
      <point x="263" y="1041" type="curve" smooth="yes"/>
      <point x="378.528" y="1041"/>
      <point x="431" y="955.421"/>
      <point x="431" y="767" type="curve" smooth="yes"/>
      <point x="431" y="714" type="line" smooth="yes"/>
      <point x="431" y="425.579"/>
      <point x="361" y="218.534"/>
      <point x="218" y="29" type="curve"/>
      <point x="249" y="17" type="line"/>
      <point x="390" y="196.156"/>
      <point x="466" y="421.644"/>
      <point x="466" y="712" type="curve" smooth="yes"/>
    </contour>
  </outline>
</glyph>
<glyph name="Rra.mlm" format="2">
  <advance width="686"/>
  <unicode hex="0D31"/>
  <outline>
    <contour>
      <point x="343" y="1159" type="curve" smooth="yes"/>
      <point x="478" y="1159"/>
      <point x="538" y="1073"/>
      <point x="538" y="896" type="curve" smooth="yes"/>
      <point x="538" y="361" type="line" smooth="yes"/>
      <point x="538" y="190"/>
      <point x="511" y="68"/>
      <point x="455" y="0" type="curve"/>
      <point x="500" y="0" type="line"/>
      <point x="549" y="68"/>
      <point x="573" y="188"/>
      <point x="573" y="359" type="curve" smooth="yes"/>
      <point x="573" y="896" type="line" smooth="yes"/>
      <point x="573" y="1093"/>
      <point x="501" y="1192"/>
      <point x="343" y="1192" type="curve" smooth="yes"/>
      <point x="185" y="1192"/>
      <point x="113" y="1093"/>
      <point x="113" y="896" type="curve" smooth="yes"/>
      <point x="113" y="359" type="line" smooth="yes"/>
      <point x="113" y="188"/>
      <point x="137" y="68"/>
      <point x="189" y="0" type="curve"/>
      <point x="231" y="0" type="line"/>
      <point x="178" y="68"/>
      <point x="148" y="190"/>
      <point x="148" y="361" type="curve" smooth="yes"/>
      <point x="148" y="896" type="line" smooth="yes"/>
      <point x="148" y="1073"/>
      <point x="209" y="1159"/>
    </contour>
  </outline>
</glyph>
<glyph name="Va.mlm" format="2">
  <advance width="985"/>
  <unicode hex="0D35"/>
  <outline>
    <contour>
      <point x="336" y="1159" type="curve" smooth="yes"/>
      <point x="465" y="1159"/>
      <point x="524" y="1075"/>
      <point x="524" y="903" type="curve" smooth="yes"/>
      <point x="524" y="361" type="line" smooth="yes"/>
      <point x="524" y="193"/>
      <point x="498" y="75"/>
      <point x="444" y="6" type="curve"/>
      <point x="444" y="0" type="line"/>
      <point x="479" y="0" type="line"/>
      <point x="533" y="68"/>
      <point x="559" y="188"/>
      <point x="559" y="359" type="curve" smooth="yes"/>
      <point x="559" y="903" type="line" smooth="yes"/>
      <point x="559" y="1095"/>
      <point x="489" y="1192"/>
      <point x="336" y="1192" type="curve" smooth="yes"/>
      <point x="183" y="1192"/>
      <point x="113" y="1095"/>
      <point x="113" y="903" type="curve" smooth="yes"/>
      <point x="113" y="359" type="line" smooth="yes"/>
      <point x="113" y="188"/>
      <point x="137" y="68"/>
      <point x="189" y="0" type="curve"/>
      <point x="231" y="0" type="line"/>
      <point x="178" y="68"/>
      <point x="148" y="190"/>
      <point x="148" y="361" type="curve" smooth="yes"/>
      <point x="148" y="903" type="line" smooth="yes"/>
      <point x="148" y="1075"/>
      <point x="207" y="1159"/>
    </contour>
    <contour>
      <point x="823" y="1174" type="line"/>
      <point x="823" y="0" type="line"/>
      <point x="858" y="0" type="line"/>
      <point x="858" y="1174" type="line"/>
    </contour>
    <contour>
      <point x="485" y="31" type="line"/>
      <point x="444" y="0" type="line"/>
      <point x="853" y="0" type="line"/>
      <point x="853" y="31" type="line"/>
    </contour>
  </outline>
</glyph>
<glyph name="Sha.mlm" format="2">
  <advance width="1176"/>
  <unicode hex="0D36"/>
  <outline>
    <contour>
      <point x="754" y="1159" type="curve" smooth="yes"/>
      <point x="939" y="1159"/>
      <point x="1030" y="1043"/>
      <point x="1030" y="808" type="curve" smooth="yes"/>
      <point x="1030" y="727" type="line"/>
      <point x="1019" y="727" type="line"/>
      <point x="1030" y="708" type="line"/>
      <point x="1030" y="223" type="line" smooth="yes"/>
      <point x="1030" y="90"/>
      <point x="984" y="24"/>
      <point x="886" y="24" type="curve" smooth="yes"/>
      <point x="790" y="24"/>
      <point x="744" y="90"/>
      <point x="744" y="223" type="curve" smooth="yes"/>
      <point x="744" y="589" type="line" smooth="yes"/>
      <point x="744" y="712"/>
      <point x="789" y="773"/>
      <point x="888" y="773" type="curve" smooth="yes"/>
      <point x="950" y="773"/>
      <point x="1002" y="745"/>
      <point x="1030" y="684" type="curve"/>
      <point x="1042" y="696" type="line"/>
      <point x="1026" y="760"/>
      <point x="965" y="806"/>
      <point x="884" y="806" type="curve" smooth="yes"/>
      <point x="768" y="806"/>
      <point x="709" y="732"/>
      <point x="709" y="592" type="curve" smooth="yes"/>
      <point x="709" y="223" type="line" smooth="yes"/>
      <point x="709" y="68"/>
      <point x="766" y="-9"/>
      <point x="886" y="-9" type="curve" smooth="yes"/>
      <point x="1007" y="-9"/>
      <point x="1065" y="68"/>
      <point x="1065" y="223" type="curve" smooth="yes"/>
      <point x="1065" y="808" type="line" smooth="yes"/>
      <point x="1065" y="1065"/>
      <point x="961" y="1192"/>
      <point x="754" y="1192" type="curve" smooth="yes"/>
      <point x="544" y="1192"/>
      <point x="444" y="1067"/>
      <point x="444" y="819" type="curve" smooth="yes"/>
      <point x="444" y="668"/>
      <point x="474" y="397"/>
      <point x="474" y="247" type="curve" smooth="yes"/>
      <point x="474" y="94"/>
      <point x="424" y="20"/>
      <point x="312" y="20" type="curve" smooth="yes"/>
      <point x="200" y="20"/>
      <point x="148" y="94"/>
      <point x="148" y="247" type="curve" smooth="yes"/>
      <point x="148" y="806" type="line" smooth="yes"/>
      <point x="148" y="981"/>
      <point x="185" y="1104"/>
      <point x="248" y="1174" type="curve"/>
      <point x="207" y="1174" type="line"/>
      <point x="146" y="1104"/>
      <point x="113" y="983"/>
      <point x="113" y="808" type="curve" smooth="yes"/>
      <point x="113" y="247" type="line" smooth="yes"/>
      <point x="113" y="74"/>
      <point x="178" y="-13"/>
      <point x="312" y="-13" type="curve" smooth="yes"/>
      <point x="446" y="-13"/>
      <point x="509" y="74"/>
      <point x="509" y="247" type="curve" smooth="yes"/>
      <point x="509" y="397"/>
      <point x="479" y="668"/>
      <point x="479" y="819" type="curve" smooth="yes"/>
      <point x="479" y="1047"/>
      <point x="568" y="1159"/>
    </contour>
  </outline>
</glyph>
<glyph name="Sa.mlm" format="2">
  <advance width="1349"/>
  <unicode hex="0D38"/>
  <outline>
    <contour>
      <point x="113" y="920" type="curve" smooth="yes"/>
      <point x="113" y="362" type="line" smooth="yes"/>
      <point x="113" y="190"/>
      <point x="141" y="70"/>
      <point x="200" y="0" type="curve"/>
      <point x="242" y="0" type="line"/>
      <point x="181" y="70"/>
      <point x="148" y="191"/>
      <point x="148" y="364" type="curve" smooth="yes"/>
      <point x="148" y="920" type="line" smooth="yes"/>
      <point x="148" y="1080"/>
      <point x="202" y="1159"/>
      <point x="319" y="1159" type="curve" smooth="yes"/>
      <point x="437" y="1159"/>
      <point x="492" y="1080"/>
      <point x="492" y="920" type="curve" smooth="yes"/>
      <point x="492" y="650" type="line"/>
      <point x="509" y="650" type="line"/>
      <point x="509" y="1019" type="line"/>
      <point x="492" y="1130"/>
      <point x="428" y="1192"/>
      <point x="319" y="1192" type="curve" smooth="yes"/>
      <point x="176" y="1192"/>
      <point x="113" y="1102"/>
    </contour>
    <contour>
      <point x="492" y="791" type="line"/>
      <point x="492" y="2" type="line"/>
      <point x="527" y="2" type="line"/>
      <point x="527" y="791" type="line"/>
    </contour>
    <contour>
      <point x="697" y="1159" type="curve" smooth="yes"/>
      <point x="811" y="1159"/>
      <point x="862" y="1084"/>
      <point x="862" y="929" type="curve" smooth="yes"/>
      <point x="862" y="736"/>
      <point x="833" y="443"/>
      <point x="833" y="250" type="curve" smooth="yes"/>
      <point x="833" y="75"/>
      <point x="897" y="-13"/>
      <point x="1033" y="-13" type="curve" smooth="yes"/>
      <point x="1169" y="-13"/>
      <point x="1236" y="75"/>
      <point x="1236" y="250" type="curve" smooth="yes"/>
      <point x="1236" y="808" type="line" smooth="yes"/>
      <point x="1236" y="983"/>
      <point x="1203" y="1104"/>
      <point x="1142" y="1174" type="curve"/>
      <point x="1101" y="1174" type="line"/>
      <point x="1164" y="1104"/>
      <point x="1201" y="981"/>
      <point x="1201" y="806" type="curve" smooth="yes"/>
      <point x="1201" y="250" type="line" smooth="yes"/>
      <point x="1201" y="96"/>
      <point x="1147" y="20"/>
      <point x="1033" y="20" type="curve" smooth="yes"/>
      <point x="919" y="20"/>
      <point x="868" y="96"/>
      <point x="868" y="250" type="curve" smooth="yes"/>
      <point x="868" y="443"/>
      <point x="897" y="736"/>
      <point x="897" y="929" type="curve" smooth="yes"/>
      <point x="897" y="1104"/>
      <point x="833" y="1192"/>
      <point x="697" y="1192" type="curve" smooth="yes"/>
      <point x="588" y="1192"/>
      <point x="527" y="1130"/>
      <point x="511" y="1019" type="curve"/>
      <point x="500" y="1019" type="line"/>
      <point x="500" y="696" type="line"/>
      <point x="527" y="650" type="line"/>
      <point x="527" y="920" type="line" smooth="yes"/>
      <point x="527" y="1080"/>
      <point x="581" y="1159"/>
    </contour>
  </outline>
</glyph>
<glyph name="Ttta.mlm" format="2">
  <advance width="679"/>
  <unicode hex="0D3A"/>
  <outline>
    <contour>
      <point x="127" y="1174" type="line"/>
      <point x="127" y="0" type="line"/>
      <point x="162" y="0" type="line"/>
      <point x="162" y="1174" type="line"/>
    </contour>
    <contour>
      <point x="638" y="31" type="line"/>
      <point x="153" y="31" type="line"/>
      <point x="153" y="0" type="line"/>
      <point x="633" y="0" type="line"/>
    </contour>
    <contour>
      <point x="401" y="20" type="line"/>
      <point x="368" y="20" type="line"/>
      <point x="368" y="-232" type="line"/>
      <point x="401" y="-232" type="line"/>
    </contour>
  </outline>
</glyph>
<glyph name="Praslesham.mlm" format="2">
  <advance width="394"/>
  <unicode hex="0D3D"/>
  <outline>
    <contour>
      <point x="180" y="-75" type="curve" smooth="yes"/>
      <point x="248" y="1213" type="line" smooth="yes"/>
      <point x="256" y="1338"/>
      <point x="293" y="1393"/>
      <point x="385" y="1393" type="curve" smooth="yes"/>
      <point x="427" y="1393"/>
      <point x="464" y="1380"/>
      <point x="497" y="1360" type="curve"/>
      <point x="489" y="1397" type="line"/>
      <point x="460" y="1415"/>
      <point x="423" y="1426"/>
      <point x="383" y="1426" type="curve" smooth="yes"/>
      <point x="272" y="1426"/>
      <point x="221" y="1360"/>
      <point x="213" y="1216" type="curve" smooth="yes"/>
      <point x="145" y="-72" type="line" smooth="yes"/>
      <point x="138" y="-199"/>
      <point x="98" y="-254"/>
      <point x="2" y="-254" type="curve" smooth="yes"/>
      <point x="-44" y="-254"/>
      <point x="-83" y="-241"/>
      <point x="-120" y="-217" type="curve"/>
      <point x="-112" y="-254" type="line"/>
      <point x="-79" y="-276"/>
      <point x="-40" y="-287"/>
      <point x="4" y="-287" type="curve" smooth="yes"/>
      <point x="118" y="-287"/>
      <point x="173" y="-221"/>
    </contour>
  </outline>
</glyph>
<glyph name="matraUu.mlm" format="2">
  <advance width="464"/>
  <unicode hex="0D42"/>
  <outline>
    <contour>
      <point x="222" y="6" type="curve" smooth="yes"/>
      <point x="151" y="6"/>
      <point x="102" y="35"/>
      <point x="71" y="87" type="curve"/>
      <point x="63" y="65" type="line"/>
      <point x="70" y="46" type="line"/>
      <point x="100" y="-2"/>
      <point x="152" y="-28"/>
      <point x="222" y="-28" type="curve" smooth="yes"/>
      <point x="291" y="-28"/>
      <point x="344" y="-2"/>
      <point x="374" y="46" type="curve"/>
      <point x="380" y="65" type="line"/>
      <point x="373" y="87" type="line"/>
      <point x="342" y="35"/>
      <point x="292" y="6"/>
    </contour>
    <contour>
      <point x="222" y="-260" type="curve" smooth="yes"/>
      <point x="128" y="-260"/>
      <point x="87" y="-199"/>
      <point x="87" y="-57" type="curve" smooth="yes"/>
      <point x="87" y="83" type="line" smooth="yes"/>
      <point x="87" y="223"/>
      <point x="128" y="283"/>
      <point x="222" y="283" type="curve" smooth="yes"/>
      <point x="316" y="283"/>
      <point x="357" y="223"/>
      <point x="357" y="83" type="curve" smooth="yes"/>
      <point x="357" y="-57" type="line" smooth="yes"/>
      <point x="357" y="-199"/>
      <point x="316" y="-260"/>
    </contour>
    <contour>
      <point x="222" y="316" type="curve" smooth="yes"/>
      <point x="105" y="316"/>
      <point x="52" y="248"/>
      <point x="52" y="86" type="curve" smooth="yes"/>
      <point x="52" y="-61" type="line" smooth="yes"/>
      <point x="52" y="-225"/>
      <point x="105" y="-293"/>
      <point x="222" y="-293" type="curve" smooth="yes"/>
      <point x="339" y="-293"/>
      <point x="392" y="-225"/>
      <point x="392" y="-61" type="curve" smooth="yes"/>
      <point x="392" y="86" type="line" smooth="yes"/>
      <point x="392" y="242"/>
      <point x="343" y="310"/>
      <point x="236" y="316" type="curve"/>
      <point x="231" y="316"/>
      <point x="227" y="316"/>
    </contour>
    <contour>
      <point x="366" y="920" type="curve" smooth="yes"/>
      <point x="366" y="944" type="line" smooth="yes"/>
      <point x="366" y="1113"/>
      <point x="308" y="1190"/>
      <point x="193" y="1190" type="curve" smooth="yes"/>
      <point x="149" y="1190"/>
      <point x="107" y="1179"/>
      <point x="75" y="1161" type="curve"/>
      <point x="68" y="1124" type="line"/>
      <point x="104" y="1144"/>
      <point x="145" y="1157"/>
      <point x="191" y="1157" type="curve" smooth="yes"/>
      <point x="290" y="1157"/>
      <point x="331" y="1091"/>
      <point x="331" y="940" type="curve" smooth="yes"/>
      <point x="331" y="916" type="line" smooth="yes"/>
      <point x="331" y="662"/>
      <point x="278" y="466"/>
      <point x="208" y="302" type="curve"/>
      <point x="241" y="289" type="line"/>
      <point x="304" y="438"/>
      <point x="366" y="665"/>
    </contour>
  </outline>
</glyph>
<glyph name="matraRu.mlm" format="2">
  <advance width="327"/>
  <unicode hex="0D43"/>
  <outline>
    <contour>
      <point x="93" y="-442" type="curve" smooth="yes"/>
      <point x="200" y="-442"/>
      <point x="257" y="-380"/>
      <point x="257" y="-258" type="curve" smooth="yes"/>
      <point x="257" y="-212" type="line" smooth="yes"/>
      <point x="257" y="-55"/>
      <point x="170" y="312"/>
      <point x="170" y="694" type="curve" smooth="yes"/>
      <point x="170" y="854"/>
      <point x="180" y="1019"/>
      <point x="205" y="1174" type="curve"/>
      <point x="170" y="1174" type="line"/>
      <point x="142" y="1019"/>
      <point x="135" y="854"/>
      <point x="135" y="694" type="curve" smooth="yes"/>
      <point x="135" y="400"/>
      <point x="192" y="67"/>
      <point x="215" y="-94" type="curve"/>
      <point x="216" y="-114" type="line"/>
      <point x="220" y="-148"/>
      <point x="222" y="-180"/>
      <point x="222" y="-212" type="curve" smooth="yes"/>
      <point x="222" y="-258" type="line" smooth="yes"/>
      <point x="222" y="-357"/>
      <point x="175" y="-409"/>
      <point x="93" y="-409" type="curve" smooth="yes"/>
      <point x="10" y="-409"/>
      <point x="-36" y="-355"/>
      <point x="-36" y="-258" type="curve" smooth="yes"/>
      <point x="-36" y="-206" type="line" smooth="yes"/>
      <point x="-36" y="-112"/>
      <point x="12" y="-61"/>
      <point x="93" y="-61" type="curve" smooth="yes"/>
      <point x="157" y="-61"/>
      <point x="193" y="-90"/>
      <point x="223" y="-131" type="curve"/>
      <point x="224" y="-83" type="line"/>
      <point x="213" y="-83" type="line"/>
      <point x="189" y="-53"/>
      <point x="153" y="-28"/>
      <point x="87" y="-28" type="curve" smooth="yes"/>
      <point x="-10" y="-28"/>
      <point x="-71" y="-88"/>
      <point x="-71" y="-206" type="curve" smooth="yes"/>
      <point x="-71" y="-258" type="line" smooth="yes"/>
      <point x="-71" y="-375"/>
      <point x="-14" y="-442"/>
    </contour>
  </outline>
</glyph>
<glyph name="matraRru.mlm" format="2">
  <advance width="322"/>
  <unicode hex="0D44"/>
  <outline>
    <contour>
      <point x="278" y="-136" type="line"/>
      <point x="267" y="-92"/>
      <point x="237" y="-68"/>
      <point x="190" y="-68" type="curve" smooth="yes"/>
      <point x="138" y="-68"/>
      <point x="103" y="-94"/>
      <point x="94" y="-151" type="curve"/>
      <point x="92" y="-151" type="line"/>
      <point x="83" y="-94"/>
      <point x="45" y="-68"/>
      <point x="-15" y="-68" type="curve" smooth="yes"/>
      <point x="-91" y="-68"/>
      <point x="-138" y="-117"/>
      <point x="-138" y="-206" type="curve" smooth="yes"/>
      <point x="-138" y="-224" type="line" smooth="yes"/>
      <point x="-138" y="-354"/>
      <point x="-61" y="-425"/>
      <point x="83" y="-425" type="curve" smooth="yes"/>
      <point x="226" y="-425"/>
      <point x="304" y="-348"/>
      <point x="304" y="-193" type="curve" smooth="yes"/>
      <point x="304" y="-169" type="line" smooth="yes"/>
      <point x="304" y="85"/>
      <point x="162" y="324"/>
      <point x="162" y="712" type="curve" smooth="yes"/>
      <point x="162" y="867"/>
      <point x="175" y="1025"/>
      <point x="208" y="1174" type="curve"/>
      <point x="175" y="1174" type="line"/>
      <point x="138" y="1025"/>
      <point x="129" y="867"/>
      <point x="129" y="712" type="curve" smooth="yes"/>
      <point x="129" y="348"/>
      <point x="252" y="116"/>
      <point x="270" y="-114" type="curve"/>
      <point x="267" y="-114" type="line"/>
      <point x="269" y="-118" type="line"/>
      <point x="270" y="-136"/>
      <point x="270" y="-151"/>
      <point x="270" y="-169" type="curve" smooth="yes"/>
      <point x="270" y="-193" type="line" smooth="yes"/>
      <point x="270" y="-325"/>
      <point x="204" y="-392"/>
      <point x="83" y="-392" type="curve" smooth="yes"/>
      <point x="-39" y="-392"/>
      <point x="-103" y="-335"/>
      <point x="-103" y="-224" type="curve" smooth="yes"/>
      <point x="-103" y="-206" type="line" smooth="yes"/>
      <point x="-103" y="-139"/>
      <point x="-71" y="-101"/>
      <point x="-11" y="-101" type="curve" smooth="yes"/>
      <point x="57" y="-101"/>
      <point x="74" y="-143"/>
      <point x="75" y="-199" type="curve" smooth="yes"/>
      <point x="76" y="-269" type="line"/>
      <point x="109" y="-269" type="line"/>
      <point x="110" y="-199" type="line" smooth="yes"/>
      <point x="111" y="-143"/>
      <point x="128" y="-101"/>
      <point x="190" y="-101" type="curve" smooth="yes"/>
      <point x="232" y="-101"/>
      <point x="258" y="-123"/>
      <point x="270" y="-156" type="curve"/>
    </contour>
  </outline>
</glyph>
<glyph name="onefortieth.mlm" format="2">
  <advance width="1308"/>
  <unicode hex="0D59"/>
  <outline>
    <contour>
      <point x="436" y="1159" type="curve" smooth="yes"/>
      <point x="627" y="1159"/>
      <point x="721" y="1030"/>
      <point x="721" y="776" type="curve" smooth="yes"/>
      <point x="721" y="219" type="line" smooth="yes"/>
      <point x="721" y="90"/>
      <point x="673" y="24"/>
      <point x="581" y="24" type="curve" smooth="yes"/>
      <point x="489" y="24"/>
      <point x="442" y="90"/>
      <point x="442" y="219" type="curve" smooth="yes"/>
      <point x="442" y="526" type="line" smooth="yes"/>
      <point x="442" y="666"/>
      <point x="489" y="729"/>
      <point x="605" y="729" type="curve" smooth="yes"/>
      <point x="740" y="729" type="line"/>
      <point x="745" y="760" type="line"/>
      <point x="602" y="760" type="line" smooth="yes"/>
      <point x="473" y="760"/>
      <point x="407" y="684"/>
      <point x="407" y="530" type="curve" smooth="yes"/>
      <point x="407" y="219" type="line" smooth="yes"/>
      <point x="407" y="68"/>
      <point x="467" y="-9"/>
      <point x="581" y="-9" type="curve" smooth="yes"/>
      <point x="697" y="-9"/>
      <point x="756" y="68"/>
      <point x="756" y="219" type="curve" smooth="yes"/>
      <point x="756" y="776" type="line" smooth="yes"/>
      <point x="756" y="1051"/>
      <point x="651" y="1192"/>
      <point x="436" y="1192" type="curve" smooth="yes"/>
      <point x="215" y="1192"/>
      <point x="112" y="1052"/>
      <point x="112" y="782" type="curve" smooth="yes"/>
      <point x="112" y="362" type="line" smooth="yes"/>
      <point x="112" y="190"/>
      <point x="140" y="70"/>
      <point x="199" y="0" type="curve"/>
      <point x="241" y="0" type="line"/>
      <point x="180" y="70"/>
      <point x="147" y="191"/>
      <point x="147" y="364" type="curve" smooth="yes"/>
      <point x="147" y="782" type="line" smooth="yes"/>
      <point x="147" y="1032"/>
      <point x="239" y="1159"/>
    </contour>
    <contour>
      <point x="959" y="747" type="line"/>
      <point x="959" y="984" type="line" smooth="yes"/>
      <point x="959" y="1098"/>
      <point x="999" y="1156"/>
      <point x="1086" y="1156" type="curve" smooth="yes"/>
      <point x="1172" y="1156"/>
      <point x="1213" y="1098"/>
      <point x="1213" y="984" type="curve" smooth="yes"/>
      <point x="1213" y="922" type="line" smooth="yes"/>
      <point x="1213" y="810"/>
      <point x="1172" y="760"/>
      <point x="1071" y="760" type="curve" smooth="yes"/>
      <point x="738" y="760" type="line"/>
      <point x="732" y="729" type="line"/>
      <point x="1075" y="729" type="line" smooth="yes"/>
      <point x="1190" y="729"/>
      <point x="1248" y="789"/>
      <point x="1248" y="918" type="curve" smooth="yes"/>
      <point x="1248" y="984" type="line" smooth="yes"/>
      <point x="1248" y="1121"/>
      <point x="1196" y="1189"/>
      <point x="1086" y="1189" type="curve" smooth="yes"/>
      <point x="975" y="1189"/>
      <point x="924" y="1121"/>
      <point x="924" y="984" type="curve" smooth="yes"/>
      <point x="924" y="749" type="line"/>
    </contour>
  </outline>
</glyph>
<glyph name="threeeightieths.mlm" format="2">
  <advance width="1195"/>
  <unicode hex="0D5A"/>
  <outline>
    <contour>
      <point x="319" y="1159" type="curve" smooth="yes"/>
      <point x="437" y="1159"/>
      <point x="492" y="1080"/>
      <point x="492" y="920" type="curve" smooth="yes"/>
      <point x="492" y="650" type="line"/>
      <point x="509" y="650" type="line"/>
      <point x="516" y="964" type="line"/>
      <point x="510" y="1130"/>
      <point x="433" y="1192"/>
      <point x="319" y="1192" type="curve" smooth="yes"/>
      <point x="176" y="1192"/>
      <point x="113" y="1102"/>
      <point x="113" y="920" type="curve" smooth="yes"/>
      <point x="113" y="362" type="line" smooth="yes"/>
      <point x="113" y="190"/>
      <point x="141" y="70"/>
      <point x="200" y="0" type="curve"/>
      <point x="242" y="0" type="line"/>
      <point x="181" y="70"/>
      <point x="148" y="191"/>
      <point x="148" y="364" type="curve" smooth="yes"/>
      <point x="148" y="920" type="line" smooth="yes"/>
      <point x="148" y="1080"/>
      <point x="202" y="1159"/>
    </contour>
    <contour>
      <point x="503" y="964" type="line"/>
      <point x="492" y="738" type="line"/>
      <point x="492" y="0" type="line"/>
      <point x="527" y="0" type="line"/>
      <point x="527" y="813" type="line" smooth="yes"/>
      <point x="527" y="1043"/>
      <point x="608" y="1159"/>
      <point x="786" y="1159" type="curve" smooth="yes"/>
      <point x="957" y="1159"/>
      <point x="1036" y="1043"/>
      <point x="1036" y="813" type="curve" smooth="yes"/>
      <point x="1036" y="0" type="line"/>
      <point x="1071" y="0" type="line"/>
      <point x="1071" y="813" type="line" smooth="yes"/>
      <point x="1071" y="1063"/>
      <point x="981" y="1192"/>
      <point x="786" y="1192" type="curve" smooth="yes"/>
      <point x="642" y="1192"/>
      <point x="544" y="1119"/>
      <point x="517" y="964" type="curve"/>
    </contour>
    <contour>
      <point x="508" y="31" type="line"/>
      <point x="506" y="0" type="line"/>
      <point x="1062" y="0" type="line"/>
      <point x="1062" y="31" type="line"/>
    </contour>
    <contour>
      <point x="835" y="769" type="line" smooth="yes"/>
      <point x="835" y="974.732"/>
      <point x="770.996" y="1073"/>
      <point x="637" y="1073" type="curve" smooth="yes"/>
      <point x="611" y="1073"/>
      <point x="583" y="1067"/>
      <point x="555" y="1055" type="curve"/>
      <point x="551" y="1024" type="line"/>
      <point x="580.077" y="1037.6"/>
      <point x="607.077" y="1041"/>
      <point x="632" y="1041" type="curve" smooth="yes"/>
      <point x="747.528" y="1041"/>
      <point x="800" y="955.421"/>
      <point x="800" y="767" type="curve" smooth="yes"/>
      <point x="800" y="714" type="line" smooth="yes"/>
      <point x="800" y="425.579"/>
      <point x="730" y="218.534"/>
      <point x="587" y="29" type="curve"/>
      <point x="618" y="17" type="line"/>
      <point x="759" y="196.156"/>
      <point x="835" y="421.644"/>
      <point x="835" y="712" type="curve" smooth="yes"/>
    </contour>
  </outline>
</glyph>
<glyph name="onetenth.mlm" format="2">
  <advance width="1636"/>
  <unicode hex="0D5C"/>
  <outline>
    <contour>
      <point x="1120" y="250" type="curve" smooth="yes"/>
      <point x="1120" y="75"/>
      <point x="1184" y="-13"/>
      <point x="1320" y="-13" type="curve" smooth="yes"/>
      <point x="1456" y="-13"/>
      <point x="1523" y="75"/>
      <point x="1523" y="250" type="curve" smooth="yes"/>
      <point x="1523" y="808" type="line" smooth="yes"/>
      <point x="1523" y="983"/>
      <point x="1490" y="1104"/>
      <point x="1429" y="1174" type="curve"/>
      <point x="1388" y="1174" type="line"/>
      <point x="1451" y="1104"/>
      <point x="1488" y="981"/>
      <point x="1488" y="806" type="curve" smooth="yes"/>
      <point x="1488" y="250" type="line" smooth="yes"/>
      <point x="1488" y="96"/>
      <point x="1434" y="20"/>
      <point x="1320" y="20" type="curve" smooth="yes"/>
      <point x="1206" y="20"/>
      <point x="1155" y="96"/>
      <point x="1155" y="250" type="curve" smooth="yes"/>
      <point x="1155" y="443"/>
      <point x="1184" y="736"/>
      <point x="1184" y="929" type="curve" smooth="yes"/>
      <point x="1184" y="1104"/>
      <point x="1120" y="1192"/>
      <point x="985" y="1192" type="curve" smooth="yes"/>
      <point x="851" y="1192"/>
      <point x="787" y="1104"/>
      <point x="787" y="929" type="curve" smooth="yes"/>
      <point x="787" y="736"/>
      <point x="816" y="443"/>
      <point x="816" y="250" type="curve" smooth="yes"/>
      <point x="816" y="96"/>
      <point x="765" y="20"/>
      <point x="651" y="20" type="curve" smooth="yes"/>
      <point x="536" y="20"/>
      <point x="485" y="96"/>
      <point x="485" y="250" type="curve" smooth="yes"/>
      <point x="485" y="443"/>
      <point x="514" y="736"/>
      <point x="514" y="929" type="curve" smooth="yes"/>
      <point x="514" y="1104"/>
      <point x="450" y="1192"/>
      <point x="316" y="1192" type="curve" smooth="yes"/>
      <point x="179" y="1192"/>
      <point x="113" y="1104"/>
      <point x="113" y="929" type="curve" smooth="yes"/>
      <point x="113" y="362" type="line" smooth="yes"/>
      <point x="113" y="190"/>
      <point x="141" y="70"/>
      <point x="198" y="0" type="curve"/>
      <point x="242" y="0" type="line"/>
      <point x="179" y="70"/>
      <point x="148" y="191"/>
      <point x="148" y="364" type="curve" smooth="yes"/>
      <point x="148" y="929" type="line" smooth="yes"/>
      <point x="148" y="1084"/>
      <point x="202" y="1159"/>
      <point x="316" y="1159" type="curve" smooth="yes"/>
      <point x="428" y="1159"/>
      <point x="479" y="1084"/>
      <point x="479" y="929" type="curve" smooth="yes"/>
      <point x="479" y="736"/>
      <point x="450" y="443"/>
      <point x="450" y="250" type="curve" smooth="yes"/>
      <point x="450" y="75"/>
      <point x="514" y="-13"/>
      <point x="651" y="-13" type="curve" smooth="yes"/>
      <point x="787" y="-13"/>
      <point x="851" y="75"/>
      <point x="851" y="250" type="curve" smooth="yes"/>
      <point x="851" y="443"/>
      <point x="822" y="736"/>
      <point x="822" y="929" type="curve" smooth="yes"/>
      <point x="822" y="1084"/>
      <point x="873" y="1159"/>
      <point x="985" y="1159" type="curve" smooth="yes"/>
      <point x="1098" y="1159"/>
      <point x="1149" y="1084"/>
      <point x="1149" y="929" type="curve" smooth="yes"/>
      <point x="1149" y="736"/>
      <point x="1120" y="443"/>
    </contour>
  </outline>
</glyph>
<glyph name="onefifth.mlm" format="2">
  <advance width="1547"/>
  <unicode hex="0D5E"/>
  <outline>
    <contour>
      <point x="1192" y="1141" type="line"/>
      <point x="1236" y="1172" type="line"/>
      <point x="881" y="1172" type="line"/>
      <point x="917" y="1141" type="line"/>
    </contour>
    <contour>
      <point x="1313" y="756" type="curve" smooth="yes"/>
      <point x="1219" y="756"/>
      <point x="1177" y="819"/>
      <point x="1177" y="942" type="curve" smooth="yes"/>
      <point x="1177" y="968" type="line" smooth="yes"/>
      <point x="1177" y="1062"/>
      <point x="1197" y="1126"/>
      <point x="1236" y="1167" type="curve"/>
      <point x="1236" y="1172" type="line"/>
      <point x="1206" y="1172" type="line"/>
      <point x="1162" y="1133"/>
      <point x="1142" y="1067"/>
      <point x="1142" y="970" type="curve" smooth="yes"/>
      <point x="1142" y="942" type="line" smooth="yes"/>
      <point x="1142" y="799"/>
      <point x="1195" y="723"/>
      <point x="1313" y="723" type="curve" smooth="yes"/>
      <point x="1444" y="723"/>
      <point x="1488" y="799"/>
      <point x="1488" y="942" type="curve" smooth="yes"/>
      <point x="1488" y="972" type="line" smooth="yes"/>
      <point x="1488" y="1069"/>
      <point x="1466" y="1135"/>
      <point x="1435" y="1174" type="curve"/>
      <point x="1396" y="1174" type="line"/>
      <point x="1431" y="1133"/>
      <point x="1453" y="1067"/>
      <point x="1453" y="970" type="curve" smooth="yes"/>
      <point x="1453" y="942" type="line" smooth="yes"/>
      <point x="1453" y="819"/>
      <point x="1420" y="756"/>
    </contour>
    <contour>
      <point x="940" y="944" type="line" smooth="yes"/>
      <point x="940" y="817"/>
      <point x="895" y="760"/>
      <point x="783" y="760" type="curve" smooth="yes"/>
      <point x="741" y="760" type="line"/>
      <point x="735" y="729" type="line"/>
      <point x="787" y="729" type="line" smooth="yes"/>
      <point x="912" y="729"/>
      <point x="975" y="797"/>
      <point x="975" y="940" type="curve" smooth="yes"/>
      <point x="975" y="970" type="line" smooth="yes"/>
      <point x="975" y="1067"/>
      <point x="954" y="1133"/>
      <point x="910" y="1172" type="curve"/>
      <point x="881" y="1172" type="line"/>
      <point x="881" y="1167" type="line"/>
      <point x="919" y="1126"/>
      <point x="940" y="1062"/>
      <point x="940" y="968" type="curve" smooth="yes"/>
    </contour>
    <contour>
      <point x="435" y="1159" type="curve" smooth="yes"/>
      <point x="630" y="1159"/>
      <point x="724" y="1030"/>
      <point x="724" y="776" type="curve" smooth="yes"/>
      <point x="724" y="219" type="line" smooth="yes"/>
      <point x="724" y="90"/>
      <point x="676" y="24"/>
      <point x="583" y="24" type="curve" smooth="yes"/>
      <point x="489" y="24"/>
      <point x="441" y="90"/>
      <point x="441" y="219" type="curve" smooth="yes"/>
      <point x="441" y="526" type="line" smooth="yes"/>
      <point x="441" y="666"/>
      <point x="489" y="729"/>
      <point x="607" y="729" type="curve" smooth="yes"/>
      <point x="743" y="729" type="line"/>
      <point x="748" y="760" type="line"/>
      <point x="603" y="760" type="line" smooth="yes"/>
      <point x="472" y="760"/>
      <point x="406" y="684"/>
      <point x="406" y="530" type="curve" smooth="yes"/>
      <point x="406" y="219" type="line" smooth="yes"/>
      <point x="406" y="68"/>
      <point x="467" y="-9"/>
      <point x="583" y="-9" type="curve" smooth="yes"/>
      <point x="700" y="-9"/>
      <point x="759" y="68"/>
      <point x="759" y="219" type="curve" smooth="yes"/>
      <point x="759" y="776" type="line" smooth="yes"/>
      <point x="759" y="1051"/>
      <point x="654" y="1192"/>
      <point x="435" y="1192" type="curve" smooth="yes"/>
      <point x="215" y="1192"/>
      <point x="112" y="1052"/>
      <point x="112" y="782" type="curve" smooth="yes"/>
      <point x="112" y="362" type="line" smooth="yes"/>
      <point x="112" y="190"/>
      <point x="139" y="70"/>
      <point x="198" y="0" type="curve"/>
      <point x="240" y="0" type="line"/>
      <point x="180" y="70"/>
      <point x="147" y="191"/>
      <point x="147" y="364" type="curve" smooth="yes"/>
      <point x="147" y="782" type="line" smooth="yes"/>
      <point x="147" y="1032"/>
      <point x="239" y="1159"/>
    </contour>
  </outline>
</glyph>
<glyph name="archaicIi.mlm" format="2">
  <advance width="1783"/>
  <unicode hex="0D5F"/>
  <outline>
    <component base="Ra.mlm" xOffset="453"/>
    <contour>
      <point x="364" y="609" type="curve" smooth="yes"/>
      <point x="364" y="440" type="line" smooth="yes"/>
      <point x="364" y="328"/>
      <point x="324" y="269"/>
      <point x="237" y="269" type="curve" smooth="yes"/>
      <point x="151" y="269"/>
      <point x="110" y="328"/>
      <point x="110" y="440" type="curve" smooth="yes"/>
      <point x="110" y="609" type="line" smooth="yes"/>
      <point x="110" y="721"/>
      <point x="151" y="780"/>
      <point x="237" y="780" type="curve" smooth="yes"/>
      <point x="324" y="780"/>
      <point x="364" y="721"/>
    </contour>
    <contour>
      <point x="237" y="813" type="curve" smooth="yes"/>
      <point x="127" y="813"/>
      <point x="75" y="742"/>
      <point x="75" y="609" type="curve" smooth="yes"/>
      <point x="75" y="440" type="line" smooth="yes"/>
      <point x="75" y="307"/>
      <point x="127" y="236"/>
      <point x="237" y="236" type="curve" smooth="yes"/>
      <point x="348" y="236"/>
      <point x="399" y="307"/>
      <point x="399" y="440" type="curve" smooth="yes"/>
      <point x="399" y="609" type="line" smooth="yes"/>
      <point x="399" y="742"/>
      <point x="348" y="813"/>
    </contour>
    <contour>
      <point x="1673" y="609" type="curve" smooth="yes"/>
      <point x="1673" y="440" type="line" smooth="yes"/>
      <point x="1673" y="328"/>
      <point x="1632" y="269"/>
      <point x="1546" y="269" type="curve" smooth="yes"/>
      <point x="1459" y="269"/>
      <point x="1419" y="328"/>
      <point x="1419" y="440" type="curve" smooth="yes"/>
      <point x="1419" y="609" type="line" smooth="yes"/>
      <point x="1419" y="721"/>
      <point x="1459" y="780"/>
      <point x="1546" y="780" type="curve" smooth="yes"/>
      <point x="1632" y="780"/>
      <point x="1673" y="721"/>
    </contour>
    <contour>
      <point x="1384" y="609" type="curve" smooth="yes"/>
      <point x="1384" y="440" type="line" smooth="yes"/>
      <point x="1384" y="307"/>
      <point x="1435" y="236"/>
      <point x="1546" y="236" type="curve" smooth="yes"/>
      <point x="1656" y="236"/>
      <point x="1708" y="307"/>
      <point x="1708" y="440" type="curve" smooth="yes"/>
      <point x="1708" y="609" type="line" smooth="yes"/>
      <point x="1708" y="742"/>
      <point x="1656" y="813"/>
      <point x="1546" y="813" type="curve" smooth="yes"/>
      <point x="1435" y="813"/>
      <point x="1384" y="742"/>
    </contour>
  </outline>
</glyph>
<glyph name="zero.mlm" format="2">
  <advance width="626"/>
  <unicode hex="0D66"/>
  <outline>
    <contour>
      <point x="313" y="66" type="curve" smooth="yes"/>
      <point x="197" y="66"/>
      <point x="140" y="147"/>
      <point x="140" y="305" type="curve" smooth="yes"/>
      <point x="140" y="878" type="line" smooth="yes"/>
      <point x="140" y="1036"/>
      <point x="195" y="1119"/>
      <point x="313" y="1119" type="curve" smooth="yes"/>
      <point x="429" y="1119"/>
      <point x="486" y="1036"/>
      <point x="486" y="878" type="curve" smooth="yes"/>
      <point x="486" y="305" type="line" smooth="yes"/>
      <point x="486" y="147"/>
      <point x="429" y="66"/>
    </contour>
    <contour>
      <point x="313" y="33" type="curve" smooth="yes"/>
      <point x="453" y="33"/>
      <point x="521" y="127"/>
      <point x="521" y="305" type="curve" smooth="yes"/>
      <point x="521" y="878" type="line" smooth="yes"/>
      <point x="521" y="1056"/>
      <point x="453" y="1152"/>
      <point x="313" y="1152" type="curve" smooth="yes"/>
      <point x="171" y="1152"/>
      <point x="105" y="1056"/>
      <point x="105" y="878" type="curve" smooth="yes"/>
      <point x="105" y="305" type="line" smooth="yes"/>
      <point x="105" y="127"/>
      <point x="173" y="33"/>
    </contour>
  </outline>
</glyph>
<glyph name="one.mlm" format="2">
  <advance width="840"/>
  <unicode hex="0D67"/>
  <outline>
    <contour>
      <point x="328" y="31" type="line"/>
      <point x="317" y="0" type="line"/>
      <point x="716" y="0" type="line"/>
      <point x="716" y="924" type="line" smooth="yes"/>
      <point x="716" y="1102"/>
      <point x="652" y="1192"/>
      <point x="510" y="1192" type="curve" smooth="yes"/>
      <point x="369" y="1192"/>
      <point x="304" y="1102"/>
      <point x="304" y="924" type="curve" smooth="yes"/>
      <point x="304" y="0" type="line"/>
      <point x="339" y="0" type="line"/>
      <point x="339" y="924" type="line" smooth="yes"/>
      <point x="339" y="1080"/>
      <point x="393" y="1159"/>
      <point x="510" y="1159" type="curve" smooth="yes"/>
      <point x="628" y="1159"/>
      <point x="681" y="1080"/>
      <point x="681" y="924" type="curve" smooth="yes"/>
      <point x="681" y="31" type="line"/>
    </contour>
    <contour>
      <point x="317" y="31" type="line"/>
      <point x="150" y="31" type="line" smooth="yes"/>
      <point x="40" y="31"/>
      <point x="-15" y="-26"/>
      <point x="-15" y="-125" type="curve" smooth="yes"/>
      <point x="-15" y="-226"/>
      <point x="40" y="-283"/>
      <point x="150" y="-283" type="curve" smooth="yes"/>
      <point x="315" y="-283" type="line"/>
      <point x="322" y="-252" type="line"/>
      <point x="150" y="-252" type="line" smooth="yes"/>
      <point x="62" y="-252"/>
      <point x="21" y="-206"/>
      <point x="21" y="-125" type="curve" smooth="yes"/>
      <point x="21" y="-46"/>
      <point x="62" y="0"/>
      <point x="150" y="0" type="curve" smooth="yes"/>
      <point x="324" y="0" type="line"/>
    </contour>
  </outline>
</glyph>
<glyph name="two.mlm" format="2">
  <advance width="807"/>
  <unicode hex="0D68"/>
  <outline>
    <contour>
      <point x="479" y="31" type="line"/>
      <point x="450" y="0" type="line"/>
      <point x="801" y="0" type="line"/>
      <point x="807" y="31" type="line"/>
    </contour>
    <contour>
      <point x="336" y="1159" type="curve" smooth="yes"/>
      <point x="465" y="1159"/>
      <point x="524" y="1075"/>
      <point x="524" y="903" type="curve" smooth="yes"/>
      <point x="524" y="361" type="line" smooth="yes"/>
      <point x="524" y="193"/>
      <point x="498" y="75"/>
      <point x="444" y="6" type="curve"/>
      <point x="444" y="0" type="line"/>
      <point x="479" y="0" type="line"/>
      <point x="533" y="68"/>
      <point x="559" y="188"/>
      <point x="559" y="359" type="curve" smooth="yes"/>
      <point x="559" y="903" type="line" smooth="yes"/>
      <point x="559" y="1095"/>
      <point x="489" y="1192"/>
      <point x="336" y="1192" type="curve" smooth="yes"/>
      <point x="183" y="1192"/>
      <point x="113" y="1095"/>
      <point x="113" y="903" type="curve" smooth="yes"/>
      <point x="113" y="359" type="line" smooth="yes"/>
      <point x="113" y="188"/>
      <point x="137" y="68"/>
      <point x="189" y="0" type="curve"/>
      <point x="231" y="0" type="line"/>
      <point x="178" y="68"/>
      <point x="148" y="190"/>
      <point x="148" y="361" type="curve" smooth="yes"/>
      <point x="148" y="903" type="line" smooth="yes"/>
      <point x="148" y="1075"/>
      <point x="207" y="1159"/>
    </contour>
  </outline>
</glyph>
<glyph name="three.mlm" format="2">
  <advance width="1147"/>
  <unicode hex="0D69"/>
  <outline>
    <contour>
      <point x="492" y="788" type="line"/>
      <point x="492" y="2" type="line"/>
      <point x="527" y="2" type="line"/>
      <point x="527" y="788" type="line"/>
    </contour>
    <contour>
      <point x="113" y="920" type="curve" smooth="yes"/>
      <point x="113" y="362" type="line" smooth="yes"/>
      <point x="113" y="190"/>
      <point x="141" y="70"/>
      <point x="200" y="0" type="curve"/>
      <point x="242" y="0" type="line"/>
      <point x="181" y="70"/>
      <point x="148" y="191"/>
      <point x="148" y="364" type="curve" smooth="yes"/>
      <point x="148" y="920" type="line" smooth="yes"/>
      <point x="148" y="1080"/>
      <point x="202" y="1159"/>
      <point x="319" y="1159" type="curve" smooth="yes"/>
      <point x="437" y="1159"/>
      <point x="492" y="1080"/>
      <point x="492" y="920" type="curve" smooth="yes"/>
      <point x="492" y="650" type="line"/>
      <point x="509" y="650" type="line"/>
      <point x="509" y="1019" type="line"/>
      <point x="492" y="1130"/>
      <point x="428" y="1192"/>
      <point x="319" y="1192" type="curve" smooth="yes"/>
      <point x="176" y="1192"/>
      <point x="113" y="1102"/>
    </contour>
    <contour>
      <point x="906" y="920" type="line" smooth="yes"/>
      <point x="906" y="1102"/>
      <point x="844" y="1192"/>
      <point x="700" y="1192" type="curve" smooth="yes"/>
      <point x="592" y="1192"/>
      <point x="527" y="1130"/>
      <point x="511" y="1019" type="curve"/>
      <point x="500" y="1019" type="line"/>
      <point x="500" y="696" type="line"/>
      <point x="527" y="650" type="line"/>
      <point x="527" y="920" type="line" smooth="yes"/>
      <point x="527" y="1080"/>
      <point x="582" y="1159"/>
      <point x="700" y="1159" type="curve" smooth="yes"/>
      <point x="818" y="1159"/>
      <point x="871" y="1080"/>
      <point x="871" y="920" type="curve" smooth="yes"/>
      <point x="871" y="364" type="line" smooth="yes"/>
      <point x="871" y="195"/>
      <point x="840" y="75"/>
      <point x="781" y="6" type="curve"/>
      <point x="781" y="0" type="line"/>
      <point x="816" y="0" type="line"/>
      <point x="877" y="70"/>
      <point x="906" y="190"/>
      <point x="906" y="362" type="curve" smooth="yes"/>
    </contour>
    <contour>
      <point x="820" y="31" type="line"/>
      <point x="790" y="0" type="line"/>
      <point x="1142" y="0" type="line"/>
      <point x="1147" y="31" type="line"/>
    </contour>
  </outline>
</glyph>
<glyph name="five.mlm" format="2">
  <advance width="1224"/>
  <unicode hex="0D6B"/>
  <outline>
    <contour>
      <point x="1084" y="738" type="curve" smooth="yes"/>
      <point x="1084" y="364" type="line" smooth="yes"/>
      <point x="1084" y="191"/>
      <point x="1058" y="70"/>
      <point x="1010" y="0" type="curve"/>
      <point x="1051" y="0" type="line"/>
      <point x="1097" y="70"/>
      <point x="1119" y="190"/>
      <point x="1119" y="362" type="curve" smooth="yes"/>
      <point x="1119" y="740" type="line" smooth="yes"/>
      <point x="1119" y="1133"/>
      <point x="962" y="1325"/>
      <point x="616" y="1325" type="curve" smooth="yes"/>
      <point x="272" y="1325"/>
      <point x="112" y="1133"/>
      <point x="112" y="740" type="curve" smooth="yes"/>
      <point x="112" y="250" type="line" smooth="yes"/>
      <point x="112" y="-42"/>
      <point x="228" y="-182"/>
      <point x="482" y="-182" type="curve" smooth="yes"/>
      <point x="719" y="-182"/>
      <point x="835" y="-53"/>
      <point x="835" y="213" type="curve" smooth="yes"/>
      <point x="835" y="256" type="line" smooth="yes"/>
      <point x="835" y="412"/>
      <point x="788" y="493"/>
      <point x="683" y="510" type="curve"/>
      <point x="683" y="512" type="line"/>
      <point x="780" y="526"/>
      <point x="824" y="602"/>
      <point x="824" y="743" type="curve" smooth="yes"/>
      <point x="824" y="795" type="line" smooth="yes"/>
      <point x="824" y="977"/>
      <point x="758" y="1073"/>
      <point x="613" y="1073" type="curve" smooth="yes"/>
      <point x="471" y="1073"/>
      <point x="403" y="977"/>
      <point x="403" y="795" type="curve" smooth="yes"/>
      <point x="403" y="335" type="line" smooth="yes"/>
      <point x="403" y="191"/>
      <point x="420" y="98"/>
      <point x="456" y="40" type="curve"/>
      <point x="495" y="40" type="line"/>
      <point x="460" y="99"/>
      <point x="438" y="193"/>
      <point x="438" y="337" type="curve" smooth="yes"/>
      <point x="438" y="795" type="line" smooth="yes"/>
      <point x="438" y="955"/>
      <point x="495" y="1040"/>
      <point x="613" y="1040" type="curve" smooth="yes"/>
      <point x="734" y="1040"/>
      <point x="789" y="955"/>
      <point x="789" y="795" type="curve" smooth="yes"/>
      <point x="789" y="743" type="line" smooth="yes"/>
      <point x="789" y="592"/>
      <point x="736" y="527"/>
      <point x="620" y="524" type="curve" smooth="yes"/>
      <point x="582" y="523" type="line"/>
      <point x="582" y="494" type="line"/>
      <point x="627" y="493" type="line" smooth="yes"/>
      <point x="751" y="490"/>
      <point x="800" y="414"/>
      <point x="800" y="258" type="curve" smooth="yes"/>
      <point x="800" y="215" type="line" smooth="yes"/>
      <point x="800" y="-33"/>
      <point x="699" y="-149"/>
      <point x="482" y="-149" type="curve" smooth="yes"/>
      <point x="248" y="-149"/>
      <point x="147" y="-22"/>
      <point x="147" y="252" type="curve" smooth="yes"/>
      <point x="147" y="738" type="line" smooth="yes"/>
      <point x="147" y="1113"/>
      <point x="293" y="1292"/>
      <point x="616" y="1292" type="curve" smooth="yes"/>
      <point x="942" y="1292"/>
      <point x="1084" y="1113"/>
    </contour>
  </outline>
</glyph>
<glyph name="six.mlm" format="2">
  <advance width="1393"/>
  <unicode hex="0D6C"/>
  <outline>
    <contour>
      <point x="1074" y="1159" type="curve" smooth="yes"/>
      <point x="1192" y="1159"/>
      <point x="1245" y="1080"/>
      <point x="1245" y="920" type="curve" smooth="yes"/>
      <point x="1245" y="175" type="line" smooth="yes"/>
      <point x="1245" y="-72"/>
      <point x="1153" y="-199"/>
      <point x="956" y="-199" type="curve" smooth="yes"/>
      <point x="894" y="-199"/>
      <point x="839" y="-191"/>
      <point x="793" y="-173" type="curve"/>
      <point x="805" y="-210" type="line"/>
      <point x="850" y="-226"/>
      <point x="899" y="-232"/>
      <point x="956" y="-232" type="curve" smooth="yes"/>
      <point x="1177" y="-232"/>
      <point x="1280" y="-92"/>
      <point x="1280" y="175" type="curve" smooth="yes"/>
      <point x="1280" y="920" type="line" smooth="yes"/>
      <point x="1280" y="1102"/>
      <point x="1218" y="1192"/>
      <point x="1074" y="1192" type="curve" smooth="yes"/>
      <point x="965" y="1192"/>
      <point x="901" y="1130"/>
      <point x="885" y="1019" type="curve"/>
      <point x="873" y="1019" type="line"/>
      <point x="873" y="696" type="line"/>
      <point x="901" y="650" type="line"/>
      <point x="901" y="920" type="line" smooth="yes"/>
      <point x="901" y="1080"/>
      <point x="956" y="1159"/>
    </contour>
    <contour>
      <point x="113" y="920" type="curve" smooth="yes"/>
      <point x="113" y="362" type="line" smooth="yes"/>
      <point x="113" y="190"/>
      <point x="141" y="70"/>
      <point x="200" y="0" type="curve"/>
      <point x="242" y="0" type="line"/>
      <point x="181" y="70"/>
      <point x="148" y="191"/>
      <point x="148" y="364" type="curve" smooth="yes"/>
      <point x="148" y="920" type="line" smooth="yes"/>
      <point x="148" y="1080"/>
      <point x="202" y="1159"/>
      <point x="319" y="1159" type="curve" smooth="yes"/>
      <point x="437" y="1159"/>
      <point x="492" y="1080"/>
      <point x="492" y="920" type="curve" smooth="yes"/>
      <point x="492" y="650" type="line"/>
      <point x="509" y="650" type="line"/>
      <point x="509" y="1019" type="line"/>
      <point x="492" y="1130"/>
      <point x="428" y="1192"/>
      <point x="319" y="1192" type="curve" smooth="yes"/>
      <point x="176" y="1192"/>
      <point x="113" y="1102"/>
    </contour>
    <contour>
      <point x="492" y="791" type="line"/>
      <point x="492" y="2" type="line"/>
      <point x="527" y="2" type="line"/>
      <point x="527" y="791" type="line"/>
    </contour>
    <contour>
      <point x="697" y="1159" type="curve" smooth="yes"/>
      <point x="814" y="1159"/>
      <point x="866" y="1080"/>
      <point x="866" y="920" type="curve" smooth="yes"/>
      <point x="866" y="650" type="line"/>
      <point x="882" y="650" type="line"/>
      <point x="882" y="1019" type="line"/>
      <point x="866" y="1130"/>
      <point x="803" y="1192"/>
      <point x="697" y="1192" type="curve" smooth="yes"/>
      <point x="590" y="1192"/>
      <point x="527" y="1130"/>
      <point x="511" y="1019" type="curve"/>
      <point x="503" y="1019" type="line"/>
      <point x="505" y="650" type="line"/>
      <point x="527" y="650" type="line"/>
      <point x="527" y="920" type="line" smooth="yes"/>
      <point x="527" y="1080"/>
      <point x="579" y="1159"/>
    </contour>
    <contour>
      <point x="866" y="788" type="line"/>
      <point x="866" y="2" type="line"/>
      <point x="901" y="2" type="line"/>
      <point x="901" y="788" type="line"/>
    </contour>
  </outline>
</glyph>
<glyph name="onehundred.mlm" format="2">
  <advance width="1019"/>
  <unicode hex="0D71"/>
  <outline>
    <contour>
      <point x="700" y="1159" type="curve" smooth="yes"/>
      <point x="818" y="1159"/>
      <point x="871" y="1080"/>
      <point x="871" y="920" type="curve" smooth="yes"/>
      <point x="871" y="175" type="line" smooth="yes"/>
      <point x="871" y="-72"/>
      <point x="779" y="-199"/>
      <point x="582" y="-199" type="curve" smooth="yes"/>
      <point x="520" y="-199"/>
      <point x="465" y="-191"/>
      <point x="419" y="-173" type="curve"/>
      <point x="431" y="-210" type="line"/>
      <point x="476" y="-226"/>
      <point x="525" y="-232"/>
      <point x="582" y="-232" type="curve" smooth="yes"/>
      <point x="803" y="-232"/>
      <point x="906" y="-92"/>
      <point x="906" y="175" type="curve" smooth="yes"/>
      <point x="906" y="920" type="line" smooth="yes"/>
      <point x="906" y="1102"/>
      <point x="844" y="1192"/>
      <point x="700" y="1192" type="curve" smooth="yes"/>
      <point x="591" y="1192"/>
      <point x="527" y="1130"/>
      <point x="511" y="1019" type="curve"/>
      <point x="499" y="1019" type="line"/>
      <point x="499" y="696" type="line"/>
      <point x="527" y="650" type="line"/>
      <point x="527" y="920" type="line" smooth="yes"/>
      <point x="527" y="1080"/>
      <point x="582" y="1159"/>
    </contour>
    <contour>
      <point x="492" y="788" type="line"/>
      <point x="492" y="2" type="line"/>
      <point x="527" y="2" type="line"/>
      <point x="527" y="788" type="line"/>
    </contour>
    <contour>
      <point x="113" y="920" type="curve" smooth="yes"/>
      <point x="113" y="362" type="line" smooth="yes"/>
      <point x="113" y="190"/>
      <point x="141" y="70"/>
      <point x="200" y="0" type="curve"/>
      <point x="242" y="0" type="line"/>
      <point x="181" y="70"/>
      <point x="148" y="191"/>
      <point x="148" y="364" type="curve" smooth="yes"/>
      <point x="148" y="920" type="line" smooth="yes"/>
      <point x="148" y="1080"/>
      <point x="202" y="1159"/>
      <point x="319" y="1159" type="curve" smooth="yes"/>
      <point x="437" y="1159"/>
      <point x="492" y="1080"/>
      <point x="492" y="920" type="curve" smooth="yes"/>
      <point x="492" y="650" type="line"/>
      <point x="509" y="650" type="line"/>
      <point x="509" y="1019" type="line"/>
      <point x="492" y="1130"/>
      <point x="428" y="1192"/>
      <point x="319" y="1192" type="curve" smooth="yes"/>
      <point x="176" y="1192"/>
      <point x="113" y="1102"/>
    </contour>
  </outline>
</glyph>
<glyph name="onethousand.mlm" format="2">
  <advance width="1650"/>
  <unicode hex="0D72"/>
  <outline>
    <component base="date.mlm"/>
    <contour>
      <point x="1301" y="753" type="line"/>
      <point x="1301" y="984" type="line" smooth="yes"/>
      <point x="1301" y="1098"/>
      <point x="1341" y="1156"/>
      <point x="1428" y="1156" type="curve" smooth="yes"/>
      <point x="1514" y="1156"/>
      <point x="1555" y="1098"/>
      <point x="1555" y="984" type="curve" smooth="yes"/>
      <point x="1555" y="922" type="line" smooth="yes"/>
      <point x="1555" y="810"/>
      <point x="1514" y="760"/>
      <point x="1413" y="760" type="curve" smooth="yes"/>
      <point x="1078" y="760" type="line"/>
      <point x="1073" y="729" type="line"/>
      <point x="1417" y="729" type="line" smooth="yes"/>
      <point x="1533" y="729"/>
      <point x="1590" y="789"/>
      <point x="1590" y="918" type="curve" smooth="yes"/>
      <point x="1590" y="984" type="line" smooth="yes"/>
      <point x="1590" y="1121"/>
      <point x="1538" y="1189"/>
      <point x="1428" y="1189" type="curve" smooth="yes"/>
      <point x="1317" y="1189"/>
      <point x="1266" y="1121"/>
      <point x="1266" y="984" type="curve" smooth="yes"/>
      <point x="1266" y="751" type="line"/>
    </contour>
  </outline>
</glyph>
<glyph name="oneeighth.mlm" format="2">
  <advance width="2044"/>
  <unicode hex="0D77"/>
  <outline>
    <contour>
      <point x="293" y="771" type="curve" smooth="yes"/>
      <point x="165" y="771"/>
      <point x="102" y="684"/>
      <point x="102" y="521" type="curve" smooth="yes"/>
      <point x="102" y="258" type="line" smooth="yes"/>
      <point x="102" y="132"/>
      <point x="119" y="50"/>
      <point x="154" y="0" type="curve"/>
      <point x="194" y="0" type="line"/>
      <point x="157" y="52"/>
      <point x="137" y="134"/>
      <point x="137" y="259" type="curve" smooth="yes"/>
      <point x="137" y="521" type="line" smooth="yes"/>
      <point x="137" y="664"/>
      <point x="189" y="738"/>
      <point x="293" y="738" type="curve" smooth="yes"/>
      <point x="398" y="738"/>
      <point x="450" y="664"/>
      <point x="450" y="521" type="curve" smooth="yes"/>
      <point x="450" y="259" type="line" smooth="yes"/>
      <point x="450" y="138"/>
      <point x="430" y="57"/>
      <point x="391" y="6" type="curve"/>
      <point x="391" y="0" type="line"/>
      <point x="420" y="0" type="line"/>
      <point x="465" y="50"/>
      <point x="485" y="132"/>
      <point x="485" y="258" type="curve" smooth="yes"/>
      <point x="485" y="521" type="line" smooth="yes"/>
      <point x="485" y="684"/>
      <point x="422" y="771"/>
    </contour>
    <contour>
      <point x="1107" y="788" type="line"/>
      <point x="1107" y="237" type="line"/>
      <point x="1142" y="237" type="line"/>
      <point x="1142" y="788" type="line"/>
    </contour>
    <contour>
      <point x="1401" y="1192" type="curve" smooth="yes"/>
      <point x="1243" y="1192"/>
      <point x="1153" y="1115"/>
      <point x="1129" y="990" type="curve"/>
      <point x="1116" y="990" type="line"/>
      <point x="1116" y="672" type="line"/>
      <point x="1142" y="672" type="line"/>
      <point x="1142" y="881" type="line" smooth="yes"/>
      <point x="1142" y="1067"/>
      <point x="1234" y="1159"/>
      <point x="1401" y="1159" type="curve" smooth="yes"/>
      <point x="1592" y="1159"/>
      <point x="1679" y="1041"/>
      <point x="1679" y="813" type="curve" smooth="yes"/>
      <point x="1679" y="219" type="line" smooth="yes"/>
      <point x="1679" y="90"/>
      <point x="1631" y="24"/>
      <point x="1539" y="24" type="curve" smooth="yes"/>
      <point x="1447" y="24"/>
      <point x="1399" y="90"/>
      <point x="1399" y="219" type="curve" smooth="yes"/>
      <point x="1399" y="526" type="line" smooth="yes"/>
      <point x="1399" y="666"/>
      <point x="1447" y="729"/>
      <point x="1563" y="729" type="curve" smooth="yes"/>
      <point x="1695" y="729" type="line"/>
      <point x="1701" y="760" type="line"/>
      <point x="1559" y="760" type="line" smooth="yes"/>
      <point x="1431" y="760"/>
      <point x="1364" y="684"/>
      <point x="1364" y="530" type="curve" smooth="yes"/>
      <point x="1364" y="219" type="line" smooth="yes"/>
      <point x="1364" y="68"/>
      <point x="1425" y="-9"/>
      <point x="1539" y="-9" type="curve" smooth="yes"/>
      <point x="1655" y="-9"/>
      <point x="1714" y="68"/>
      <point x="1714" y="219" type="curve" smooth="yes"/>
      <point x="1714" y="813" type="line" smooth="yes"/>
      <point x="1714" y="1062"/>
      <point x="1616" y="1192"/>
    </contour>
    <contour>
      <point x="731" y="920" type="curve" smooth="yes"/>
      <point x="731" y="362" type="line" smooth="yes"/>
      <point x="731" y="190"/>
      <point x="761" y="70"/>
      <point x="821" y="0" type="curve"/>
      <point x="856" y="0" type="line"/>
      <point x="856" y="6" type="line"/>
      <point x="798" y="75"/>
      <point x="766" y="195"/>
      <point x="766" y="364" type="curve" smooth="yes"/>
      <point x="766" y="920" type="line" smooth="yes"/>
      <point x="766" y="1080"/>
      <point x="820" y="1159"/>
      <point x="936" y="1159" type="curve" smooth="yes"/>
      <point x="1051" y="1159"/>
      <point x="1107" y="1080"/>
      <point x="1107" y="920" type="curve" smooth="yes"/>
      <point x="1107" y="650" type="line"/>
      <point x="1123" y="650" type="line"/>
      <point x="1127" y="990" type="line"/>
      <point x="1116" y="1130"/>
      <point x="1044" y="1192"/>
      <point x="936" y="1192" type="curve" smooth="yes"/>
      <point x="794" y="1192"/>
      <point x="731" y="1102"/>
    </contour>
    <contour>
      <point x="435" y="31" type="line"/>
      <point x="391" y="0" type="line"/>
      <point x="856" y="0" type="line"/>
      <point x="829" y="31" type="line"/>
    </contour>
    <contour>
      <point x="1960" y="1076" type="curve"/>
      <point x="1929" y="1076" type="line"/>
      <point x="1929" y="926" type="line" smooth="yes"/>
      <point x="1929" y="811"/>
      <point x="1887" y="760"/>
      <point x="1782" y="760" type="curve" smooth="yes"/>
      <point x="1701" y="760" type="line"/>
      <point x="1695" y="729" type="line"/>
      <point x="1786" y="729" type="line" smooth="yes"/>
      <point x="1905" y="729"/>
      <point x="1964" y="789"/>
      <point x="1964" y="920" type="curve" smooth="yes"/>
      <point x="1964" y="981"/>
      <point x="1962" y="1018"/>
    </contour>
  </outline>
</glyph>
<glyph name="threesixteenths.mlm" format="2">
  <advance width="2346"/>
  <unicode hex="0D78"/>
  <outline>
    <contour>
      <point x="261" y="385" type="line"/>
      <point x="296" y="385" type="line"/>
      <point x="296" y="1168" type="line"/>
      <point x="261" y="1168" type="line"/>
    </contour>
    <contour>
      <point x="106" y="-13" type="curve" smooth="yes"/>
      <point x="206" y="-13"/>
      <point x="259" y="46"/>
      <point x="277" y="156" type="curve"/>
      <point x="288" y="156" type="line"/>
      <point x="288" y="477" type="line"/>
      <point x="261" y="523" type="line"/>
      <point x="261" y="256" type="line" smooth="yes"/>
      <point x="261" y="98"/>
      <point x="211" y="20"/>
      <point x="106" y="20" type="curve" smooth="yes"/>
      <point x="70" y="20"/>
      <point x="36" y="26"/>
      <point x="0" y="37" type="curve"/>
      <point x="12" y="0" type="line"/>
      <point x="46" y="-9"/>
      <point x="73" y="-13"/>
    </contour>
    <contour>
      <point x="1462" y="1192" type="curve" smooth="yes"/>
      <point x="1326" y="1192"/>
      <point x="1262" y="1104"/>
      <point x="1262" y="929" type="curve" smooth="yes"/>
      <point x="1262" y="736"/>
      <point x="1291" y="443"/>
      <point x="1291" y="250" type="curve" smooth="yes"/>
      <point x="1291" y="96"/>
      <point x="1240" y="20"/>
      <point x="1126" y="20" type="curve" smooth="yes"/>
      <point x="1012" y="20"/>
      <point x="960" y="96"/>
      <point x="960" y="250" type="curve" smooth="yes"/>
      <point x="960" y="443"/>
      <point x="990" y="736"/>
      <point x="990" y="929" type="curve" smooth="yes"/>
      <point x="990" y="1104"/>
      <point x="925" y="1192"/>
      <point x="791" y="1192" type="curve" smooth="yes"/>
      <point x="656" y="1192"/>
      <point x="592" y="1104"/>
      <point x="592" y="929" type="curve" smooth="yes"/>
      <point x="592" y="736"/>
      <point x="622" y="443"/>
      <point x="622" y="250" type="curve" smooth="yes"/>
      <point x="622" y="96"/>
      <point x="570" y="20"/>
      <point x="456" y="20" type="curve" smooth="yes"/>
      <point x="347" y="20"/>
      <point x="296" y="98"/>
      <point x="296" y="256" type="curve" smooth="yes"/>
      <point x="296" y="523" type="line"/>
      <point x="268" y="477" type="line"/>
      <point x="279" y="156" type="line"/>
      <point x="298" y="46"/>
      <point x="353" y="-13"/>
      <point x="456" y="-13" type="curve" smooth="yes"/>
      <point x="592" y="-13"/>
      <point x="656" y="75"/>
      <point x="656" y="250" type="curve" smooth="yes"/>
      <point x="656" y="443"/>
      <point x="627" y="736"/>
      <point x="627" y="929" type="curve" smooth="yes"/>
      <point x="627" y="1084"/>
      <point x="679" y="1159"/>
      <point x="791" y="1159" type="curve" smooth="yes"/>
      <point x="903" y="1159"/>
      <point x="955" y="1084"/>
      <point x="955" y="929" type="curve" smooth="yes"/>
      <point x="955" y="736"/>
      <point x="925" y="443"/>
      <point x="925" y="250" type="curve" smooth="yes"/>
      <point x="925" y="75"/>
      <point x="990" y="-13"/>
      <point x="1126" y="-13" type="curve" smooth="yes"/>
      <point x="1262" y="-13"/>
      <point x="1326" y="75"/>
      <point x="1326" y="250" type="curve" smooth="yes"/>
      <point x="1326" y="443"/>
      <point x="1297" y="736"/>
      <point x="1297" y="929" type="curve" smooth="yes"/>
      <point x="1297" y="1084"/>
      <point x="1348" y="1159"/>
      <point x="1462" y="1159" type="curve" smooth="yes"/>
      <point x="1578" y="1159"/>
      <point x="1634" y="1080"/>
      <point x="1634" y="920" type="curve" smooth="yes"/>
      <point x="1634" y="650" type="line"/>
      <point x="1650" y="650" type="line"/>
      <point x="1657" y="964" type="line"/>
      <point x="1650" y="1130"/>
      <point x="1575" y="1192"/>
    </contour>
    <contour>
      <point x="1928" y="1192" type="curve" smooth="yes"/>
      <point x="1784" y="1192"/>
      <point x="1686" y="1119"/>
      <point x="1659" y="964" type="curve"/>
      <point x="1646" y="964" type="line"/>
      <point x="1634" y="738" type="line"/>
      <point x="1634" y="0" type="line"/>
      <point x="1668" y="0" type="line"/>
      <point x="1668" y="813" type="line" smooth="yes"/>
      <point x="1668" y="1043"/>
      <point x="1750" y="1159"/>
      <point x="1928" y="1159" type="curve" smooth="yes"/>
      <point x="2106" y="1159"/>
      <point x="2187" y="1043"/>
      <point x="2187" y="813" type="curve" smooth="yes"/>
      <point x="2187" y="0" type="line"/>
      <point x="2222" y="0" type="line"/>
      <point x="2222" y="813" type="line" smooth="yes"/>
      <point x="2222" y="1063"/>
      <point x="2130" y="1192"/>
    </contour>
    <contour>
      <point x="1650" y="31" type="line"/>
      <point x="1648" y="0" type="line"/>
      <point x="2213" y="0" type="line"/>
      <point x="2213" y="31" type="line"/>
    </contour>
    <contour>
      <point x="1976.13" y="769" type="line" smooth="yes"/>
      <point x="1976.13" y="974.732"/>
      <point x="1912.13" y="1073"/>
      <point x="1778.13" y="1073" type="curve" smooth="yes"/>
      <point x="1752.13" y="1073"/>
      <point x="1724.13" y="1067"/>
      <point x="1696.13" y="1055" type="curve"/>
      <point x="1692.13" y="1024" type="line"/>
      <point x="1721.21" y="1037.6"/>
      <point x="1748.21" y="1041"/>
      <point x="1773.13" y="1041" type="curve" smooth="yes"/>
      <point x="1888.66" y="1041"/>
      <point x="1941.13" y="955.421"/>
      <point x="1941.13" y="767" type="curve" smooth="yes"/>
      <point x="1941.13" y="714" type="line" smooth="yes"/>
      <point x="1941.13" y="425.579"/>
      <point x="1871.13" y="218.534"/>
      <point x="1728.13" y="29" type="curve"/>
      <point x="1759.13" y="17" type="line"/>
      <point x="1900.13" y="196.156"/>
      <point x="1976.13" y="421.644"/>
      <point x="1976.13" y="712" type="curve" smooth="yes"/>
    </contour>
  </outline>
</glyph>
<glyph name="chilluN.mlm" format="2">
  <advance width="1245"/>
  <unicode hex="0D7B"/>
  <outline>
    <contour>
      <point x="492" y="788" type="line"/>
      <point x="492" y="2" type="line"/>
      <point x="527" y="2" type="line"/>
      <point x="527" y="788" type="line"/>
    </contour>
    <contour>
      <point x="319" y="1159" type="curve" smooth="yes"/>
      <point x="436" y="1159"/>
      <point x="492" y="1080"/>
      <point x="492" y="920" type="curve" smooth="yes"/>
      <point x="492" y="650" type="line"/>
      <point x="508" y="650" type="line"/>
      <point x="512" y="990" type="line"/>
      <point x="501" y="1130"/>
      <point x="429" y="1192"/>
      <point x="319" y="1192" type="curve" smooth="yes"/>
      <point x="175" y="1192"/>
      <point x="113" y="1102"/>
      <point x="113" y="920" type="curve" smooth="yes"/>
      <point x="113" y="362" type="line" smooth="yes"/>
      <point x="113" y="190"/>
      <point x="140" y="70"/>
      <point x="199" y="0" type="curve"/>
      <point x="241" y="0" type="line"/>
      <point x="181" y="70"/>
      <point x="148" y="191"/>
      <point x="148" y="364" type="curve" smooth="yes"/>
      <point x="148" y="920" type="line" smooth="yes"/>
      <point x="148" y="1080"/>
      <point x="201" y="1159"/>
    </contour>
    <contour>
      <point x="885" y="1185" type="line" smooth="yes"/>
      <point x="858" y="1192"/>
      <point x="830" y="1192"/>
      <point x="799" y="1192" type="curve" smooth="yes"/>
      <point x="630" y="1192"/>
      <point x="539" y="1115"/>
      <point x="515" y="990" type="curve"/>
      <point x="501" y="990" type="line"/>
      <point x="501" y="672" type="line"/>
      <point x="527" y="672" type="line"/>
      <point x="527" y="881" type="line" smooth="yes"/>
      <point x="527" y="1067"/>
      <point x="620" y="1159"/>
      <point x="799" y="1159" type="curve" smooth="yes"/>
      <point x="826" y="1159"/>
      <point x="850" y="1157"/>
      <point x="874" y="1154" type="curve"/>
      <point x="891" y="1150" type="line" smooth="yes"/>
      <point x="1033" y="1115"/>
      <point x="1099" y="990"/>
      <point x="1099" y="778" type="curve" smooth="yes"/>
      <point x="1099" y="223" type="line" smooth="yes"/>
      <point x="1099" y="90"/>
      <point x="1055" y="24"/>
      <point x="957" y="24" type="curve" smooth="yes"/>
      <point x="860" y="24"/>
      <point x="814" y="90"/>
      <point x="814" y="223" type="curve" smooth="yes"/>
      <point x="814" y="718" type="line" smooth="yes"/>
      <point x="814" y="920"/>
      <point x="843" y="1025"/>
      <point x="904" y="1159" type="curve"/>
      <point x="906" y="1163"/>
      <point x="906" y="1168"/>
      <point x="907" y="1172" type="curve"/>
      <point x="922" y="1211"/>
      <point x="928" y="1249"/>
      <point x="928" y="1295" type="curve" smooth="yes"/>
      <point x="928" y="1356"/>
      <point x="917" y="1413"/>
      <point x="891" y="1468" type="curve"/>
      <point x="852" y="1468" type="line"/>
      <point x="880" y="1413"/>
      <point x="893" y="1356"/>
      <point x="893" y="1295" type="curve" smooth="yes"/>
      <point x="893" y="1253"/>
      <point x="887" y="1216"/>
      <point x="874" y="1181" type="curve" smooth="yes"/>
      <point x="872" y="1176"/>
      <point x="872" y="1170"/>
      <point x="869" y="1165" type="curve"/>
      <point x="808" y="1032"/>
      <point x="779" y="929"/>
      <point x="779" y="721" type="curve" smooth="yes"/>
      <point x="779" y="223" type="line" smooth="yes"/>
      <point x="779" y="68"/>
      <point x="836" y="-9"/>
      <point x="957" y="-9" type="curve" smooth="yes"/>
      <point x="1079" y="-9"/>
      <point x="1134" y="68"/>
      <point x="1134" y="223" type="curve" smooth="yes"/>
      <point x="1134" y="778" type="line" smooth="yes"/>
      <point x="1134" y="1008"/>
      <point x="1058" y="1143"/>
      <point x="900" y="1181" type="curve" smooth="yes"/>
    </contour>
  </outline>
</glyph>
<glyph name="chilluL.mlm" format="2">
  <advance width="1412"/>
  <unicode hex="0D7D"/>
  <outline>
    <contour>
      <point x="1266" y="723" type="curve" smooth="yes"/>
      <point x="1266" y="223" type="line" smooth="yes"/>
      <point x="1266" y="90"/>
      <point x="1222" y="24"/>
      <point x="1124" y="24" type="curve" smooth="yes"/>
      <point x="1027" y="24"/>
      <point x="981" y="90"/>
      <point x="981" y="223" type="curve" smooth="yes"/>
      <point x="981" y="707" type="line" smooth="yes"/>
      <point x="981" y="909"/>
      <point x="1029" y="1014"/>
      <point x="1089" y="1122" type="curve"/>
      <point x="1090" y="1123"/>
      <point x="1094" y="1131"/>
      <point x="1095" y="1132" type="curve"/>
      <point x="1119" y="1181"/>
      <point x="1135" y="1233"/>
      <point x="1135" y="1295" type="curve" smooth="yes"/>
      <point x="1135" y="1358"/>
      <point x="1124" y="1411"/>
      <point x="1098" y="1468" type="curve"/>
      <point x="1060" y="1468" type="line"/>
      <point x="1087" y="1411"/>
      <point x="1100" y="1358"/>
      <point x="1100" y="1295" type="curve" smooth="yes"/>
      <point x="1100" y="1238"/>
      <point x="1086" y="1190"/>
      <point x="1065" y="1144" type="curve"/>
      <point x="1065" y="1144"/>
      <point x="1060" y="1138"/>
      <point x="1060" y="1137" type="curve"/>
      <point x="999" y="1029"/>
      <point x="946" y="926"/>
      <point x="946" y="710" type="curve" smooth="yes"/>
      <point x="946" y="223" type="line" smooth="yes"/>
      <point x="946" y="68"/>
      <point x="1003" y="-9"/>
      <point x="1124" y="-9" type="curve" smooth="yes"/>
      <point x="1246" y="-9"/>
      <point x="1301" y="68"/>
      <point x="1301" y="223" type="curve" smooth="yes"/>
      <point x="1301" y="723" type="line" smooth="yes"/>
      <point x="1301" y="935"/>
      <point x="1233" y="1078"/>
      <point x="1089" y="1144" type="curve"/>
      <point x="1078" y="1150" type="line"/>
      <point x="1018" y="1178"/>
      <point x="946" y="1192"/>
      <point x="863" y="1192" type="curve" smooth="yes"/>
      <point x="764" y="1192"/>
      <point x="681" y="1172"/>
      <point x="618" y="1137" type="curve" smooth="yes"/>
      <point x="602" y="1128" type="line"/>
      <point x="473" y="1049"/>
      <point x="423" y="898"/>
      <point x="423" y="723" type="curve" smooth="yes"/>
      <point x="423" y="223" type="line" smooth="yes"/>
      <point x="423" y="68"/>
      <point x="480" y="-9"/>
      <point x="602" y="-9" type="curve" smooth="yes"/>
      <point x="721" y="-9"/>
      <point x="780" y="68"/>
      <point x="780" y="223" type="curve" smooth="yes"/>
      <point x="780" y="760" type="line" smooth="yes"/>
      <point x="780" y="920"/>
      <point x="742" y="1056"/>
      <point x="642" y="1130" type="curve"/>
      <point x="629" y="1141" type="line"/>
      <point x="580" y="1174"/>
      <point x="515" y="1192"/>
      <point x="434" y="1192" type="curve" smooth="yes"/>
      <point x="219" y="1192"/>
      <point x="112" y="1058"/>
      <point x="112" y="797" type="curve" smooth="yes"/>
      <point x="112" y="362" type="line" smooth="yes"/>
      <point x="112" y="190"/>
      <point x="140" y="70"/>
      <point x="199" y="0" type="curve"/>
      <point x="241" y="0" type="line"/>
      <point x="180" y="70"/>
      <point x="147" y="191"/>
      <point x="147" y="364" type="curve" smooth="yes"/>
      <point x="147" y="797" type="line" smooth="yes"/>
      <point x="147" y="1038"/>
      <point x="239" y="1159"/>
      <point x="434" y="1159" type="curve" smooth="yes"/>
      <point x="500" y="1159"/>
      <point x="556" y="1146"/>
      <point x="598" y="1122" type="curve"/>
      <point x="613" y="1113" type="line"/>
      <point x="712" y="1047"/>
      <point x="745" y="911"/>
      <point x="745" y="760" type="curve" smooth="yes"/>
      <point x="745" y="223" type="line" smooth="yes"/>
      <point x="745" y="90"/>
      <point x="699" y="24"/>
      <point x="602" y="24" type="curve" smooth="yes"/>
      <point x="504" y="24"/>
      <point x="458" y="90"/>
      <point x="458" y="223" type="curve" smooth="yes"/>
      <point x="458" y="723" type="line" smooth="yes"/>
      <point x="458" y="892"/>
      <point x="500" y="1038"/>
      <point x="635" y="1111" type="curve"/>
      <point x="648" y="1117" type="line" smooth="yes"/>
      <point x="703" y="1143"/>
      <point x="776" y="1159"/>
      <point x="863" y="1159" type="curve" smooth="yes"/>
      <point x="940" y="1159"/>
      <point x="1006" y="1146"/>
      <point x="1062" y="1122" type="curve"/>
      <point x="1071" y="1119" type="line"/>
      <point x="1205" y="1060"/>
      <point x="1266" y="929"/>
    </contour>
  </outline>
</glyph>
<glyph name="endash" format="2">
  <advance width="689"/>
  <unicode hex="2013"/>
  <outline>
    <contour>
      <point x="578" y="521" type="line"/>
      <point x="578" y="554" type="line"/>
      <point x="111" y="554" type="line"/>
      <point x="111" y="521" type="line"/>
    </contour>
  </outline>
</glyph>
<glyph name="fraction" format="2">
  <advance width="185"/>
  <unicode hex="2044"/>
  <outline>
    <contour>
      <point x="-93" y="0" type="line"/>
      <point x="315" y="1278" type="line"/>
      <point x="278" y="1278" type="line"/>
      <point x="-130" y="0" type="line"/>
    </contour>
  </outline>
</glyph>
<glyph name="BaBa.mlm" format="2">
  <advance width="1558"/>
  <outline>
    <component base="Ba.mlm"/>
    <contour>
      <point x="1396" y="17" type="line"/>
      <point x="1396" y="-386" type="line"/>
      <point x="1431" y="-386" type="line"/>
      <point x="1431" y="17" type="line"/>
    </contour>
    <contour>
      <point x="917" y="-355" type="line"/>
      <point x="1037" y="-282"/>
      <point x="1169" y="-137"/>
      <point x="1201" y="7" type="curve"/>
      <point x="1164" y="7" type="line"/>
      <point x="1132" y="-143"/>
      <point x="990" y="-280"/>
      <point x="860" y="-355" type="curve"/>
      <point x="868" y="-386" type="line"/>
      <point x="1401" y="-386" type="line"/>
      <point x="1420" y="-355" type="line"/>
    </contour>
  </outline>
</glyph>
<glyph name="BaDa.mlm" format="2">
  <advance width="1558"/>
  <outline>
    <component base="Ba.mlm"/>
    <contour>
      <point x="1386" y="-105" type="line"/>
      <point x="1386" y="-25"/>
      <point x="1336" y="26"/>
      <point x="1230" y="26" type="curve" smooth="yes"/>
      <point x="1117" y="26"/>
      <point x="1065" y="-32"/>
      <point x="1065" y="-142" type="curve" smooth="yes"/>
      <point x="1065" y="-283" type="line" smooth="yes"/>
      <point x="1065" y="-353"/>
      <point x="1075" y="-402"/>
      <point x="1091" y="-432" type="curve"/>
      <point x="1124" y="-432" type="line"/>
      <point x="1106" y="-397"/>
      <point x="1097" y="-346"/>
      <point x="1097" y="-283" type="curve" smooth="yes"/>
      <point x="1097" y="-142" type="line" smooth="yes"/>
      <point x="1097" y="-49"/>
      <point x="1135" y="0"/>
      <point x="1230" y="0" type="curve" smooth="yes"/>
      <point x="1319" y="0"/>
      <point x="1354" y="-40"/>
      <point x="1354" y="-105" type="curve"/>
      <point x="1354" y="-107" type="line"/>
      <point x="1354" y="-155"/>
      <point x="1328" y="-188"/>
      <point x="1260" y="-190" type="curve" smooth="yes"/>
      <point x="1221" y="-191" type="line"/>
      <point x="1221" y="-218" type="line"/>
      <point x="1260" y="-219" type="line" smooth="yes"/>
      <point x="1333" y="-221"/>
      <point x="1362" y="-251"/>
      <point x="1362" y="-315" type="curve"/>
      <point x="1362" y="-316" type="line"/>
      <point x="1362" y="-378"/>
      <point x="1326" y="-407"/>
      <point x="1253" y="-407" type="curve" smooth="yes"/>
      <point x="1242" y="-407"/>
      <point x="1223" y="-407"/>
      <point x="1211" y="-407" type="curve"/>
      <point x="1221" y="-436" type="line"/>
      <point x="1232" y="-436"/>
      <point x="1249" y="-436"/>
      <point x="1258" y="-436" type="curve" smooth="yes"/>
      <point x="1347" y="-436"/>
      <point x="1394" y="-397"/>
      <point x="1394" y="-316" type="curve"/>
      <point x="1394" y="-315" type="line"/>
      <point x="1394" y="-251"/>
      <point x="1367" y="-218"/>
      <point x="1315" y="-204" type="curve"/>
      <point x="1315" y="-203" type="line"/>
      <point x="1360" y="-190"/>
      <point x="1386" y="-156"/>
      <point x="1386" y="-107" type="curve"/>
    </contour>
  </outline>
</glyph>
<glyph name="BaLa.mlm" format="2">
  <advance width="1556"/>
  <outline>
    <component base="Ba.mlm"/>
    <contour>
      <point x="980" y="29" type="curve" smooth="yes"/>
      <point x="839.678" y="29"/>
      <point x="773" y="-43"/>
      <point x="773" y="-189" type="curve" smooth="yes"/>
      <point x="773" y="-314" type="line" smooth="yes"/>
      <point x="773" y="-397"/>
      <point x="813" y="-441"/>
      <point x="890" y="-441" type="curve" smooth="yes"/>
      <point x="969" y="-441"/>
      <point x="1007" y="-397"/>
      <point x="1007" y="-314" type="curve" smooth="yes"/>
      <point x="1007" y="-259" type="line" smooth="yes"/>
      <point x="1007" y="-178"/>
      <point x="969" y="-133"/>
      <point x="902" y="-133" type="curve" smooth="yes"/>
      <point x="841" y="-133"/>
      <point x="804" y="-167"/>
      <point x="787" y="-224" type="curve"/>
      <point x="803" y="-230" type="line"/>
      <point x="820" y="-182"/>
      <point x="856" y="-164"/>
      <point x="895" y="-164" type="curve" smooth="yes"/>
      <point x="952" y="-164"/>
      <point x="976" y="-199"/>
      <point x="976" y="-259" type="curve" smooth="yes"/>
      <point x="976" y="-316" type="line" smooth="yes"/>
      <point x="976" y="-379"/>
      <point x="948" y="-412"/>
      <point x="890" y="-412" type="curve" smooth="yes"/>
      <point x="832" y="-412"/>
      <point x="805" y="-379"/>
      <point x="805" y="-316" type="curve" smooth="yes"/>
      <point x="805" y="-210" type="line"/>
      <point x="813.348" y="-184.396" type="line"/>
      <point x="805.01" y="-184.073" type="line"/>
      <point x="804.874" y="-60.0553"/>
      <point x="861.91" y="0"/>
      <point x="978" y="0" type="curve" smooth="yes"/>
      <point x="1095" y="0"/>
      <point x="1151" y="-64"/>
      <point x="1151" y="-194" type="curve" smooth="yes"/>
      <point x="1151" y="-280" type="line" smooth="yes"/>
      <point x="1151" y="-384"/>
      <point x="1196" y="-441"/>
      <point x="1293" y="-441" type="curve" smooth="yes"/>
      <point x="1391" y="-441"/>
      <point x="1436" y="-384"/>
      <point x="1436" y="-280" type="curve" smooth="yes"/>
      <point x="1436" y="-190" type="line" smooth="yes"/>
      <point x="1436" y="-98"/>
      <point x="1417" y="-36"/>
      <point x="1382" y="6" type="curve"/>
      <point x="1347" y="6" type="line"/>
      <point x="1385" y="-37"/>
      <point x="1403" y="-107"/>
      <point x="1403" y="-192" type="curve" smooth="yes"/>
      <point x="1403" y="-280" type="line" smooth="yes"/>
      <point x="1403" y="-368"/>
      <point x="1368" y="-412"/>
      <point x="1293" y="-412" type="curve" smooth="yes"/>
      <point x="1219" y="-412"/>
      <point x="1183" y="-368"/>
      <point x="1183" y="-280" type="curve" smooth="yes"/>
      <point x="1183" y="-196" type="line" smooth="yes"/>
      <point x="1183" y="-88"/>
      <point x="1148" y="-20"/>
      <point x="1074" y="9" type="curve"/>
      <point x="1068" y="11"/>
      <point x="1062" y="12"/>
      <point x="1056" y="15" type="curve"/>
      <point x="1034" y="24"/>
      <point x="1009" y="29"/>
    </contour>
  </outline>
</glyph>
<glyph name="CaCa.mlm" format="2">
  <advance width="935"/>
  <outline>
    <component base="Ca.mlm"/>
    <contour>
      <point x="773" y="17" type="line"/>
      <point x="773" y="-386" type="line"/>
      <point x="808" y="-386" type="line"/>
      <point x="808" y="17" type="line"/>
    </contour>
    <contour>
      <point x="294" y="-355" type="line"/>
      <point x="414" y="-282"/>
      <point x="546" y="-137"/>
      <point x="578" y="7" type="curve"/>
      <point x="541" y="7" type="line"/>
      <point x="509" y="-143"/>
      <point x="367" y="-280"/>
      <point x="237" y="-355" type="curve"/>
      <point x="245" y="-386" type="line"/>
      <point x="778" y="-386" type="line"/>
      <point x="797" y="-355" type="line"/>
    </contour>
  </outline>
</glyph>
<glyph name="DaDa.mlm" format="2">
  <advance width="685"/>
  <outline>
    <contour>
      <point x="586" y="383" type="curve" smooth="yes"/>
      <point x="586" y="408" type="line" smooth="yes"/>
      <point x="586" y="554"/>
      <point x="538" y="629"/>
      <point x="433" y="644" type="curve"/>
      <point x="433" y="646" type="line"/>
      <point x="531" y="661"/>
      <point x="575" y="736"/>
      <point x="575" y="878" type="curve" smooth="yes"/>
      <point x="575" y="900" type="line" smooth="yes"/>
      <point x="575" y="1091"/>
      <point x="501" y="1192"/>
      <point x="343" y="1192" type="curve" smooth="yes"/>
      <point x="185" y="1192"/>
      <point x="113" y="1091"/>
      <point x="113" y="900" type="curve" smooth="yes"/>
      <point x="113" y="294" type="line" smooth="yes"/>
      <point x="113" y="151"/>
      <point x="130" y="57"/>
      <point x="157" y="0" type="curve"/>
      <point x="196" y="0" type="line"/>
      <point x="167" y="59"/>
      <point x="148" y="153"/>
      <point x="148" y="296" type="curve" smooth="yes"/>
      <point x="148" y="900" type="line" smooth="yes"/>
      <point x="148" y="1069"/>
      <point x="209" y="1159"/>
      <point x="343" y="1159" type="curve" smooth="yes"/>
      <point x="478" y="1159"/>
      <point x="540" y="1069"/>
      <point x="540" y="900" type="curve" smooth="yes"/>
      <point x="540" y="878" type="line" smooth="yes"/>
      <point x="540" y="727"/>
      <point x="487" y="664"/>
      <point x="371" y="659" type="curve" smooth="yes"/>
      <point x="325" y="657" type="line"/>
      <point x="325" y="628" type="line"/>
      <point x="378" y="627" type="line" smooth="yes"/>
      <point x="501" y="625"/>
      <point x="551" y="554"/>
      <point x="551" y="410" type="curve" smooth="yes"/>
      <point x="551" y="381" type="line" smooth="yes"/>
      <point x="551" y="237"/>
      <point x="501" y="169"/>
      <point x="378" y="164" type="curve" smooth="yes"/>
      <point x="325" y="162" type="line"/>
      <point x="325" y="133" type="line"/>
      <point x="378" y="132" type="line" smooth="yes"/>
      <point x="501" y="130"/>
      <point x="551" y="63"/>
      <point x="551" y="-75" type="curve" smooth="yes"/>
      <point x="551" y="-109" type="line" smooth="yes"/>
      <point x="551" y="-250"/>
      <point x="496" y="-316"/>
      <point x="373" y="-316" type="curve" smooth="yes"/>
      <point x="343" y="-316"/>
      <point x="303" y="-311"/>
      <point x="277" y="-305" type="curve"/>
      <point x="286" y="-340" type="line"/>
      <point x="312" y="-346"/>
      <point x="349" y="-350"/>
      <point x="376" y="-350" type="curve" smooth="yes"/>
      <point x="520" y="-350"/>
      <point x="586" y="-272"/>
      <point x="586" y="-110" type="curve" smooth="yes"/>
      <point x="586" y="-77" type="line" smooth="yes"/>
      <point x="586" y="59"/>
      <point x="542" y="129"/>
      <point x="443" y="147" type="curve"/>
      <point x="443" y="149" type="line"/>
      <point x="542" y="167"/>
      <point x="586" y="241"/>
    </contour>
  </outline>
</glyph>
<glyph name="DaDha.mlm" format="2">
  <advance width="1355"/>
  <outline>
    <contour>
      <point x="870" y="385" type="line"/>
      <point x="870" y="1168" type="line"/>
      <point x="835" y="1168" type="line"/>
      <point x="835" y="385" type="line"/>
    </contour>
    <contour>
      <point x="835" y="523" type="line"/>
      <point x="835" y="250" type="line" smooth="yes"/>
      <point x="835" y="103"/>
      <point x="779" y="31"/>
      <point x="665" y="31" type="curve" smooth="yes"/>
      <point x="367" y="31" type="line"/>
      <point x="371" y="0" type="line"/>
      <point x="665" y="0" type="line" smooth="yes"/>
      <point x="770" y="0"/>
      <point x="836" y="57"/>
      <point x="852" y="156" type="curve"/>
      <point x="862" y="156" type="line"/>
      <point x="862" y="477" type="line"/>
    </contour>
    <contour>
      <point x="343" y="1192" type="curve" smooth="yes"/>
      <point x="185" y="1192"/>
      <point x="113" y="1091"/>
      <point x="113" y="900" type="curve" smooth="yes"/>
      <point x="113" y="294" type="line" smooth="yes"/>
      <point x="113" y="151"/>
      <point x="130" y="57"/>
      <point x="157" y="0" type="curve"/>
      <point x="196" y="0" type="line"/>
      <point x="167" y="59"/>
      <point x="148" y="153"/>
      <point x="148" y="296" type="curve" smooth="yes"/>
      <point x="148" y="900" type="line" smooth="yes"/>
      <point x="148" y="1069"/>
      <point x="209" y="1159"/>
      <point x="343" y="1159" type="curve" smooth="yes"/>
      <point x="478" y="1159"/>
      <point x="540" y="1069"/>
      <point x="540" y="900" type="curve" smooth="yes"/>
      <point x="540" y="835" type="line" smooth="yes"/>
      <point x="540" y="684"/>
      <point x="487" y="619"/>
      <point x="371" y="616" type="curve" smooth="yes"/>
      <point x="333" y="615" type="line"/>
      <point x="333" y="586" type="line"/>
      <point x="378" y="585" type="line" smooth="yes"/>
      <point x="501" y="582"/>
      <point x="551" y="512"/>
      <point x="551" y="368" type="curve" smooth="yes"/>
      <point x="551" y="252" type="line" smooth="yes"/>
      <point x="551" y="101"/>
      <point x="501" y="31"/>
      <point x="391" y="31" type="curve" smooth="yes"/>
      <point x="325" y="31" type="line"/>
      <point x="330" y="0" type="line"/>
      <point x="387" y="0" type="line"/>
      <point x="395" y="9" type="line"/>
      <point x="525" y="9"/>
      <point x="586" y="86"/>
      <point x="586" y="250" type="curve" smooth="yes"/>
      <point x="586" y="366" type="line" smooth="yes"/>
      <point x="586" y="512"/>
      <point x="538" y="587"/>
      <point x="433" y="602" type="curve"/>
      <point x="433" y="604" type="line"/>
      <point x="531" y="618"/>
      <point x="575" y="694"/>
      <point x="575" y="835" type="curve" smooth="yes"/>
      <point x="575" y="900" type="line" smooth="yes"/>
      <point x="575" y="1091"/>
      <point x="501" y="1192"/>
    </contour>
    <contour>
      <point x="853" y="156" type="line"/>
      <point x="870" y="48"/>
      <point x="934" y="-13"/>
      <point x="1039" y="-13" type="curve" smooth="yes"/>
      <point x="1181" y="-13"/>
      <point x="1242" y="75"/>
      <point x="1242" y="256" type="curve" smooth="yes"/>
      <point x="1242" y="806" type="line" smooth="yes"/>
      <point x="1242" y="981"/>
      <point x="1209" y="1102"/>
      <point x="1148" y="1172" type="curve"/>
      <point x="1107" y="1172" type="line"/>
      <point x="1170" y="1102"/>
      <point x="1207" y="979"/>
      <point x="1207" y="804" type="curve" smooth="yes"/>
      <point x="1207" y="256" type="line" smooth="yes"/>
      <point x="1207" y="98"/>
      <point x="1157" y="20"/>
      <point x="1039" y="20" type="curve" smooth="yes"/>
      <point x="925" y="20"/>
      <point x="870" y="98"/>
      <point x="870" y="256" type="curve" smooth="yes"/>
      <point x="870" y="523" type="line"/>
      <point x="853" y="523" type="line"/>
    </contour>
  </outline>
</glyph>
<glyph name="Ek" format="2">
  <advance width="1993"/>
  <outline>
    <contour>
      <point x="1391.07" y="1055.2" type="line"/>
      <point x="2052.91" y="1055.2" type="line"/>
      <point x="2035.67" y="1286.99" type="line"/>
      <point x="-60" y="1286.99" type="line"/>
      <point x="-42.7596" y="1055.2" type="line"/>
      <point x="85.5856" y="1055.2" type="line"/>
      <point x="85.5856" y="542.781" type="line" smooth="yes"/>
      <point x="85.5856" y="-20.7852"/>
      <point x="389.584" y="-281.621"/>
      <point x="1061" y="-281.621" type="curve" smooth="yes"/>
      <point x="1211.34" y="-281.621"/>
      <point x="1373.8" y="-267.4"/>
      <point x="1545.27" y="-233.037" type="curve"/>
      <point x="1574.01" y="36.1044" type="line"/>
      <point x="1393.71" y="6.39909"/>
      <point x="1227.84" y="-10.0047"/>
      <point x="1080.45" y="-10.0047" type="curve" smooth="yes"/>
      <point x="612.575" y="-10.0047"/>
      <point x="405.491" y="159.904"/>
      <point x="405.491" y="544.696" type="curve" smooth="yes"/>
      <point x="405.491" y="1055.2" type="line"/>
      <point x="1078.82" y="1055.2" type="line"/>
      <point x="1078.66" y="542.576" type="line"/>
      <point x="1060.87" y="492.661"/>
      <point x="1016.09" y="461.903"/>
      <point x="944.298" y="461.903" type="curve" smooth="yes"/>
      <point x="858.055" y="461.903"/>
      <point x="823.558" y="495.128"/>
      <point x="823.558" y="579.113" type="curve" smooth="yes"/>
      <point x="823.558" y="593.538" type="line" smooth="yes"/>
      <point x="823.558" y="674.334"/>
      <point x="857.147" y="710.647"/>
      <point x="943.39" y="710.647" type="curve" smooth="yes"/>
      <point x="967.902" y="710.647"/>
      <point x="985.15" y="708.832"/>
      <point x="1004.21" y="705.15" type="curve"/>
      <point x="986.966" y="941.235" type="line"/>
      <point x="950.653" y="952.128"/>
      <point x="904.354" y="958.483"/>
      <point x="849.884" y="958.483" type="curve" smooth="yes"/>
      <point x="623.836" y="958.483"/>
      <point x="507.635" y="843.19"/>
      <point x="507.635" y="595.354" type="curve" smooth="yes"/>
      <point x="507.635" y="569.127" type="line" smooth="yes"/>
      <point x="507.635" y="323.611"/>
      <point x="620.205" y="210.436"/>
      <point x="819.018" y="210.436" type="curve" smooth="yes"/>
      <point x="967.902" y="210.436"/>
      <point x="1040.53" y="273.076"/>
      <point x="1067.76" y="380.199" type="curve"/>
      <point x="1078.66" y="380.199" type="line"/>
      <point x="1078.66" y="116.93" type="line"/>
      <point x="1390.95" y="116.93" type="line"/>
      <point x="1390.95" y="621.427" type="line"/>
      <point x="1408.56" y="675.133"/>
      <point x="1457.95" y="707.016"/>
      <point x="1524.4" y="707.016" type="curve" smooth="yes"/>
      <point x="1607.92" y="707.016"/>
      <point x="1641.51" y="667.98"/>
      <point x="1641.51" y="588.091" type="curve" smooth="yes"/>
      <point x="1641.51" y="575.381" type="line" smooth="yes"/>
      <point x="1641.51" y="492.769"/>
      <point x="1609.73" y="458.272"/>
      <point x="1525.31" y="458.272" type="curve" smooth="yes"/>
      <point x="1502.61" y="458.272"/>
      <point x="1486.27" y="460.088"/>
      <point x="1465.39" y="462.811" type="curve"/>
      <point x="1483.55" y="225.869" type="line"/>
      <point x="1518.95" y="215.883"/>
      <point x="1563.43" y="210.436"/>
      <point x="1620.63" y="210.436" type="curve" smooth="yes"/>
      <point x="1848.49" y="210.436"/>
      <point x="1957.43" y="325.73"/>
      <point x="1957.43" y="573.566" type="curve" smooth="yes"/>
      <point x="1957.43" y="599.893" type="line" smooth="yes"/>
      <point x="1957.43" y="836.835"/>
      <point x="1855.75" y="958.483"/>
      <point x="1660.57" y="958.483" type="curve" smooth="yes"/>
      <point x="1512.6" y="958.483"/>
      <point x="1430.89" y="892.212"/>
      <point x="1401.84" y="781.458" type="curve"/>
      <point x="1390.95" y="781.458" type="line"/>
    </contour>
  </outline>
</glyph>
<glyph name="GaDa.mlm" format="2">
  <advance width="1024"/>
  <outline>
    <contour>
      <point x="682" y="1192" type="curve" smooth="yes"/>
      <point x="524" y="1192"/>
      <point x="452" y="1091"/>
      <point x="452" y="900" type="curve" smooth="yes"/>
      <point x="452" y="718"/>
      <point x="481" y="432"/>
      <point x="481" y="250" type="curve" smooth="yes"/>
      <point x="481" y="96"/>
      <point x="430" y="20"/>
      <point x="316" y="20" type="curve" smooth="yes"/>
      <point x="202" y="20"/>
      <point x="148" y="96"/>
      <point x="148" y="250" type="curve" smooth="yes"/>
      <point x="148" y="806" type="line" smooth="yes"/>
      <point x="148" y="981"/>
      <point x="185" y="1104"/>
      <point x="248" y="1174" type="curve"/>
      <point x="207" y="1174" type="line"/>
      <point x="146" y="1104"/>
      <point x="113" y="983"/>
      <point x="113" y="808" type="curve" smooth="yes"/>
      <point x="113" y="250" type="line" smooth="yes"/>
      <point x="113" y="75"/>
      <point x="179" y="-13"/>
      <point x="316" y="-13" type="curve" smooth="yes"/>
      <point x="452" y="-13"/>
      <point x="516" y="75"/>
      <point x="516" y="250" type="curve" smooth="yes"/>
      <point x="516" y="432"/>
      <point x="487" y="718"/>
      <point x="487" y="900" type="curve" smooth="yes"/>
      <point x="487" y="1069"/>
      <point x="547" y="1159"/>
      <point x="682" y="1159" type="curve" smooth="yes"/>
      <point x="816" y="1159"/>
      <point x="879" y="1069"/>
      <point x="879" y="900" type="curve" smooth="yes"/>
      <point x="879" y="835" type="line" smooth="yes"/>
      <point x="879" y="684"/>
      <point x="825" y="619"/>
      <point x="709" y="616" type="curve" smooth="yes"/>
      <point x="671" y="615" type="line"/>
      <point x="671" y="586" type="line"/>
      <point x="717" y="585" type="line" smooth="yes"/>
      <point x="840" y="582"/>
      <point x="890" y="512"/>
      <point x="890" y="368" type="curve" smooth="yes"/>
      <point x="890" y="252" type="line" smooth="yes"/>
      <point x="890" y="98"/>
      <point x="835" y="26"/>
      <point x="715" y="26" type="curve" smooth="yes"/>
      <point x="691" y="26"/>
      <point x="666" y="28"/>
      <point x="638" y="33" type="curve"/>
      <point x="647" y="-2" type="line"/>
      <point x="676" y="-7"/>
      <point x="697" y="-7"/>
      <point x="719" y="-7" type="curve" smooth="yes"/>
      <point x="859" y="-7"/>
      <point x="925" y="75"/>
      <point x="925" y="250" type="curve" smooth="yes"/>
      <point x="925" y="366" type="line" smooth="yes"/>
      <point x="925" y="512"/>
      <point x="877" y="587"/>
      <point x="772" y="602" type="curve"/>
      <point x="772" y="604" type="line"/>
      <point x="869" y="618"/>
      <point x="914" y="694"/>
      <point x="914" y="835" type="curve" smooth="yes"/>
      <point x="914" y="900" type="line" smooth="yes"/>
      <point x="914" y="1091"/>
      <point x="840" y="1192"/>
    </contour>
  </outline>
</glyph>
<glyph name="GaDaDha.mlm" format="2">
  <advance width="1693"/>
  <outline>
    <contour>
      <point x="1208" y="385" type="line"/>
      <point x="1208" y="1168" type="line"/>
      <point x="1173" y="1168" type="line"/>
      <point x="1173" y="385" type="line"/>
    </contour>
    <contour>
      <point x="1173" y="523" type="line"/>
      <point x="1173" y="256" type="line" smooth="yes"/>
      <point x="1173" y="105"/>
      <point x="1118" y="31"/>
      <point x="1004" y="31" type="curve" smooth="yes"/>
      <point x="706" y="31" type="line"/>
      <point x="709" y="0" type="line"/>
      <point x="1004" y="0" type="line" smooth="yes"/>
      <point x="1109" y="0"/>
      <point x="1172" y="57"/>
      <point x="1189" y="156" type="curve"/>
      <point x="1201" y="156" type="line"/>
      <point x="1201" y="477" type="line"/>
    </contour>
    <contour>
      <point x="925" y="366" type="line" smooth="yes"/>
      <point x="925" y="512"/>
      <point x="877" y="587"/>
      <point x="772" y="602" type="curve"/>
      <point x="772" y="604" type="line"/>
      <point x="869" y="618"/>
      <point x="914" y="694"/>
      <point x="914" y="835" type="curve" smooth="yes"/>
      <point x="914" y="900" type="line" smooth="yes"/>
      <point x="914" y="1091"/>
      <point x="840" y="1192"/>
      <point x="682" y="1192" type="curve" smooth="yes"/>
      <point x="524" y="1192"/>
      <point x="452" y="1091"/>
      <point x="452" y="900" type="curve" smooth="yes"/>
      <point x="452" y="718"/>
      <point x="481" y="432"/>
      <point x="481" y="250" type="curve" smooth="yes"/>
      <point x="481" y="96"/>
      <point x="430" y="20"/>
      <point x="316" y="20" type="curve" smooth="yes"/>
      <point x="202" y="20"/>
      <point x="148" y="96"/>
      <point x="148" y="250" type="curve" smooth="yes"/>
      <point x="148" y="806" type="line" smooth="yes"/>
      <point x="148" y="981"/>
      <point x="185" y="1104"/>
      <point x="248" y="1174" type="curve"/>
      <point x="207" y="1174" type="line"/>
      <point x="146" y="1104"/>
      <point x="113" y="983"/>
      <point x="113" y="808" type="curve" smooth="yes"/>
      <point x="113" y="250" type="line" smooth="yes"/>
      <point x="113" y="75"/>
      <point x="179" y="-13"/>
      <point x="316" y="-13" type="curve" smooth="yes"/>
      <point x="452" y="-13"/>
      <point x="516" y="75"/>
      <point x="516" y="250" type="curve" smooth="yes"/>
      <point x="516" y="432"/>
      <point x="487" y="718"/>
      <point x="487" y="900" type="curve" smooth="yes"/>
      <point x="487" y="1069"/>
      <point x="547" y="1159"/>
      <point x="682" y="1159" type="curve" smooth="yes"/>
      <point x="816" y="1159"/>
      <point x="879" y="1069"/>
      <point x="879" y="900" type="curve" smooth="yes"/>
      <point x="879" y="835" type="line" smooth="yes"/>
      <point x="879" y="684"/>
      <point x="825" y="619"/>
      <point x="709" y="616" type="curve" smooth="yes"/>
      <point x="671" y="615" type="line"/>
      <point x="671" y="586" type="line"/>
      <point x="717" y="585" type="line" smooth="yes"/>
      <point x="840" y="582"/>
      <point x="890" y="512"/>
      <point x="890" y="368" type="curve" smooth="yes"/>
      <point x="890" y="252" type="line" smooth="yes"/>
      <point x="890" y="101"/>
      <point x="840" y="31"/>
      <point x="730" y="31" type="curve" smooth="yes"/>
      <point x="638" y="31" type="line"/>
      <point x="643" y="0" type="line"/>
      <point x="726" y="0" type="line"/>
      <point x="733" y="9" type="line"/>
      <point x="864" y="9"/>
      <point x="925" y="86"/>
      <point x="925" y="250" type="curve" smooth="yes"/>
    </contour>
    <contour>
      <point x="1191" y="156" type="line"/>
      <point x="1208" y="48"/>
      <point x="1272" y="-13"/>
      <point x="1377" y="-13" type="curve" smooth="yes"/>
      <point x="1519" y="-13"/>
      <point x="1580" y="75"/>
      <point x="1580" y="256" type="curve" smooth="yes"/>
      <point x="1580" y="806" type="line" smooth="yes"/>
      <point x="1580" y="981"/>
      <point x="1547" y="1102"/>
      <point x="1486" y="1172" type="curve"/>
      <point x="1445" y="1172" type="line"/>
      <point x="1508" y="1102"/>
      <point x="1545" y="979"/>
      <point x="1545" y="804" type="curve" smooth="yes"/>
      <point x="1545" y="256" type="line" smooth="yes"/>
      <point x="1545" y="98"/>
      <point x="1495" y="20"/>
      <point x="1377" y="20" type="curve" smooth="yes"/>
      <point x="1263" y="20"/>
      <point x="1208" y="98"/>
      <point x="1208" y="256" type="curve" smooth="yes"/>
      <point x="1208" y="523" type="line"/>
      <point x="1191" y="523" type="line"/>
    </contour>
  </outline>
</glyph>
<glyph name="GaGa.mlm" format="2">
  <advance width="966"/>
  <outline>
    <component base="Ga.mlm"/>
    <contour>
      <point x="556" y="-135" type="line" smooth="yes"/>
      <point x="556" y="-46"/>
      <point x="594" y="-1"/>
      <point x="673" y="-1" type="curve" smooth="yes"/>
      <point x="752" y="-1"/>
      <point x="789" y="-46"/>
      <point x="789" y="-135" type="curve" smooth="yes"/>
      <point x="789" y="-231" type="line" smooth="yes"/>
      <point x="789" y="-318"/>
      <point x="771" y="-382"/>
      <point x="734" y="-432" type="curve"/>
      <point x="772" y="-432" type="line"/>
      <point x="807" y="-384"/>
      <point x="822" y="-324"/>
      <point x="822" y="-231" type="curve" smooth="yes"/>
      <point x="822" y="-135" type="line" smooth="yes"/>
      <point x="822" y="-30"/>
      <point x="775" y="29"/>
      <point x="673" y="29" type="curve" smooth="yes"/>
      <point x="571" y="29"/>
      <point x="524" y="-30"/>
      <point x="524" y="-135" type="curve" smooth="yes"/>
      <point x="524" y="-279" type="line" smooth="yes"/>
      <point x="524" y="-368"/>
      <point x="487" y="-411"/>
      <point x="409" y="-411" type="curve" smooth="yes"/>
      <point x="331" y="-411"/>
      <point x="294" y="-368"/>
      <point x="294" y="-279" type="curve" smooth="yes"/>
      <point x="294" y="-199" type="line" smooth="yes"/>
      <point x="294" y="-112"/>
      <point x="312" y="-39"/>
      <point x="351" y="6" type="curve"/>
      <point x="315" y="6" type="line"/>
      <point x="280" y="-37"/>
      <point x="262" y="-102"/>
      <point x="262" y="-198" type="curve" smooth="yes"/>
      <point x="262" y="-279" type="line" smooth="yes"/>
      <point x="262" y="-384"/>
      <point x="308" y="-441"/>
      <point x="409" y="-441" type="curve" smooth="yes"/>
      <point x="510" y="-441"/>
      <point x="556" y="-384"/>
      <point x="556" y="-279" type="curve" smooth="yes"/>
    </contour>
  </outline>
</glyph>
<glyph name="GaMa.mlm" format="2">
  <advance width="1525"/>
  <outline>
    <contour>
      <point x="652" y="1192" type="curve" smooth="yes"/>
      <point x="516" y="1192"/>
      <point x="452" y="1104"/>
      <point x="452" y="929" type="curve" smooth="yes"/>
      <point x="452" y="736"/>
      <point x="481" y="443"/>
      <point x="481" y="250" type="curve" smooth="yes"/>
      <point x="481" y="96"/>
      <point x="430" y="20"/>
      <point x="316" y="20" type="curve" smooth="yes"/>
      <point x="202" y="20"/>
      <point x="148" y="96"/>
      <point x="148" y="250" type="curve" smooth="yes"/>
      <point x="148" y="806" type="line" smooth="yes"/>
      <point x="148" y="981"/>
      <point x="185" y="1104"/>
      <point x="248" y="1174" type="curve"/>
      <point x="207" y="1174" type="line"/>
      <point x="146" y="1104"/>
      <point x="113" y="983"/>
      <point x="113" y="808" type="curve" smooth="yes"/>
      <point x="113" y="250" type="line" smooth="yes"/>
      <point x="113" y="75"/>
      <point x="179" y="-13"/>
      <point x="316" y="-13" type="curve" smooth="yes"/>
      <point x="452" y="-13"/>
      <point x="516" y="75"/>
      <point x="516" y="250" type="curve" smooth="yes"/>
      <point x="516" y="443"/>
      <point x="487" y="736"/>
      <point x="487" y="929" type="curve" smooth="yes"/>
      <point x="487" y="1084"/>
      <point x="538" y="1159"/>
      <point x="652" y="1159" type="curve" smooth="yes"/>
      <point x="768" y="1159"/>
      <point x="822" y="1080"/>
      <point x="822" y="920" type="curve" smooth="yes"/>
      <point x="822" y="650" type="line"/>
      <point x="838" y="650" type="line"/>
      <point x="845" y="964" type="line"/>
      <point x="838" y="1130"/>
      <point x="764" y="1192"/>
    </contour>
    <contour>
      <point x="833" y="964" type="line"/>
      <point x="822" y="738" type="line"/>
      <point x="822" y="0" type="line"/>
      <point x="857" y="0" type="line"/>
      <point x="857" y="813" type="line" smooth="yes"/>
      <point x="857" y="1043"/>
      <point x="938" y="1159"/>
      <point x="1116" y="1159" type="curve" smooth="yes"/>
      <point x="1287" y="1159"/>
      <point x="1366" y="1043"/>
      <point x="1366" y="813" type="curve" smooth="yes"/>
      <point x="1366" y="0" type="line"/>
      <point x="1401" y="0" type="line"/>
      <point x="1401" y="813" type="line" smooth="yes"/>
      <point x="1401" y="1063"/>
      <point x="1311" y="1192"/>
      <point x="1116" y="1192" type="curve" smooth="yes"/>
      <point x="972" y="1192"/>
      <point x="874" y="1119"/>
      <point x="847" y="964" type="curve"/>
    </contour>
    <contour>
      <point x="838" y="31" type="line"/>
      <point x="836" y="0" type="line"/>
      <point x="1392" y="0" type="line"/>
      <point x="1392" y="31" type="line"/>
    </contour>
    <contour>
      <point x="1165" y="769" type="line" smooth="yes"/>
      <point x="1165" y="974.732"/>
      <point x="1101" y="1073"/>
      <point x="967" y="1073" type="curve" smooth="yes"/>
      <point x="941" y="1073"/>
      <point x="913" y="1067"/>
      <point x="885" y="1055" type="curve"/>
      <point x="881" y="1024" type="line"/>
      <point x="910.077" y="1037.6"/>
      <point x="937.077" y="1041"/>
      <point x="962" y="1041" type="curve" smooth="yes"/>
      <point x="1077.53" y="1041"/>
      <point x="1130" y="955.421"/>
      <point x="1130" y="767" type="curve" smooth="yes"/>
      <point x="1130" y="714" type="line" smooth="yes"/>
      <point x="1130" y="425.579"/>
      <point x="1060" y="218.534"/>
      <point x="917" y="29" type="curve"/>
      <point x="948" y="17" type="line"/>
      <point x="1089" y="196.156"/>
      <point x="1165" y="421.644"/>
      <point x="1165" y="712" type="curve" smooth="yes"/>
    </contour>
  </outline>
</glyph>
